<?xml version="1.0" encoding="utf-8"?>
<svg viewBox="0 0 515 515" preserveAspectRatio="1:1" xmlns="http://www.w3.org/2000/svg" xmlns:bx="https://boxy-svg.com">
  <defs>
    <linearGradient id="color-0" gradientUnits="userSpaceOnUse" gradientTransform="matrix(1, 0, 0, 1, -315.220917, -311.096771)" bx:pinned="true">
      <title>Path</title>
      <stop style="stop-color: rgb(223, 197, 66);"/>
    </linearGradient>
    <linearGradient id="color-1" gradientUnits="userSpaceOnUse" bx:pinned="true">
      <title>Grass</title>
      <stop style="stop-color: rgb(163, 233, 183);"/>
    </linearGradient>
    <radialGradient gradientUnits="userSpaceOnUse" cx="471.4" cy="420.5" r="75.5" id="gradient-0" gradientTransform="matrix(0.812543, 0.659515, -0.414019, 0.652982, 231.020966, -194.930481)">
      <stop offset="0" style="stop-color: rgba(83, 199, 225, 1)"/>
      <stop offset="1" style="stop-color: rgba(31, 149, 175, 0);"/>
    </radialGradient>
  </defs>
  <path style="fill: rgb(216, 216, 216); stroke: rgb(0, 0, 0);" d="M 12.3 111.6 C 10.8 110.8 3.1 104.6 5.8 101.8 C 7.1 100.5 12.1 98.9 14 100.7 C 17.9 104.6 19.6 110.5 23 114 C 26.3 117.2 17.6 124.2 14.9 122.8 C 8.7 119.7 15 110.2 9 110.2"/>
  <path style="fill: rgb(216, 216, 216); stroke: rgb(0, 0, 0);" d="M 58.4 133.2 C 56.5 131.2 56.3 128.5 57.9 128 C 63.1 126.2 68.7 126.7 74.1 126.7 C 76.8 128.1 71.5 135 69.8 135.8 C 64.1 138.7 60.3 134.4 58.4 133.2 Z"/>
  <path style="fill: rgb(216, 216, 216); stroke: rgb(0, 0, 0);" d="M 66.4 141.3 C 65 141.3 60.7 142.6 61.8 144.9 C 62.2 145.6 63.3 146 64 146.3 C 67.3 147.7 71.4 148 74.9 148.7 C 77.8 149.4 80.5 150.7 83.3 151.7 C 85.7 152.5 88.2 152.8 90.4 153.7 C 92.3 154.5 94.3 155.8 96 157 C 96.3 157.2 97.3 158.8 97.5 158.8 C 97.6 158.8 97.1 155.7 97.1 155.6 C 96.5 153.7 96.4 151.6 95 150.2 C 94.2 149.4 93.1 148.9 92.1 148.3 C 89.2 146.4 85.7 145.8 82.5 144.6 C 78 142.8 73.7 141.1 68.9 140.6 C 68.4 140.6 67 140.4 66.5 140.6 C 66 140.8 66 141.4 65.4 141.4"/>
  <path style="fill: rgb(216, 216, 216); stroke: rgb(0, 0, 0);" d="M 24.1 127.9 C 34.6 127.9 41.3 136 50 141 C 65.6 150 156.4 197.3 165.2 217.7 C 167.8 223.7 141 234.3 133.4 234.3 C 130.1 234.2 110.1 227.5 98.9 224.4 C 73.7 217.1 43.9 174.8 29.4 157.9 C 26.2 154.1 10.3 135.8 16.1 128.8 C 18.7 125.8 22.7 129.7 23.9 129.7"/>
  <path style="fill: rgb(216, 216, 216); stroke: rgb(0, 0, 0);" d="M 31.1 110.6 C 32.5 112.8 34.1 114.7 35.9 116.7 C 37.2 118.2 38.1 120 39.6 121.3 C 40.9 122.5 42.8 123.4 44.5 124.1 C 47.6 125.4 47.3 120.2 46.4 118.6 C 45.7 117.4 44.5 116.5 43.5 115.7 C 42.1 114.6 40.7 113.4 39.1 112.7 C 37.6 112 35.7 111.9 34 111.5 C 33.2 111.2 32.5 111 31.7 110.6 C 31.6 110.6 30.6 110 30.5 110 C 30.5 110.1 31.9 110.9 31 110.9"/>
  <path style="fill: rgb(216, 216, 216); stroke: rgb(0, 0, 0);" d="M 22.2 97.6 C 20.4 98.3 17.5 97.7 15.7 97.7 C 14.1 97.7 12.7 97.6 11.2 97.2 C 10 96.9 8.7 96.8 7.5 96.3 C 6.7 96 6.2 94.7 5.9 94 C 5.7 93.3 5.2 92.6 5.1 91.9 C 4.6 88.7 7.7 87.8 8.9 85.4 C 9.6 84 10 82.5 10.3 81 C 11.2 76.3 9.2 71.2 11.3 66.7 C 12.2 64.9 15 65.6 16.2 66.4 C 17.9 67.6 18.7 69.1 19.8 70.8 C 21 72.8 22.6 74.3 23.4 76.6 C 24.6 79.6 26.1 82.4 26.7 85.7 C 26.9 87.1 27.1 88.9 26.8 90.2 C 26.6 91.2 25.9 92.3 25.4 93.3 C 24.7 94.6 23 95.4 22.2 96.8 C 22 97.1 22.2 97.8 22.2 98.2"/>
  <path style="fill: rgb(216, 216, 216); stroke: rgb(0, 0, 0);" d="M 108.6 161.5 C 108.4 161.9 108.5 162.5 108.4 162.9 C 108.3 163.7 108 164.4 108.1 165.2 C 108.1 165.8 108.5 166.4 108.8 166.9 C 109.7 168.7 111.2 170.4 112.9 171.4 C 115 172.6 117.3 173.1 119.4 174 C 120.6 174.6 121.8 174.9 123 175.5 C 124.2 176.1 125.2 176.9 126.1 177.8 C 126.3 178 127 179.1 127.4 179.2 C 127.9 179.3 128.6 179.1 129.1 179 C 129.5 178.9 130.4 179 130.7 178.6 C 130.9 178.3 130.8 177.4 130.7 177.1 C 130.2 175.8 129.2 174.8 128.2 173.8 C 126.1 171.7 123.6 170.4 121.3 168.6 C 119 166.8 116.9 164.9 114.6 163.2 C 113.4 162.4 112 161.6 110.6 160.9 C 110.3 160.8 108.8 161.1 108.5 161.2 C 108.3 161.3 108.3 161.8 108.5 161.8"/>
  <path style="fill: rgb(216, 216, 216); stroke: rgb(0, 0, 0);" d="M 169.2 226.9 C 166.3 229.8 160.1 233.2 161.9 238.3 C 162.3 239.5 164.2 240.6 165.2 241.1 C 168.2 242.9 171.4 244 174.9 244.4 C 175.8 244.5 177.8 244.9 178.7 244.4 C 183.6 242 184 232.3 179.6 229.1 C 177.1 227.2 171.5 227 168.3 227"/>
  <path style="fill: rgb(216, 216, 216); stroke: rgb(0, 0, 0);" d="M 145.5 233.9 C 144.1 234.6 142.6 235 141.2 235.7 C 140.5 236.1 139.7 236.8 139 237.3 C 138.2 237.9 137.1 238.8 136.9 239.9 C 136.6 240.9 137.4 241.9 137.8 242.6 C 138.2 243.3 138.4 244.5 139.1 245 C 139.7 245.3 140.5 245.3 141.1 245.3 C 142.9 245.4 144.6 245.4 146.2 244.7 C 148.6 243.7 148.7 241.5 149.7 239.5 C 149.9 239.2 150.3 239.1 150.5 238.8 C 150.9 238.3 151.3 237.8 151.6 237.2 C 151.6 237.2 151.9 236.8 151.8 236.8 C 151.7 236.7 151.2 236.7 151.1 236.7 C 150.5 236.6 149.9 236.7 149.3 236.6 C 149.1 236.5 149.3 236.2 149.2 236 C 149.1 235.7 148.9 235.1 148.6 234.8 C 148 234.2 147.3 234.2 146.5 234.1 C 146.3 234 146 233.7 145.8 233.8 C 145.6 233.9 145.6 234.1 145.3 234.3"/>
  <path style="stroke: rgb(0, 0, 0); fill: url(#gradient-0); stroke-width: 0px;" d="M 371 316.4 C 539.8 262.4 570.6 514.9 445.8 476.6 C 434 459.6 410.5 361.5 389.9 376.5 L 371 316.4 Z"/>
  <path style="fill: rgb(216, 216, 216); stroke: rgb(0, 0, 0);" d="M 355.5 319.3 C 359.6 314 367.7 311.3 369.5 304.1 C 372.5 292.4 369.7 282.4 372.7 270.9 C 373.8 266.4 381.5 257.7 380.7 254 C 379.9 250.5 380.2 243.5 377.8 240.7 C 371.8 234 366 226.8 363.9 218.2 C 362 210.7 371.7 205.5 368.6 197.4 C 363.5 184.1 354.5 188.9 345.7 183 C 337 177.2 331.4 168.1 324.1 160.8 C 321.2 157.9 305.9 161.8 301.9 162.2 C 295.2 162.8 285.6 154.6 279.1 158 C 270.4 162.4 267.9 173.9 260.1 180 C 247.2 190 234.6 195.6 222.9 207.4 C 213.9 216.5 194 207.8 190.5 221.7 C 189.6 225.5 191.1 231.6 191.1 235.3 C 191.1 238.3 189.1 242.9 189.1 244.7 C 188.9 246.4 189.2 249.3 188.1 250.8 C 186.5 252.9 184 254.3 183.3 256.9 C 181.7 263 188.5 268.4 191.9 272.9 C 193.4 274.8 194.5 277.2 196 279.3 C 198.1 282.3 201.3 285.6 202.8 288.9 C 204 291.5 203.9 295.1 204.1 298 C 204.3 299.6 206 303 204 303 C 205.4 308 211.4 309.4 216 310.1 C 217.3 310.2 218.1 312 219.4 311.8 C 222.6 311.2 225.3 309.8 229 310.6 C 235.3 312.1 243.5 315.9 248.5 320 C 250.6 321.7 256.3 325.7 256.3 328.8 C 256.2 328.3 256.7 329.7 257 330.1 C 257.6 330.9 258.3 331.8 258.8 332.7 C 260.2 335.1 263.3 337.5 265.6 339.1 C 273.1 344 283.9 345.5 292.5 344 C 309.6 341.1 314.9 336.4 331.9 333.5 C 330.4 337.2 340.6 340 343.4 338.6 C 349.7 335.4 351.5 323.4 355.5 319.3 Z"/>
  <path style="fill: rgb(216, 216, 216); stroke: rgb(0, 0, 0);" d="M 393.2 192 C 390.9 193.3 388.7 194 386.5 195.1 C 382 197.3 385.8 204.4 388.6 205.8 C 389.8 206.4 392.9 202.8 393.7 202.2 C 397.9 199 402.2 203.2 405 197.5 C 406.6 194.3 399.2 188 396.9 187.2 C 391.7 185.5 393.8 192.3 392.4 193 C 392.2 193.1 390.7 192.8 390.7 193.1"/>
  <path style="fill: rgb(216, 216, 216); stroke: rgb(0, 0, 0);" d="M 399.9 165.2 C 404.5 173.3 409.5 180.8 419.1 173.5 C 421.8 171.5 421.5 167.5 424.3 165.4 C 433.7 158.2 446.8 147.9 438.1 135 C 436.2 132.2 431.8 132.1 429.7 134.9 C 425 141 417.9 143.2 413.2 149.4 C 406.8 157.8 400.8 148.3 393.6 155.4 C 392.7 156.2 392.3 157.8 392.5 158.9 C 392.8 160 394.1 160.8 394.8 161.5 C 396.5 163.3 399.9 169.5 402.7 169.5"/>
  <path style="fill: rgb(216, 216, 216); stroke: rgb(0, 0, 0);" d="M 189.7 189.7 C 188 190.5 184.7 191.6 183.8 193.5 C 183.5 194.1 185.2 196.5 185.5 197.1 C 187.5 201.7 192.1 206.1 197.6 204.8 C 199.2 204.6 201.4 202.6 201.6 200.8 C 201.9 198.9 200.8 196.4 200.2 194.6 C 199.9 193.4 199.1 191 197.8 190.3 C 196.4 189.5 194.3 189.1 192.7 188.6 C 192.5 188.5 191 187.8 190.7 188 C 190.3 188.3 189.7 189.8 189.3 189.8"/>
  <path style="fill: rgb(216, 216, 216); stroke: rgb(0, 0, 0);" d="M 204.6 191.3 C 202.8 192.9 205.8 196.8 207.5 197.3 C 208.8 197.7 210.4 194 210.8 193.3 C 211.2 192.7 212.3 191 212.2 190.3 C 212 189.4 210 188.9 209.5 188.7 C 208.2 188.2 204.6 186.9 203.5 188.6 C 203.1 189.1 203.6 190.3 204 190.8 C 204.1 191 203.8 192.2 204.1 192.2"/>
  <path style="fill: rgb(216, 216, 216); stroke: rgb(0, 0, 0);" d="M 221 178.7 C 221 183.4 231.2 186.3 235.4 182.5 C 237.1 180.9 239.7 176.1 234.8 175.6 C 232.6 175.3 230.7 176.7 228.5 176.8 C 226.6 177 224.1 175.9 222.3 176.4 C 221 176.7 222.3 178.2 221.7 178.7 C 221.3 178.9 221 179.2 220.8 179.4"/>
  <path style="fill: rgb(216, 216, 216); stroke: rgb(0, 0, 0);" d="M 202.4 179.9 C 201.8 180.5 200.4 182 200.2 182.7 C 199.9 184.3 202.1 185 203.3 184.9 C 205.9 184.7 208.5 184.1 210.2 182 C 210.6 181.6 210 180.6 209.7 180.3 C 208.4 179.4 206.1 177 204.2 177.3 C 203.1 177.4 202.6 178.5 202.2 179.3 C 202 179.6 202.5 180.4 202.1 180.6"/>
  <path style="fill: rgb(216, 216, 216); stroke: rgb(0, 0, 0);" d="M 203.5 164.8 C 202.4 165.3 200.5 166.3 200.2 167.3 C 199.2 170 202.8 173.8 206.5 174 C 210 174.5 210.6 172.8 213 171.8 C 215.6 171 218.5 172 221 171.3 C 222.1 171 222.5 169.8 223.1 169.3 C 223.4 168.8 223.7 168.3 223.9 167.8 C 224.1 167 224.7 166.3 224.5 165.5 C 224.1 164.5 221.4 164 219.9 163.5 C 217.9 163.3 215.4 164.8 213.6 164.5 C 211.2 164 208 162.8 205.8 163 C 204.1 163.3 201.8 165 201.8 166"/>
  <path style="fill: rgb(216, 216, 216); stroke: rgb(0, 0, 0);" d="M 227 164 C 226 165.7 225 169.7 227.4 170.5 C 227.9 170.7 228.6 170.1 229.1 169.9 C 230 169.7 231.1 169.8 232.1 169.7 C 232.7 169.7 235.5 170.9 235.7 169.5 C 236.4 166.5 233.8 163.5 231.9 162.6 C 231.1 162.3 230.1 161.5 229.4 162.1 C 228.5 162.6 227.9 163.4 227.2 164 C 227.1 164.1 226.7 164.6 226.7 164.8"/>
  <path style="fill: rgb(216, 216, 216); stroke: rgb(0, 0, 0);" d="M 232.3 152.5 C 232.3 156.5 232.1 159.6 235.2 161.6 C 236.2 162.3 241.6 160.8 241.2 158.3 C 240.7 155.6 236.9 152 235.1 151.3 C 233.6 150.9 231.7 151.3 231.7 153.7"/>
  <path style="fill: rgb(216, 216, 216); stroke: rgb(0, 0, 0);" d="M 244.6 153.6 C 249.5 147.1 252.8 137 254.1 128.9 C 255.3 121.3 258 112.2 256.6 104.4 C 255.4 96.8 254.1 89.3 253.4 81.6 C 252.6 74.1 253.3 66.8 251.1 59.5 C 248.3 50.2 237.5 44.3 233.2 35.9 C 231.5 32.5 233.1 26.8 237.1 26.1 C 241.2 25.4 245.1 29.2 248.7 30.7 C 257.6 34.3 269.1 42.2 271.7 52.4 C 273.7 60.4 274.9 69.4 276.2 77.6 C 277.1 83.5 281.8 89 284.6 94.1 C 289.3 102.8 298 108.6 303.9 116.5 C 306.3 119.7 311.8 122.1 312.8 126.2 C 314.5 133.1 307 140.8 300.9 142.2 C 297.4 143 293 142.5 289.4 142.5 C 281.8 142.5 274.8 142 267.3 140.6 C 266.5 140.5 259.2 143.4 258.3 144.6 C 254.5 149.5 249.6 157.3 242.9 154.2"/>
  <path style="fill: rgb(216, 216, 216); stroke: rgb(0, 0, 0);" d="M 197.5 309.1 C 203.3 316.1 207 320.6 213.5 327.1 C 215.6 329.2 219.9 332.6 219 336 C 217.6 341.6 210.3 344.2 206.4 347.1 C 195.5 355.2 187.2 366.4 176.4 374.3 C 174.1 376.1 162.9 380 160.6 377.8 C 159.5 376.7 158.3 375.1 157.1 373.9 C 148.1 364.9 158.7 358.3 163.5 351.7 C 165.2 349.3 162.2 344.9 161.9 331.4 C 161.7 323.1 171.1 319.7 175.9 313.2 C 177.4 311.2 180.7 307 183.1 306.1 C 187.6 304.6 193.2 309.3 197.5 309.3"/>
  <path style="fill: rgb(216, 216, 216); stroke: rgb(0, 0, 0);" d="M 140.9 367.9 C 135.5 369 137.2 374.3 141.7 375.4 C 143 375.7 144.8 374.2 145.8 373.6 C 147 372.8 147.7 372.1 148.3 370.7 C 150.3 366.2 139.5 363.1 139.5 368.3"/>
  <path style="fill: rgb(216, 216, 216); stroke: rgb(0, 0, 0);" d="M 152.4 377.4 C 150.7 379.6 155.6 384.8 158.2 384.2 C 160.2 383.7 158.7 381.2 158 380.3 C 156.3 378.1 153.6 377.6 151.1 377.6"/>
  <path style="fill: rgb(216, 216, 216); stroke: rgb(0, 0, 0);" d="M 141.3 383.8 C 134.3 389.2 125.7 387.3 117.8 389.2 C 115 389.9 108.2 389.3 106.1 391.3 C 102.5 394.8 98.4 398.6 96.1 403.2 C 92.4 410.6 90.4 414.4 95.6 422.1 C 98.6 426.6 107.7 420 110.6 418.5 C 114.7 416.4 122.7 418.1 127.1 419.2 C 130.9 420.1 134.5 416.8 137.5 415.2 C 139.3 414.2 142.5 411.6 143.3 409.6 C 145.2 404.6 141.4 399.9 142.6 394.9 C 143.6 391 145.8 387.5 144.8 383.4 C 143.8 379.6 137.2 382.8 137.2 385.8"/>
  <path style="fill: rgb(216, 216, 216); stroke: rgb(0, 0, 0);" d="M 84.6 420.3 C 81.6 421.6 78.9 426.4 84 427.7 C 85.5 428.1 88.4 427.4 89.7 427 C 93.7 425.9 87.1 420.2 85.6 419.5 C 83.9 418.6 83.6 420.1 82.7 420.1"/>
  <path style="fill: rgb(216, 216, 216); stroke: rgb(0, 0, 0);" d="M 97.9 426.5 C 93.2 426.5 96 432.5 99.1 431.7 C 103 430.7 98.4 425.6 96.2 425.6"/>
  <path style="fill: rgb(216, 216, 216); stroke: rgb(0, 0, 0);" d="M 90.5 429.9 C 88.7 431.8 86 434.1 87.4 437.2 C 88.8 440.2 92.6 439.4 93.4 436.4 C 94 433.9 90 431.4 90 429.1"/>
  <path style="fill: rgb(216, 216, 216); stroke: rgb(0, 0, 0);" d="M 74.4 424.4 C 73.1 430.1 77.9 433.8 81.6 436.6 C 83.2 437.8 84.1 439.9 85.8 441.2 C 87.5 442.5 90.8 443.8 90 446.7 C 89.1 450.5 80.6 451.7 78 453.1 C 73.2 455.8 70 461.2 65.2 463.6 C 63.8 464.3 61.7 466 59.9 465.5 C 54.4 464.2 57.5 458.1 55.9 454.8 C 54.9 452.8 52.2 454 50.8 452.3 C 49.1 450.1 45.4 447.7 43.8 445.3 C 43 444.2 42.9 441.9 44.1 441.1 C 46.4 439.6 51.1 442.1 53.1 442.5 C 54.9 442.9 56.4 444.6 58.1 445 C 61.2 445.8 67.2 440.5 69.9 439.3 C 71.3 438.7 70.5 429.9 70.3 429.3 C 70 428.1 73.8 424.1 74.3 424.5"/>
  <path style="fill: rgb(216, 216, 216); stroke: rgb(0, 0, 0);" d="M 40.1 452.7 C 35.5 451.8 31.4 453 27.6 455.8 C 25 457.7 23.8 462.1 23 465.1 C 22.5 467.2 20.4 468.8 19.8 471 C 18.2 477.3 5.3 483.8 13 491.4 C 13.9 492.3 14.9 493.5 16 494.2 C 17.6 495.3 19.3 496.5 21.2 497 C 26.7 498.4 33.9 491.2 37.3 487.7 C 40.8 484.3 46.6 484.1 49.1 479.5 C 51.2 475.7 52.2 471.3 52.7 467 C 52.8 466 53.6 464.4 53.4 463.4 C 51.8 457.1 42.4 452 36.7 452"/>
  <path style="stroke: rgb(0, 0, 0); fill: rgb(168, 96, 96);" d="M 50.4 481.5 C 45.6 485 54.8 493 56.5 486 C 57 484 53.2 480.1 51.2 481.1 C 50.4 481.5 50.6 482.9 49.8 483.3 C 49.7 483.3 47.6 484.7 47.6 485"/>
  <path style="stroke: rgb(0, 0, 0); fill: rgb(168, 96, 96);" d="M 58.5 472.4 C 55 473.9 55.5 480.9 59.5 479.9 C 62.5 479.2 63.2 475.7 60.7 474 C 59.7 473.3 58.2 472.6 57.4 471.9"/>
  <path style="fill: rgb(216, 216, 216); stroke: rgb(0, 0, 0);" d="M 75.9 469.8 C 75.5 471.7 78.2 477.7 80.8 475.7 C 84.3 473.1 82.1 469.6 78.3 469.6 C 76.9 469.6 75.5 470.7 74.3 470.7"/>
  <path style="fill: rgb(216, 216, 216); stroke: rgb(0, 0, 0);" d="M 85.8 459 C 85.1 459.6 82.9 460.9 83.2 462.1 C 83.9 464.8 89.3 466.5 91.4 465.1 C 93 464 91 460.2 89.8 459.4 C 87.7 458 84.5 458.9 82.6 459.8"/>
  <path style="fill: rgb(216, 216, 216); stroke: rgb(0, 0, 0);" d="M 91.2 471 C 93.3 474.4 96.6 472.6 99.9 471.5 C 103.8 470.2 106.8 469.6 104.3 465 C 101.8 460.5 97.9 463.9 95.3 465.6 C 92.9 467.2 90.2 466.9 92.1 470.8"/>
  <path style="fill: rgb(216, 216, 216); stroke: rgb(0, 0, 0);" d="M 109 456.9 C 107.7 457.6 104.8 458.1 104.2 459.8 C 103.8 461 108.4 464.4 109.5 463.5 C 112.6 461.2 110.9 454.9 106.7 455.9 C 106 456 105.4 456.5 104.9 456.9 C 104.8 457.1 104.9 459.2 104.8 459.2"/>
  <path style="fill: rgb(216, 216, 216); stroke: rgb(0, 0, 0);" d="M 127.2 455 C 121.8 455 120.4 460 118.4 463.9 C 116.7 467.3 115 470.3 113.2 473.6 C 112.6 474.7 111.3 476.1 111.6 477.5 C 112.1 479.2 113.7 480.7 115 481.9 C 115.7 482.4 116.2 483.4 117 483.8 C 124.7 488 135.4 480.1 141.2 476.2 C 142.6 475.3 143.7 473.5 145.1 472.8 C 145.9 472.4 146.8 474.1 147.3 474.6 C 148.9 476.2 150.8 478.8 153.2 479.6 C 160.1 481.9 163.7 480.8 171.4 478.3 C 177.1 476.4 183.1 473.5 184.4 466.9 C 184.8 465.1 184.3 462.9 184 461.2 C 182.5 452.9 178.3 450 169.6 450.8 C 164.7 451.2 159.7 450.7 154.7 451.2 C 151.3 451.5 148.1 453.5 144.5 453.7 C 140.5 454.1 137.5 453.3 133.7 452.3 C 131.9 451.9 130.7 453.6 129.4 454.3 C 126.8 455.8 121.3 454.5 121.3 458.1"/>
  <path style="fill: rgb(216, 216, 216); stroke: rgb(0, 0, 0);" d="M 199.2 463.1 C 197.7 463.4 196.1 463.6 194.6 464 C 190.6 464.9 187.8 468.5 192.7 471.1 C 194.4 472 196.1 472 198 472.4 C 201.1 473.2 202.1 469.9 204.1 468.4 C 205.1 467.6 207.7 465.6 207.3 464.1 C 207.1 463.2 206.4 462.7 206 462 C 203.4 457.3 200.5 460 198.8 463.5 C 198.5 463.9 196.3 464.4 196.3 464.6"/>
  <path style="fill: rgb(216, 216, 216); stroke: rgb(0, 0, 0);" d="M 206.8 453.4 C 208.1 456.7 211.8 458.2 214.6 459.6 C 222.5 463.6 236.2 463.1 244.4 460 C 247.1 458.9 249.6 456.9 252.3 455.8 C 253.6 455.4 254.9 455.1 256.2 454.8 C 259.9 454 264.2 452.5 266.1 449.1 C 266.6 448.2 267.7 447.2 267.5 446.2 C 265.8 439.6 255.1 439.3 250.2 438.3 C 246.8 437.5 243.5 435.9 239.9 436.3 C 237.3 436.5 235.2 438 232.8 438.8 C 227.4 440.8 221.7 442 216.7 444.9 C 215 445.9 213.9 448 212 448.7 C 210.6 449.1 207.4 449.5 206.6 450.7 C 203.8 454.8 207.3 458.8 212.4 458.8"/>
  <path style="fill: rgb(216, 216, 216); stroke: rgb(0, 0, 0);" d="M 284.9 437.9 C 282 438.4 277.2 437.7 275.5 441 C 274.3 443.4 280.2 446.6 281.7 447.2 C 282.5 447.4 283.2 447.8 284 448 C 285 448.3 285.9 448.8 286.9 448.7 C 289.8 448.2 294.1 445.1 291.7 441.8 C 289.5 438.9 286.7 438.9 283.9 437.6 C 283.4 437.3 282.1 436.1 281.8 436.1"/>
  <path style="fill: rgb(216, 216, 216); stroke: rgb(0, 0, 0);" d="M 317.9 419.4 C 313.4 421.4 309.9 422.8 307.5 427.3 C 306.3 429.4 304.2 429.7 303.4 432.4 C 301.6 438.4 308 448.4 314.9 447.2 C 316.1 447 317 445.6 318 445.1 C 320 444.1 322.3 442.9 324.5 442.4 C 328 441.5 332.5 445.9 335.7 444.3 C 336.9 443.6 338.4 442.6 339.5 441.8 C 344.1 438.3 343.2 431.6 342.4 426.9 C 342.1 425.5 341.9 423.4 340.7 422.5 C 337.7 420.2 332.9 425.6 330.1 424.7 C 326.8 423.6 323.3 423 320 422.1 C 318.6 421.8 316.5 419.5 315.4 419.5"/>
  <path style="fill: rgb(216, 216, 216); stroke: rgb(0, 0, 0);" d="M 364 431.3 C 360.8 434.4 356.5 432.5 353 433.5 C 350.5 434.3 351.6 436.7 353 437.8 C 355.6 439.7 358 441.7 361.6 440.8 C 367.3 439.4 366.2 431.8 360.7 431.8"/>
  <path style="fill: rgb(216, 216, 216); stroke: rgb(0, 0, 0);" d="M 374.9 434.4 C 374.9 434 374 430.8 373 431.8 C 370.6 434.1 372.7 440.9 374.9 443.1 C 376.4 444.6 378.8 444.6 381 444.6 C 381.9 444.6 385.3 445.1 385.9 444.2 C 388.3 440.5 385.7 428.2 379.3 430.1 C 377.1 430.8 375.1 435.1 373.7 435.1"/>
  <path style="fill: rgb(216, 216, 216); stroke: rgb(0, 0, 0);" d="M 397.5 438.6 C 400.2 441.8 405.1 440.7 408.6 439.7 C 409.8 439.3 412.7 438.3 412.3 436.4 C 411.2 432 406.9 435.6 404.8 436.1 C 402.9 436.6 401.1 435.6 399.3 436.5 C 398.1 437.1 395 438.8 397.4 440"/>
  <path style="fill: rgb(216, 216, 216); stroke: rgb(0, 0, 0);" d="M 413.8 411.9 C 413.8 413.9 413 417.8 413.8 419.8 C 414.5 421.8 416.7 424.1 416.4 426.5 C 415.6 431.9 413.9 436 412.4 441.2 C 412.1 442.1 410.5 445.9 411.4 446.9 C 411.9 447.5 413 447.5 413.8 447.7 C 413.8 447.7 414.2 450.3 414.5 450.6 C 416.1 452.1 416.4 454.9 418.2 456.6 C 420.8 459 425.2 458.9 428.9 459.3 C 431.9 459.6 434.9 460.6 437.9 460.9 C 444.6 461.5 452 459.5 457.9 456.6 C 458.2 456.5 458 451.7 458 451 C 458 447.8 459.1 446.1 461.4 443.6 C 463.3 441.7 465.3 439.8 467.4 438.2 C 470.7 435.6 473.4 436.2 474.2 431.1 C 475.1 424 472.2 418.2 466.6 413.6 C 464.4 411.8 461.3 411.4 459.2 409.5 C 455 406 453.8 400.5 450.7 396.2 C 450.6 396 447.2 395.5 446.9 395.4 C 443.5 394.6 439.6 394.4 436.3 393.2 C 431.1 391.4 423.1 380.5 422.6 380.4 C 421.1 379.4 419.2 378.6 418.3 377 C 418.1 376.1 413 372.6 411.1 370.7 C 409.2 369 406.1 367.6 405 365 C 403.3 360.9 402.4 356.7 400.5 352.6 C 398 347.3 394.4 343.3 391.1 338.4 C 388.6 334.8 387.1 330.6 384.5 327 C 382.5 324 380.8 320.8 378.1 318.3 C 377.4 317.6 376 315.4 374.7 315.1 C 369.3 313.8 366.8 322.8 366.4 324.8 C 364.2 334.3 368.4 350.5 369.7 353.5 C 371.8 358.8 372.7 374.3 373.5 376.9 C 378.8 394.9 404.6 394.4 410.4 404.8 C 411.7 407.1 413.1 409.5 413.8 411.9 Z"/>
  <path style="stroke: rgb(0, 0, 0); fill: rgb(163, 233, 181);" d="M 252.4 140.1 C 256.6 134.5 256.1 133.8 257.2 126.8 C 258.2 120.3 260.6 112.4 259.4 105.7 C 258.3 99.1 257.2 92.6 256.6 85.9 C 255.9 79.5 258.7 73.1 256.8 66.7 C 254.4 58.7 248.1 52.8 244.3 45.5 C 242.9 42.6 236.9 31.8 240.4 31.2 C 243.9 30.6 251.1 38.6 254.2 39.9 C 261.9 43 270.2 51.9 272.4 60.7 C 274.1 67.6 275.2 75.4 276.3 82.5 C 277.1 87.6 281.1 92.3 283.6 96.8 C 287.6 104.3 295.1 109.3 300.2 116.1 C 302.3 118.9 308.5 122.3 309.3 125.8 C 310.8 131.8 304.5 138 299.2 139.2 C 296.2 139.9 290.8 138.6 287.7 138.6 C 281.1 138.6 275.1 138.2 268.6 136.9 C 267.9 136.9 261.6 139.4 260.8 140.4 C 257.5 144.6 260.2 144.4 254.4 141.7"/>
  <path style="stroke: rgb(0, 0, 0); fill: rgb(163, 233, 182);" d="M 31.7 134.9 C 41 134.9 53.7 148.9 61.1 153.6 C 72.7 161 150.6 202.9 158.3 218.3 C 160.5 222.8 137.1 230.8 130.3 230.8 C 127.4 230.7 110 225.8 100 223.4 C 77.9 218 57.3 184.4 44.6 172 C 41.7 169.1 18.4 142.2 23.5 137 C 25.8 134.8 31.4 134.4 32.3 134.4"/>
  <path style="stroke: rgb(0, 0, 0); fill: rgb(155, 155, 155);" d="M 40.8 171.2 L 40.4 184.8 L 63.2 211.4 L 99.9 207.9 L 111.5 193.1 L 90.4 178.8 C 90.4 178.8 76.6 174.8 76.6 174.9 C 76.6 175 69.8 168.5 69.8 168.5 L 43.4 166.8 L 40.8 171.2 Z"/>
  <line style="fill: rgb(216, 216, 216); stroke: rgb(242, 142, 60);" x1="72" y1="194.9" x2="78.5" y2="200.5"/>
  <path style="stroke: rgb(0, 0, 0); fill: rgb(163, 233, 183);" d="M 13.6 110 C 12.3 109.3 5.8 103.7 8.1 101.2 C 9.2 100.1 13.4 98.6 15.1 100.2 C 18.4 103.7 19.8 109 22.7 112.1 C 25.6 115 18.1 121.2 15.8 120 C 10.5 117.2 15.9 108.7 10.8 108.7"/>
  <path style="stroke: rgb(0, 0, 0); fill: rgb(163, 233, 183);" d="M 33.8 111.1 C 35 113 36.4 114.7 37.9 116.5 C 39 117.8 39.8 119.5 41.1 120.6 C 42.2 121.7 43.8 122.5 45.3 123.1 C 47.9 124.3 47.7 119.6 46.9 118.2 C 46.3 117.1 45.3 116.3 44.4 115.6 C 43.2 114.6 42 113.6 40.7 112.9 C 39.4 112.3 37.8 112.2 36.3 111.9 C 35.6 111.6 35 111.4 34.3 111.1 C 34.3 111.1 33.4 110.5 33.3 110.5 C 33.3 110.6 34.5 111.3 33.7 111.3"/>
  <path style="stroke: rgb(0, 0, 0); fill: rgb(163, 233, 183);" d="M 22.1 97.5 C 20.5 98.1 18 97.5 16.5 97.5 C 15.1 97.5 13.9 97.5 12.7 97.1 C 11.6 96.8 10.5 96.7 9.5 96.3 C 8.8 96 8.4 94.9 8.1 94.2 C 8 93.6 7.5 93 7.5 92.4 C 7 89.5 9.7 88.7 10.7 86.6 C 11.3 85.3 11.6 84 11.9 82.6 C 12.7 78.4 11 73.9 12.8 69.8 C 13.5 68.2 15.9 68.8 16.9 69.6 C 18.4 70.6 19.1 72 20 73.5 C 21 75.3 22.4 76.6 23.1 78.7 C 24.1 81.4 25.4 83.9 25.9 86.8 C 26.1 88.1 26.2 89.7 26 90.8 C 25.8 91.7 25.2 92.7 24.8 93.6 C 24.2 94.8 22.7 95.5 22.1 96.7 C 21.9 97 22.1 97.6 22.1 98"/>
  <path style="stroke: rgb(0, 0, 0); fill: rgb(163, 233, 183);" d="M 61.1 132.3 C 59.4 130.5 59.2 128.1 60.7 127.6 C 65.5 126 70.7 126.5 75.7 126.5 C 78.2 127.7 73.3 133.9 71.7 134.6 C 66.4 137.2 62.9 133.4 61.1 132.3 Z"/>
  <path style="stroke: rgb(0, 0, 0); fill: rgb(163, 233, 183);" d="M 67.3 141.5 C 66 141.5 62 142.7 63 144.7 C 63.4 145.4 64.4 145.7 65 146 C 68.1 147.3 71.9 147.5 75.2 148.2 C 77.8 148.8 80.4 149.9 83 150.8 C 85.2 151.6 87.5 151.8 89.6 152.6 C 91.3 153.3 93.2 154.5 94.8 155.6 C 95 155.8 96 157.2 96.2 157.2 C 96.3 157.2 95.8 154.4 95.8 154.3 C 95.2 152.6 95.1 150.7 93.8 149.5 C 93.1 148.8 92.1 148.3 91.1 147.8 C 88.4 146.1 85.2 145.6 82.2 144.5 C 78 142.9 74 141.3 69.6 140.9 C 69.1 140.9 67.8 140.7 67.3 140.9 C 66.9 141.1 66.9 141.6 66.3 141.6"/>
  <path style="stroke: rgb(0, 0, 0); fill: rgb(163, 233, 183);" d="M 108.5 162.2 C 108.3 162.6 108.4 163.1 108.3 163.5 C 108.2 164.2 107.9 164.8 108 165.6 C 108 166.1 108.4 166.6 108.7 167.1 C 109.5 168.7 110.9 170.2 112.5 171.1 C 114.4 172.2 116.6 172.6 118.5 173.4 C 119.6 174 120.7 174.2 121.9 174.8 C 123 175.3 123.9 176 124.7 176.8 C 124.9 177 125.6 178 125.9 178.1 C 126.4 178.2 127.1 178 127.5 177.9 C 127.9 177.8 128.7 177.9 129 177.6 C 129.2 177.3 129.1 176.5 129 176.2 C 128.5 175.1 127.6 174.2 126.7 173.3 C 124.7 171.4 122.4 170.2 120.3 168.6 C 118.1 167 116.2 165.3 114 163.8 C 112.9 163 111.6 162.3 110.3 161.7 C 110 161.6 108.7 161.9 108.4 162 C 108.2 162.1 108.2 162.5 108.4 162.5"/>
  <path style="stroke: rgb(0, 0, 0); fill: rgb(163, 233, 182);" d="M 169.2 229.2 C 166.9 231.4 162 233.8 163.5 237.6 C 163.9 238.5 165.3 239.3 166.1 239.7 C 168.4 241.1 170.7 241.9 173.5 242.1 C 174.3 242.1 175.8 242.6 176.5 242.1 C 180.2 240.4 180.5 233.3 177.3 230.9 C 175.3 229.4 170.9 229.2 168.5 229.2"/>
  <path style="stroke: rgb(0, 0, 0); fill: rgb(163, 233, 182);" d="M 145.2 235.2 C 144.1 235.8 142.9 236 141.8 236.7 C 141.3 236.9 140.6 237.4 140.2 237.7 C 139.5 238.3 138.5 238.9 138.3 239.6 C 138.3 240.4 138.9 241.1 139.3 241.7 C 139.5 242.1 139.7 243 140.2 243.5 C 140.6 243.7 141.3 243.7 141.8 243.7 C 143 243.8 144.5 243.8 145.6 243.3 C 147.6 242.5 147.6 241 148.4 239.4 C 148.5 239.1 148.9 239.1 149.1 238.9 C 149.4 238.5 149.7 238.1 149.9 237.7 C 149.9 237.7 150.2 237.4 150 237.4 C 150 237.3 149.5 237.3 149.5 237.3 C 149.1 237.3 148.5 237.3 148.1 237.3 C 147.9 237.2 148.1 237 148.1 236.7 C 147.9 236.7 147.8 236.2 147.6 235.9 C 147.1 235.5 146.7 235.5 146 235.4 C 145.8 235.4 145.5 235.1 145.4 235.1 C 145.2 235.2 145.2 235.4 145 235.5"/>
  <path style="fill: rgb(216, 216, 216); stroke: rgb(0, 0, 0);" d="M 246.1 150.7 L 249.8 153.9 L 246.1 150.7 Z"/>
  <path style="fill: rgb(216, 216, 216); stroke: rgb(0, 0, 0);" d="M 248.4 147.8 L 253.6 150.5 C 253.6 150.5 248.5 147.4 248.4 147.8 Z"/>
  <path style="fill: rgb(216, 216, 216); stroke: rgb(0, 0, 0);" d="M 249.6 144 L 255.4 147.3"/>
  <path style="fill: rgb(216, 216, 216); stroke: rgb(0, 0, 0);" d="M 251 139.8 L 259.3 143.6"/>
  <path style="stroke: rgb(0, 0, 0); fill: rgb(163, 233, 182);" d="M 190.2 191.3 C 188.8 191.9 186.2 192.7 185.5 194.1 C 185.3 194.5 186.6 196.2 186.9 196.6 C 188.4 199.9 192.1 203.1 196.4 202.2 C 197.6 202 199.4 200.6 199.5 199.3 C 199.7 197.9 198.9 196.1 198.4 194.8 C 198.2 194 197.5 192.3 196.5 191.8 C 195.4 191.2 193.8 190.9 192.5 190.5 C 192.4 190.5 191.2 190 191 190.1 C 190.6 190.3 190.2 191.4 189.9 191.4"/>
  <path style="stroke: rgb(0, 0, 0); fill: rgb(163, 233, 182);" d="M 204.9 191.3 C 203.7 192.6 205.7 195.9 206.9 196.3 C 207.8 196.6 208.9 193.5 209.2 192.9 C 209.5 192.4 210.3 191 210.2 190.4 C 210.1 189.7 208.7 189.2 208.3 189.1 C 207.4 188.7 204.9 187.6 204.1 189 C 203.9 189.4 204.2 190.4 204.5 190.8 C 204.6 191 204.4 192 204.6 192"/>
  <path style="stroke: rgb(0, 0, 0); fill: rgb(163, 233, 182);" d="M 223.2 181.3 C 223.2 185.1 230.5 187.4 233.5 184.3 C 234.7 183.1 236.6 179.2 233.1 178.8 C 231.5 178.5 230.1 179.7 228.6 179.8 C 227.2 179.9 225.4 179 224.1 179.4 C 223.2 179.7 224.1 180.9 223.7 181.3 C 223.4 181.4 223.2 181.7 223 181.8"/>
  <path style="stroke: rgb(0, 0, 0); fill: rgb(163, 233, 182);" d="M 202.8 180.2 C 202.4 180.6 201.3 181.8 201.2 182.3 C 200.9 183.5 202.6 184.1 203.5 184 C 205.5 183.8 207.4 183.4 208.7 181.8 C 209 181.5 208.6 180.7 208.4 180.5 C 207.4 179.8 205.6 178 204.2 178.2 C 203.4 178.3 203 179.1 202.7 179.7 C 202.5 180 202.9 180.6 202.6 180.7"/>
  <path style="stroke: rgb(0, 0, 0); fill: rgb(163, 233, 182);" d="M 204.2 165.8 C 203.2 166.2 201.5 166.9 201.3 167.7 C 200.4 169.7 203.5 172.5 206.9 172.7 C 209.9 173.1 210.5 171.8 212.5 171.1 C 214.8 170.4 217.4 171.3 219.7 170.7 C 220.6 170.4 220.9 169.5 221.5 169.2 C 221.8 168.8 222 168.5 222.1 168.1 C 222.3 167.5 222.9 166.9 222.7 166.4 C 222.3 165.6 219.9 165.2 218.6 164.8 C 216.9 164.6 214.6 165.8 213.1 165.6 C 210.9 165.2 208.2 164.3 206.2 164.5 C 204.7 164.6 202.7 165.9 202.7 166.7"/>
  <path style="stroke: rgb(0, 0, 0); fill: rgb(163, 233, 182);" d="M 227.9 166 C 227.1 167.1 226.3 169.7 228.2 170.2 C 228.6 170.3 229.1 170 229.5 169.8 C 230.2 169.7 231 169.8 231.8 169.7 C 232.2 169.7 234.4 170.5 234.5 169.6 C 235.1 167.6 233.1 165.7 231.6 165.1 C 231 164.9 230.2 164.4 229.7 164.8 C 229 165.1 228.6 165.6 228 166 C 227.9 166.1 227.6 166.4 227.6 166.5"/>
  <path style="stroke: rgb(0, 0, 0); fill: rgb(163, 233, 182);" d="M 233.5 155.1 C 233.5 157.9 233.3 160.1 235.9 161.5 C 236.7 162 241.1 161 240.8 159.2 C 240.4 157.3 237.3 154.7 235.8 154.2 C 234.5 153.9 233 154.2 233 155.9"/>
  <ellipse style="stroke: rgb(0, 0, 0); fill: rgb(248, 250, 244);" cx="310.2" cy="162.1" rx="2.5" ry="2.5"/>
  <path style="stroke: rgb(0, 0, 0); fill: rgb(163, 233, 182);" d="M 354.6 315.5 C 358.6 310.5 366.5 307.9 368.2 301.1 C 371.1 290 368.4 280.5 371.3 269.6 C 372.4 265.4 379.9 257.1 379.1 253.6 C 378.3 250.3 378.6 243.7 376.3 241 C 370.5 234.6 364.9 227.8 362.8 219.7 C 361 212.5 370.4 207.5 367.3 199.8 C 362.4 187.2 353.7 191.8 345.2 186.2 C 336.7 180.7 331.3 172.1 324.3 165.1 C 321.4 162.4 306.7 166.1 302.8 166.5 C 296.2 167 286.9 159.3 280.7 162.5 C 272.2 166.7 269.8 177.6 262.3 183.3 C 249.8 192.8 237.5 198.1 226.2 209.3 C 217.5 218.1 198.2 209.7 194.9 223 C 193.9 226.6 195.4 232.4 195.4 235.9 C 195.4 238.7 193.4 243.1 193.4 244.8 C 193.2 246.4 193.5 249.1 192.5 250.6 C 191 252.6 188.5 253.9 187.8 256.4 C 186.3 262.1 192.9 267.3 196.2 271.5 C 197.6 273.3 198.6 275.6 200.2 277.6 C 202.2 280.4 205.3 283.6 206.7 286.7 C 207.9 289.2 207.8 292.6 208 295.3 C 208.2 296.8 209.8 300.1 207.9 300.1 C 209.3 304.8 215.1 306.1 219.5 306.8 C 220.7 306.9 221.6 308.6 222.8 308.4 C 226 307.8 228.5 306.5 232.1 307.3 C 238.2 308.7 246.2 312.3 251 316.2 C 253.1 317.8 258.6 321.7 258.6 324.6 C 258.5 324.1 259 325.5 259.2 325.9 C 259.8 326.6 260.5 327.5 260.9 328.3 C 262.4 330.6 265.3 332.9 267.6 334.4 C 274.9 339 285.3 340.5 293.7 339 C 310.2 336.3 317.2 333 333.6 330.3 C 332.4 334.1 341.7 339.2 344 334.6 C 346.6 329.4 350.9 319.4 354.6 315.5 Z"/>
  <path style="fill: none; stroke: rgb(0, 0, 0); stroke-width: 8px;" d="M 338.8 290 C 350.9 284.9 353.3 270.3 357.4 259.8 C 359.6 253.8 360.8 247.4 359.2 241.2 C 358 236.5 359 229.3 361.8 225.4 C 363 223.9 363.6 221.6 365.6 221.6"/>
  <path style="stroke: rgb(0, 0, 0); fill: rgb(223, 196, 46);" d="M 245.7 316.6 C 245.7 315.1 248.6 315.9 249.4 315.5 C 249.8 315.3 250.8 315.8 250.7 315.3 C 250.6 315.2 250.3 314.8 250.5 314.8 C 250.5 315.6 250.9 313.9 250.9 313.3 C 250.9 312.1 251.3 311.1 251 309.7 C 250.2 306.6 245.7 302.4 243.7 300.3 C 237.3 293.2 227.5 290.4 222.7 281.6 C 221.7 279.8 219.7 278.6 219.3 276.5 C 219.7 276.8 218.5 275.9 218.2 275.5 C 217.7 275 216.7 273.5 216 273.3 C 214.6 272.8 214 271 213.1 270.1 C 212.3 269.3 210.2 267.8 209.1 266.9 C 202.6 262 191.6 262.9 187.9 255.4 C 187.6 254.7 186.4 254.4 186.1 253.8 C 186.6 253.3 187.6 253.1 188.1 252.6 C 189.4 251.4 189.7 247.8 189.7 246.6 C 193.4 248.3 197.6 249.4 201.4 250.3 C 205.1 251.3 207.3 211.7 211 212.4 C 212.8 212.7 216.4 210 218.2 210.6 C 220.3 211.4 218.2 228.3 218.7 230.4 C 220.2 237.1 230.1 258.3 231.3 262.5 C 233.5 270.2 247.6 275.8 255.1 277 C 256.9 277.4 256.3 277.6 258 278.1 C 258.2 278.2 261.8 279 261.8 278.9 C 261.7 281.1 267.4 280.6 268.6 282.2 C 269 282.8 271 283.8 271.8 283.6 C 274.9 282.8 275 283.3 278.3 282.5 C 280.8 281.9 283.3 281.6 285.8 281.4 C 289.5 281 293.1 280 296.7 279.6 C 302.1 278.9 307.5 279.1 312.9 279.9 C 318.6 280.7 324.3 282.7 329.9 283.2 C 331.7 283.3 334.8 284.5 336.5 285.1 C 336.7 285.2 336.1 284.9 335.9 284.9 C 337.8 285.9 341.3 288.5 343.4 288.9 C 347 289.5 350.5 290.1 354 291.1 C 357.2 292.1 360.6 293 363.7 294.2 C 367.3 295.5 368.7 296.5 370.9 298.7 C 371.4 299.2 370.5 300.7 370.5 301.5 C 370.5 305 369.9 308.7 366.3 310.5 C 364.5 311.4 360.9 310.1 358.8 309.8 C 354.5 309.3 348.4 309.8 345 313 C 344 312.9 343 314.9 342.3 315.6 C 339.7 318.2 336.6 320.1 333.7 322.4 C 331.9 323.8 329.1 324 327 325 C 323.6 326.5 320.6 329.1 317.2 330.6 C 312.7 332.6 308.9 333.1 304 333.1 C 302.5 332.4 299.3 334.1 297.7 334.4 C 293.4 335.1 288.1 335.3 283.7 335 C 281.1 334.9 278.5 334.7 275.9 334 C 274.4 333.5 273.3 331.7 271.9 330.9 C 269.9 329.8 267.7 329.5 265.6 328.6 C 264.4 328.2 263.9 326.9 262.7 326.5 C 259.9 325.6 259.8 327.2 257.5 327.1 C 257.3 327.1 257.8 326.5 257.9 326.6 C 258.2 326.9 257.6 327.4 257.4 327.7 C 257.1 328 257.6 329.6 256.8 329.5 C 256.5 329.5 256.7 328.1 256.6 327.9 C 256.1 326.9 255.8 325.2 254.7 324.4 C 252.6 323.1 250.3 321.8 248.5 320.5 C 247.8 320 248.1 319 247.5 318.5 C 247 318 245.7 317.4 245.7 316.6 Z"/>
  <path style="stroke: rgb(0, 0, 0); fill: rgb(163, 233, 183);" d="M 394.6 191.8 C 392.5 192.9 390.5 193.6 388.5 194.7 C 384.4 196.8 387.9 203.5 390.4 204.8 C 391.5 205.4 394.3 202 395 201.4 C 398.9 198.4 402.8 202.3 405.3 197 C 406.8 193.9 400.1 187.9 397.9 187.2 C 393.3 185.6 395.1 192.1 393.8 192.6 C 393.7 192.7 392.3 192.6 392.3 192.7"/>
  <path style="stroke: rgb(0, 0, 0); fill: rgb(163, 233, 183);" d="M 401.4 165.8 C 405.6 173.5 410.1 180.6 418.9 173.7 C 421.3 171.9 421.1 168 423.6 166 C 432.2 159.2 444.1 149.5 436.2 137.3 C 434.4 134.6 430.4 134.5 428.5 137.2 C 424.2 143 417.8 145.1 413.5 151 C 407.7 158.8 402.2 149.9 395.7 156.6 C 394.8 157.4 394.5 158.8 394.6 159.9 C 394.9 160.9 396.1 161.7 396.8 162.4 C 398.3 164.1 401.4 170 404 170"/>
  <path style="stroke: rgb(0, 0, 0); fill: rgb(163, 233, 183);" d="M 417.5 413.7 C 417.5 415.4 416.8 418.8 417.5 420.5 C 418.2 422.2 420.2 424.2 419.8 426.2 C 419.2 430.9 417.6 434.3 416.2 438.8 C 415.8 439.6 414.6 442.8 415.3 443.7 C 415.8 444.2 416.8 444.2 417.5 444.4 C 417.5 444.4 417.9 446.6 418.2 446.9 C 419.6 448.2 419.8 450.6 421.5 452 C 423.8 454.1 427.8 454 431.2 454.3 C 434 454.6 436.6 455.4 439.4 455.7 C 445.5 456.2 452.3 454.5 457.6 452 C 457.9 451.9 457.7 447.9 457.7 447.2 C 457.7 444.5 458.7 443 460.8 440.9 C 462.4 439.3 464.3 437.6 466.2 436.3 C 469.3 434.1 471.7 434.5 472.4 430.2 C 473.1 424.1 470.6 419.1 465.6 415.2 C 463.4 413.7 460.7 413.3 458.8 411.6 C 455 408.6 453.9 403.9 451.1 400.2 C 451 400 447.8 399.6 447.6 399.6 C 444.5 398.9 441 398.7 437.9 397.7 C 433.3 396.2 426 386.8 425.6 386.7 C 423.8 386.3 423.6 384.8 421.6 383.8 C 421.4 383 416.8 380 415 378.4 C 413.4 376.9 410.6 375.8 409.6 373.5 C 408 370 403 368.4 401.3 364.8 C 399 360.3 400 354.9 396.8 350.7 C 394.6 347.7 393.3 344 390.9 340.9 C 389 338.4 387.5 335.6 385.1 333.4 C 384.1 329.2 376.1 321.5 374 321.7 C 366.8 322.5 367.7 332.4 371.1 340.9 C 374.1 348.4 375.1 363.2 376.6 366.4 C 380.4 374.6 374.2 380 383.7 386.7 C 393.1 391.8 411.1 396.6 414.4 407.7 C 415 409.8 416.9 411.6 417.5 413.7 Z"/>
  <path style="stroke: rgb(0, 0, 0); fill: rgb(163, 233, 183);" d="M 194.7 312.5 C 199.9 318.7 205.7 323.8 211.5 329.5 C 213.4 331.3 217.3 334.3 216.5 337.3 C 215.2 342.2 208.7 344.5 205.2 347.1 C 195.4 354.2 187.9 364 178.2 371 C 176.2 372.5 166.1 376 164.1 374 C 163.1 373.1 162 371.7 160.9 370.6 C 152.8 362.7 165.8 359.6 167.8 351.3 C 169.2 345.2 163.8 338.7 165.2 333.3 C 167 326.2 173.5 323 177.8 317.3 C 179.1 315.5 182.1 311.8 184.2 311 C 188.3 309.7 190.8 312.7 194.7 312.7"/>
  <path style="stroke: rgb(0, 0, 0); fill: rgb(164, 233, 183);" d="M 137.9 387.8 C 131.8 392.3 124.3 390.7 117.4 392.3 C 115 392.9 109.1 392.4 107.2 394.1 C 104.1 397.1 100.5 400.3 98.5 404.2 C 95.3 410.4 93.6 413.6 98.1 420.1 C 100.7 423.9 108.6 418.4 111.2 417.1 C 114.7 415.3 121.7 416.8 125.5 417.7 C 128.8 418.4 132 415.7 134.6 414.3 C 136.1 413.5 138.9 411.3 139.6 409.6 C 141.3 405.3 138 401.4 139 397.1 C 139.9 393.9 141.8 390.9 140.9 387.4 C 140.1 384.2 134.3 386.9 134.3 389.5"/>
  <path style="stroke: rgb(0, 0, 0); fill: rgb(164, 233, 183);" d="M 74.6 427.6 C 73.4 432.6 77.7 435.9 81.1 438.3 C 82.5 439.3 83.3 441.2 84.9 442.3 C 86.4 443.5 89.4 444.6 88.6 447.2 C 87.8 450.5 80.1 451.5 77.8 452.7 C 73.5 455.1 70.6 459.8 66.3 462 C 65 462.6 63.1 464.1 61.4 463.6 C 56.5 462.5 59.2 457.1 57.9 454.3 C 56.9 452.5 54.5 453.5 53.2 452 C 51.7 450.1 48.3 448.1 46.9 445.9 C 46.2 444.9 46.1 443 47.1 442.3 C 49.2 441 53.4 443.1 55.3 443.5 C 56.9 443.8 58.3 445.3 59.9 445.6 C 62.6 446.3 68 441.7 70.5 440.7 C 71.7 440.1 71 432.4 70.9 431.9 C 70.6 430.8 74 427.4 74.5 427.7"/>
  <path style="stroke: rgb(0, 0, 0); fill: rgb(164, 233, 183);" d="M 39.9 451.8 C 35.4 450.9 31.3 452.1 27.5 454.9 C 25 456.8 23.8 461.3 23 464.4 C 22.5 466.5 20.4 468.1 19.8 470.3 C 18.2 476.7 5.5 483.3 13.1 491 C 14 491.9 15 493.1 16 493.9 C 17.6 495 19.3 496.2 21.2 496.7 C 26.6 498.1 33.8 490.7 37.1 487.3 C 40.6 483.8 46.4 483.6 48.8 478.9 C 50.9 475.1 51.9 470.6 52.4 466.3 C 52.5 465.3 53.3 463.6 53.1 462.6 C 51.5 456.2 42.2 451.1 36.5 451.1"/>
  <path style="stroke: rgb(0, 0, 0); fill: rgb(163, 233, 183);" d="M 129.1 456.8 C 124.2 456.8 122.9 461 121.1 464.3 C 119.5 467.2 118 469.7 116.3 472.6 C 115.8 473.5 114.6 474.7 114.8 475.8 C 115.3 477.3 116.7 478.5 118 479.6 C 118.6 480 119 480.9 119.8 481.2 C 126.8 484.7 132.5 477.1 137.8 473.7 C 139.1 473 141.5 469.2 142.8 468.6 C 143.5 468.2 150 469.4 150.5 469.9 C 151.9 471.2 153.2 475.8 155.4 476.4 C 161.7 478.4 162.5 478.6 169.5 476.5 C 174.8 474.9 180.2 472.5 181.4 466.8 C 181.8 465.3 181.3 463.5 181 462.1 C 179.7 455 175.8 452.6 167.9 453.3 C 163.4 453.6 158.9 453.2 154.2 453.6 C 151.1 453.8 148.2 455.5 145 455.7 C 141.3 456.1 138.5 455.4 135 454.5 C 133.4 454.2 132.3 455.6 131.1 456.3 C 128.8 457.5 123.8 456.3 123.8 459.4"/>
  <path style="stroke: rgb(0, 0, 0); fill: rgb(164, 233, 183);" d="M 209.3 452.6 C 210.6 455.3 213.9 456.5 216.5 457.6 C 223.6 460.8 236.1 460.5 243.7 458 C 246.1 457 248.4 455.5 250.8 454.5 C 252 454.3 253.2 454 254.4 453.7 C 257.8 453 261.7 451.8 263.4 449.2 C 263.9 448.4 264.9 447.6 264.7 446.7 C 263.1 441.5 253.4 441.2 248.9 440.4 C 245.8 439.8 242.8 438.5 239.5 438.8 C 237.1 439 235.3 440.2 233.1 440.8 C 228.1 442.4 222.9 443.4 218.5 445.7 C 216.8 446.6 215.9 448.2 214.1 448.8 C 212.9 449.2 210 449.4 209.1 450.5 C 206.6 453.7 209.9 456.9 214.4 456.9"/>
  <path style="stroke: rgb(0, 0, 0); fill: rgb(163, 233, 183);" d="M 317.9 422.7 C 313.9 424.2 311 425.3 308.9 428.8 C 307.8 430.4 306.1 430.7 305.3 432.7 C 303.8 437.4 309.4 445.1 315.3 444.2 C 316.2 444 317 442.9 317.9 442.6 C 319.6 441.8 321.6 440.9 323.6 440.5 C 326.5 439.8 330.4 443.2 333.2 441.9 C 334.1 441.4 335.5 440.6 336.4 440 C 340.4 437.3 339.6 432.1 338.9 428.5 C 338.6 427.4 338.5 425.8 337.4 425.1 C 334.9 423.3 330.8 427.5 328.4 426.8 C 325.5 425.9 322.5 425.5 319.6 424.8 C 318.4 424.6 316.7 422.8 315.7 422.8"/>
  <path style="stroke: rgb(0, 0, 0); fill: rgb(163, 233, 183);" d="M 377 436.3 C 377 436.1 376.4 433.9 375.8 434.6 C 374.2 436.1 375.6 440.8 377 442.3 C 377.9 443.3 379.5 443.3 380.9 443.3 C 381.4 443.3 383.6 443.6 384 443 C 385.5 440.5 383.9 432.1 379.8 433.4 C 378.4 433.9 377.1 436.8 376.2 436.8"/>
  <path d="M 279.4 -283.1 Q 287.1 -286.3 294.8 -283.1 L 317.9 -273.6 Q 325.6 -270.5 328.8 -262.8 L 338.3 -239.9 Q 341.5 -232.3 338.3 -224.7 L 328.8 -201.8 Q 325.6 -194.1 317.9 -191 L 294.8 -181.5 Q 287.1 -178.3 279.4 -181.5 L 256.3 -191 Q 248.6 -194.1 245.4 -201.8 L 235.9 -224.7 Q 232.7 -232.3 235.9 -239.9 L 245.4 -262.8 Q 248.6 -270.5 256.3 -273.6 Z" style="stroke: rgb(0, 0, 0); fill: rgb(245, 247, 244);" transform="matrix(0.932032, 0.362376, 0.369875, -0.929116, 117.932587, -86.994796)" bx:shape="n-gon 287.1 -232.3 54.4 54 8 0.2 1@7bfdcc0b"/>
  <path style="fill: rgb(216, 216, 216); stroke: rgb(0, 0, 0);" d="M 285.1 271.6 L 280.1 281.3 L 285.1 271.6 Z"/>
  <path style="fill: rgb(216, 216, 216); stroke: rgb(0, 0, 0);" d="M 316.4 271.2 L 321.6 280.6 L 316.4 271.2 Z"/>
  <path style="fill: rgb(216, 216, 216); stroke: rgb(0, 0, 0);" d="M 282.8 277.5 L 319.9 277.5 L 282.3 277.5 L 282.8 277.5 Z"/>
  <path style="fill: rgb(216, 216, 216); stroke: rgb(0, 0, 0);" d="M 284 274.6 L 318.6 274.6 L 284 274.6 Z"/>
  <path style="fill: rgb(216, 216, 216); stroke: rgb(0, 0, 0);" d="M 281.4 279.8 L 321 279.8 L 280.7 279.8"/>
  <ellipse style="stroke: rgb(0, 0, 0); fill: rgb(248, 250, 244);" cx="310" cy="177" rx="2.4" ry="2.4"/>
  <ellipse style="stroke: rgb(0, 0, 0); fill: rgb(248, 250, 244);" cx="286.9" cy="161.6" rx="2.5" ry="2.5"/>
  <ellipse style="stroke: rgb(0, 0, 0); fill: rgb(248, 250, 244);" cx="286.7" cy="176.5" rx="2.4" ry="2.4"/>
  <rect x="286.9" y="150.9" width="23.1" height="47.2" rx="6" ry="6" style="stroke: rgb(0, 0, 0); fill: rgb(247, 249, 244);"/>
  <path style="stroke: rgb(0, 0, 0); fill: rgb(247, 249, 244); stroke-width: 0.5px;" d="M 293.6 152.4 H 303.5 A 5 5 0 0 1 308.5 157.4 V 194.9 A 6 6 0 0 1 302.5 200.9 H 294.6 A 6 6 0 0 1 288.6 194.9 V 157.4 A 5 5 0 0 1 293.6 152.4 Z" bx:shape="rect 288.6 152.4 19.9 48.5 5 5 6 6 1@d167b493"/>
  <path d="M 281 -272.6 Q 287.1 -275.1 293.2 -272.6 L 311.5 -265.1 Q 317.6 -262.6 320.1 -256.5 L 327.7 -238.4 Q 330.2 -232.3 327.7 -226.2 L 320.1 -208.1 Q 317.6 -202 311.5 -199.5 L 293.2 -192 Q 287.1 -189.5 281 -192 L 262.7 -199.5 Q 256.6 -202 254.1 -208.1 L 246.5 -226.2 Q 244 -232.3 246.5 -238.4 L 254.1 -256.5 Q 256.6 -262.6 262.7 -265.1 Z" style="stroke: rgb(0, 0, 0); fill: rgb(245, 247, 244);" transform="matrix(0.932032, 0.362376, 0.369875, -0.929116, 117.834961, -86.979439)" bx:shape="n-gon 287.1 -232.3 43.1 42.8 8 0.2 1@097a641a"/>
  <path style="stroke: rgb(0, 0, 0); fill: rgb(223, 197, 66);" d="M 207.3 320.7 C 204.1 323.7 200.2 324.7 196.9 328.1 C 194.1 330.8 191.1 333.7 188.8 336.8 C 186.6 339.8 185.5 343.7 183.2 346.7 C 181.4 348.9 175.2 353.2 174.7 353.7 C 172.6 356.4 170.5 359.1 168.4 361.8 C 166.1 364.7 162.5 367.6 159.7 370.1 C 159.2 370.6 155.8 372.3 155.9 372.4 C 156.6 373.2 159.2 377.1 160.7 376.7 C 163.1 376.1 165.6 373.3 167.4 371.9 C 171.9 368.5 184.3 357.4 186.8 354.9 C 187 354.6 192.8 351.9 193.2 351.3 C 194.8 348 196.4 343 199.5 340.8 C 202 339 205.5 334.2 208.6 333.4 C 209.5 333.2 217.1 332.6 217.1 331.7 C 217 328.9 213.4 327.6 210.3 323.9 C 209.3 323.2 207.9 320.7 206.4 321.4 C 205.6 321.8 204.7 323.3 203.9 324.1"/>
  <path style="stroke: rgb(0, 0, 0); fill: url(#color-0);" d="M 142.8 395.2 C 142.8 397 144.7 401.5 143.5 402.7 C 140.6 405.5 137.9 406.5 133.9 407.5 C 132.9 407.8 132.2 409 131.3 409.3 C 127 411 122.7 412.5 118.5 414.2 C 115.5 415.3 111.6 414.8 108.6 415.6 C 105.3 416.4 101.3 419.7 98.4 421.1 C 97.8 421.4 95.9 423 95.7 423 C 95.6 423.7 95.2 421.5 95 421.4 C 94.6 421 92.8 417.8 93.8 416.8 C 95 415.5 96.7 413.6 98.9 412.8 C 103.5 411.2 108.9 412.6 113.7 410.2 C 116.8 408.6 118.6 405.5 121.6 403.8 C 125.9 401.3 130.9 400.7 135.4 398.5 C 138.2 397.1 139.9 395.2 142.8 395.2 Z"/>
  <path style="stroke: rgb(0, 0, 0); fill: url(#color-0);" d="M 47.1 448.6 C 53.5 451.5 59.9 449.2 66.2 447.1 C 68.8 446.2 70.8 443.4 73 442.3 C 75.1 441.2 77.2 438.8 78.6 437.4 C 79.2 436.7 79.1 435.1 80 435.1 C 80.6 435.1 84.1 438.4 83.7 438.8 C 82 440.4 81.5 442.5 80.4 444.6 C 80.1 445.3 80.6 448.9 81 449.3 C 81.5 449.9 83.1 450.3 82.6 450.8 C 81.5 451.9 78 453.5 76.8 452.2 C 76.2 451.7 74.2 447.4 73.9 447.6 C 72.4 448.3 70.9 448.6 69.7 449.8 C 68.7 450.8 67.9 452.3 66.5 452.8 C 64.7 453.4 62.3 454.2 60.5 455 C 59.2 455.7 57.2 454.1 55.9 454.1 C 54.2 454.2 51.2 453.2 50.1 452.1 C 49.6 451.6 48.1 448.5 47.1 448.6 Z"/>
  <ellipse style="fill: rgb(216, 216, 216); stroke: rgb(0, 0, 0);" cx="20.9" cy="487.7" rx="10.3" ry="10.3"/>
  <path d="M 52.5 508.7 H 55.2 L 55.2 508.7 L 56.2 509.2 L 55.2 509.7 L 55.2 509.7 H 52.5 V 508.7 Z" style="fill: rgb(216, 216, 216); stroke: rgb(0, 0, 0);" transform="matrix(0.101061, 0.99488, -0.99488, 0.101061, 522.128723, 374.602142)" bx:shape="arrow 52.5 508.7 3.7 1 1 1 0 1@882aa19d"/>
  <path d="M 58.1 510 H 61.3 L 61.3 510 L 62.3 510.5 L 61.3 511 L 61.3 511 H 58.1 V 510 Z" style="fill: rgb(216, 216, 216); stroke: rgb(0, 0, 0);" transform="matrix(-0.664561, 0.747234, -0.747234, -0.664561, 446.4198, 775.476746)" bx:shape="arrow 58.1 510 4.2 1 1 1 0 1@a8f21d86"/>
  <path d="M 60.6 512.9 H 64 L 64 512.9 L 65 513.4 L 64 513.9 L 64 513.9 H 60.6 V 512.9 Z" style="fill: rgb(216, 216, 216); stroke: rgb(0, 0, 0);" transform="matrix(-0.889363, 0.457202, -0.457202, -0.889363, 317.466644, 911.404419)" bx:shape="arrow 60.6 512.9 4.4 1 1 1 0 1@6d9a2782"/>
  <path d="M 61.7 517.8 H 65.9 L 65.9 517.8 L 66.9 518.3 L 65.9 518.8 L 65.9 518.8 H 61.7 V 517.8 Z" style="fill: rgb(216, 216, 216); stroke: rgb(0, 0, 0);" transform="matrix(-0.961286, -0.275554, 0.275554, -0.961286, -53.624531, 1002.671509)" bx:shape="arrow 61.7 517.8 5.2 1 1 1 0 1@2221fa1b"/>
  <path d="M 59.9 524.4 H 66.1 L 66.1 524.4 L 67.1 524.9 L 66.1 525.4 L 66.1 525.4 H 59.9 V 524.4 Z" style="fill: rgb(216, 216, 216); stroke: rgb(0, 0, 0);" transform="matrix(-0.608349, -0.79367, 0.79367, -0.608349, -351.984314, 860.923279)" bx:shape="arrow 59.9 524.4 7.2 1 1 1 0 1@f7eaedba"/>
  <path d="M 46.9 510.4 H 50.8 L 50.8 510.4 L 51.8 510.9 L 50.8 511.4 L 50.8 511.4 H 46.9 V 510.4 Z" style="fill: rgb(216, 216, 216); stroke: rgb(0, 0, 0);" transform="matrix(0.842182, 0.539193, -0.539193, 0.842182, 251.149994, 24.415682)" bx:shape="arrow 46.9 510.4 4.9 1 1 1 0 1@b7e1774b"/>
  <path d="M 43.6 514.2 H 47.4 L 47.4 514.2 L 48.4 514.7 L 47.4 515.2 L 47.4 515.2 H 43.6 V 514.2 Z" style="fill: rgb(216, 216, 216); stroke: rgb(0, 0, 0);" transform="matrix(0.996238, 0.086654, -0.086654, 0.996238, 13.049437, -32.74823)" bx:shape="arrow 43.6 514.2 4.8 1 1 1 0 1@7e2de0ba"/>
  <path style="fill: rgb(216, 216, 216); stroke: rgb(0, 0, 0);" d="M 14.5 480.1 C 14.5 480.1 28.2 495.3 28.3 495.7 C 28.4 496.1 14.6 502.2 11.2 490.7 C 9.2 483.9 13.9 479.8 14.5 480.1 Z"/>
  <ellipse style="stroke: rgb(0, 0, 0);" cx="33.9" cy="486.4" rx="0.8" ry="0.8"/>
  <ellipse style="stroke: rgb(0, 0, 0);" cx="32.3" cy="481" rx="0.5" ry="0.5"/>
  <ellipse style="stroke: rgb(0, 0, 0);" cx="35.8" cy="482.5" rx="0.6" ry="0.6"/>
  <ellipse style="stroke: rgb(0, 0, 0);" cx="37.1" cy="477.3" rx="0.4" ry="0.4"/>
  <ellipse style="stroke: rgb(0, 0, 0);" cx="37.7" cy="469.7" rx="0.6" ry="0.6"/>
  <ellipse style="stroke: rgb(0, 0, 0);" cx="35" cy="473.9" rx="0.3" ry="0.3"/>
  <ellipse style="stroke: rgb(0, 0, 0);" cx="40.2" cy="462.1" rx="0.6" ry="0.6"/>
  <ellipse style="stroke: rgb(0, 0, 0);" cx="39.7" cy="465" rx="0.3" ry="0.3"/>
  <ellipse style="stroke: rgb(0, 0, 0);" cx="41.3" cy="454.9" rx="0.7" ry="0.7"/>
  <ellipse style="stroke: rgb(0, 0, 0);" cx="41.3" cy="457.5" rx="0.2" ry="0.2"/>
  <ellipse style="stroke: rgb(0, 0, 0);" cx="43.6" cy="456.2" rx="0.5" ry="0.5"/>
  <path d="M 29.1 467 C 29 467 28.9 467 28.9 467 C 28.9 468.3 28.1 469.3 27.2 469.3 C 26.1 469.3 25.3 468.2 25.3 466.9 C 25.3 466 25.7 465.2 26.2 464.8 C 25.9 464.5 25.7 464 25.7 463.3 C 25.7 462.7 25.9 462 26.2 461.8 C 26.1 461.3 26 460.7 26 460.1 C 26 458 27.1 456.4 28.4 456.4 C 28.6 456.4 28.9 456.4 29.1 456.5 C 29.4 456.1 29.9 455.7 30.4 455.7 C 30.7 455.1 31.1 454.9 31.6 454.9 C 32.6 454.9 33.4 456.1 33.4 457.6 C 33.4 458.3 33.2 458.8 33 459.3 C 33.1 459.5 33.2 459.7 33.2 460.1 C 33.2 460.8 32.9 461.6 32.5 461.8 C 32.5 462.3 32.7 462.8 32.7 463.3 C 32.7 464.5 32.2 465.4 31.5 465.4 C 31.4 465.4 31.2 465.4 31.1 465.3 C 30.7 466.3 30 467 29.1 467 Z" style="stroke: rgb(0, 0, 0); fill: rgb(221, 137, 227);"/>
  <path d="M 25.9 475.1 C 25.8 475.1 25.8 475.1 25.8 475.1 C 25.8 476.4 25.1 477.4 24.3 477.4 C 23.3 477.4 22.6 476.3 22.6 475 C 22.6 474 23 473.2 23.4 472.8 C 23.1 472.5 23 472 23 471.3 C 23 470.7 23.1 470 23.4 469.8 C 23.3 469.3 23.2 468.7 23.2 468.1 C 23.2 465.9 24.2 464.3 25.3 464.3 C 25.5 464.3 25.8 464.3 25.9 464.4 C 26.2 464 26.6 463.6 27.1 463.6 C 27.3 463 27.7 462.8 28.1 462.8 C 29 462.8 29.7 464 29.7 465.5 C 29.7 466.2 29.5 466.8 29.4 467.3 C 29.4 467.5 29.5 467.7 29.5 468.1 C 29.5 468.8 29.3 469.6 28.9 469.8 C 28.9 470.3 29.1 470.8 29.1 471.3 C 29.1 472.5 28.7 473.4 28 473.4 C 28 473.4 27.8 473.4 27.7 473.3 C 27.3 474.4 26.7 475.1 25.9 475.1 Z" style="stroke: rgb(0, 0, 0); fill: rgb(221, 137, 227);" transform="matrix(0.868234, 0.496156, -0.496156, 0.868234, 237.319353, 49.513596)" bx:origin="0.4 0.6"/>
  <ellipse style="fill: rgb(31, 199, 225); stroke: rgb(165, 165, 165);" cx="77.6" cy="501.4" rx="3.7" ry="8.3" transform="matrix(0.964779, 0.263062, -0.263062, 0.964779, 102.704464, -33.280177)"/>
  <rect x="290.6" y="323.1" width="18" height="14.2" rx="5" ry="5" style="fill: rgb(216, 216, 216); stroke: rgb(0, 0, 0);"/>
  <path style="fill: rgb(216, 216, 216); stroke: rgb(0, 0, 0);" d="M 297 330.6 C 296.9 330.5 296.8 330.2 296.8 330 C 296.7 329.8 296.5 329.7 296.5 329.4 C 296.5 327.5 298.4 328.4 298.4 329.6"/>
  <path style="fill: rgb(216, 216, 216); stroke: rgb(0, 0, 0);" d="M 300.1 329.3 C 301 327.4 301.7 327.3 302.2 329 C 302.4 329.5 301.7 329.9 301.7 330.3"/>
  <path style="fill: rgb(216, 216, 216); stroke: rgb(0, 0, 0);" d="M 302.1 331.9 L 308 330.3 L 302.1 331.9 Z"/>
  <path style="fill: rgb(216, 216, 216); stroke: rgb(0, 0, 0);" d="M 296.6 332.3 L 292.1 331.1"/>
  <path style="fill: rgb(216, 216, 216); stroke: rgb(0, 0, 0);" transform="matrix(0.707107, -0.707107, 0.707107, 0.707107, -34.518066, 307.790741)" d="M 217.9 250.7 H 219.3 A 2 2 0 0 1 221.3 252.7 V 254.1 A 2 2 0 0 1 219.3 256.1 H 215.9 V 252.7 A 2 2 0 0 1 217.9 250.7 Z" bx:shape="rect 215.9 250.7 5.4 5.4 2 2 2 0 1@55647052"/>
  <path style="fill: none; stroke: rgb(142, 107, 3); stroke-linecap: round;" d="M 311.3 335.3 L 302.9 320.4"/>
  <path style="fill: none; stroke: rgb(142, 107, 3);" d="M 304.5 323.4 C 304.4 324.6 306.7 326.2 307.3 327.4 C 308.1 328.8 306.6 330.2 309.2 330.9 C 310.3 331.1 310 332.9 309.8 333.6 C 309.7 333.8 309.6 334.8 309.9 334.8"/>
  <path style="stroke: rgb(0, 0, 0); stroke-width: 0.25px; fill: none;" d="M 304.1 322.5 C 303.8 323.7 305.4 324.3 306.1 325.3 C 306.5 325.7 305.9 326.4 306.1 327 C 306.5 327.4 307.4 328 307.5 328.5 C 307.9 329.3 307.5 329.8 308.2 330.4 C 308.7 330.9 309.2 330.9 309.6 331.3 C 310 331.7 310.5 332.5 309.9 333 C 309.8 333.3 309.8 333.4 309.8 333.6 C 309.7 333.7 309.7 333.9 309.7 333.9 C 309.7 333.7 309.8 333.5 309.9 333.5 C 310.2 333.6 310.6 334.3 310.8 334.3"/>
  <ellipse style="fill: rgb(255, 255, 255); stroke: rgb(255, 255, 255);" cx="298.7" cy="319" rx="2" ry="2"/>
  <ellipse style="fill: rgb(216, 216, 216); stroke: rgb(255, 255, 255); stroke-linejoin: round; stroke-linecap: square;" cx="294.2" cy="313.4" rx="0.2" ry="0.2"/>
  <ellipse style="fill: rgb(216, 216, 216); stroke: rgb(255, 255, 255); stroke-linejoin: round; stroke-linecap: square;" cx="294.6" cy="318.7" rx="0.5" ry="0.5"/>
  <ellipse style="fill: rgb(216, 216, 216); stroke: rgb(255, 255, 255); stroke-linejoin: round; stroke-linecap: square;" cx="300.1" cy="313.5" rx="0.4" ry="0.4"/>
  <ellipse style="fill: rgb(216, 216, 216); stroke: rgb(255, 255, 255); stroke-linejoin: round; stroke-linecap: square;" cx="303.5" cy="316.9" rx="0.4" ry="0.4"/>
  <ellipse style="fill: rgb(216, 216, 216); stroke: rgb(255, 255, 255); stroke-linejoin: round; stroke-linecap: square;" cx="294.3" cy="322.4" rx="0.3" ry="0.3"/>
  <ellipse style="fill: rgb(216, 216, 216); stroke: rgb(255, 255, 255); stroke-linejoin: round; stroke-linecap: square;" cx="306.4" cy="320.1" rx="0.3" ry="0.3"/>
  <ellipse style="fill: rgb(216, 216, 216); stroke: rgb(255, 255, 255); stroke-linejoin: round; stroke-linecap: square;" cx="299.2" cy="322.2" rx="0.2" ry="0.2"/>
  <path style="stroke: rgb(0, 0, 0); fill: url(#color-0);" d="M 118.4 463.6 C 118.2 463.9 116.1 469.3 115.4 469.3 C 115.1 470.5 120.5 469.7 121.7 469.9 C 126.7 470.7 131.1 469.5 135.7 468.7 C 137.6 468.3 139.8 468.5 141.6 467.6 C 142.3 467.2 143.7 467.6 144.6 467.5 C 147.4 467 150.2 466.9 153 466.7 C 160.6 465.9 168.8 466.6 176.3 465.1 C 178.2 464.6 180.2 465.2 182.1 465.7 C 182.4 465.8 184 466.3 184.3 466 C 185.4 464.9 183.5 459.7 183.5 458.9 C 177.9 458 170.6 458.5 165.1 459.6 C 162.8 460.1 159.3 459 156.8 459 C 150.6 459 144.3 459.8 138.2 459.8 C 133.7 459.8 129.3 460.5 124.8 461.3 C 122 461.8 117.7 463.6 118.4 463.6 Z"/>
  <path style="stroke: rgb(0, 0, 0); fill: url(#color-0);" d="M 262.8 441.1 C 262.8 440.5 262.1 442 261.7 442.3 C 260.5 443.1 259.2 443.8 258 444.5 C 254.6 446.6 251 447.2 247.8 449.6 C 243.5 452.8 238.4 455.6 233.5 457.3 C 231.7 457.9 229.5 457.6 227.7 458.2 C 224.4 459.2 220.8 461.1 217.3 461.1 C 218.9 461.5 214 460.4 213.4 460 C 211.3 459 210.4 457.3 207.8 457.3 C 210.7 457 214.1 457.7 216.9 457.1 C 220 456.5 222.9 455.3 226 454.5 C 227.4 454 229.6 454 230.8 453.4 C 233.5 452 235.9 449.4 238.5 448.4 C 240.6 447.6 243.7 447.4 245.5 446.4 C 246 446.1 247.1 444 247.7 443.4 C 249 442 251 441.7 252.7 441.3 C 254.8 440.8 255.8 439.2 258.2 439.2 C 257.8 439.5 261.5 441 262.8 441.1 Z"/>
  <path style="stroke: rgb(0, 0, 0); fill: url(#color-0);" d="M 303.1 431.8 C 312.7 430.9 323.3 430.5 332.5 432.8 C 335.9 433.7 339.4 432.1 342.8 432.1 C 343.3 433.4 344.1 436.8 343.4 438.2 C 343.2 438.6 342 439.2 342 439.5 C 332.3 438.4 321.4 441.6 312.1 439.2 C 310 438.7 306.9 438.6 305 437.7 C 304.8 437.6 303.3 437.8 303.2 437.7 C 302.6 436.4 303.1 433 303.1 431.8 Z"/>
  <path style="stroke: rgb(0, 0, 0); fill: url(#color-0);" d="M 158.8 225.7 C 156.1 224.2 153.4 220.5 150.4 219.6 C 142.9 217.3 137.3 210.9 130.4 206.9 C 119.4 200.5 109.7 191.3 98.8 185 C 92.9 181.6 87.3 181.3 81.3 178.9 C 77.7 177.4 75.4 174 72.4 171.9 C 71.1 171 65.4 171.9 63.9 171.9 C 57.5 171.9 50.2 172.1 44.3 170.2 C 41.9 169.5 41.5 165.4 41.5 163.4 C 41.5 160 42.3 156.3 44.1 153.4 C 46 150.5 49.5 149.7 47.1 145.6 C 43.5 139.4 36 137.1 29.7 134.6 C 27.6 133.8 26.4 131.9 25 130.4 C 24.6 130 23.2 127.7 23.6 128.3 C 24.6 127.8 29.3 127.6 29.3 128.6 C 33.4 129.2 38 134.4 41.6 136.2 C 45.1 138 48.3 142.4 52.6 143.7 C 54.7 144.4 59.9 147.3 60.9 149.3 C 61.6 150.8 61.5 152.6 62.3 154.3 C 63.6 157 67.6 158.7 69.6 160.8 C 72.6 163.7 77.4 164.2 80.8 166.4 C 85.9 169.7 90.8 173.7 95.9 177.4 C 98.1 179.1 103.1 179.2 105.9 180.9 C 112.9 185.4 117.5 193 124.3 197.5 C 126.8 199.1 130.6 200.7 133.3 202.1 C 140.3 205.6 146.3 211.6 152.7 215.7 C 155.1 217.3 157.6 217 160 218.2 C 161.3 218.8 162.1 220.8 163.2 221.8 C 162.7 222.5 158.8 225.6 158.8 225.7 Z"/>
  <path style="fill: rgb(216, 216, 216); stroke: rgb(242, 142, 60);" d="M 66.8 189.7 C 67.3 189.5 55.4 187.6 54.9 187.8"/>
  <path style="fill: rgb(155, 155, 155); stroke: rgb(242, 142, 60);" d="M 73.1 184.7 L 73 179.5"/>
  <path style="fill: rgb(155, 155, 155); stroke: rgb(242, 142, 60);" d="M 69.6 184.7 L 67.1 178.6"/>
  <path style="stroke: rgb(0, 0, 0); fill: url(#color-0);" d="M 21 120.3 C 19.2 119.3 19 117.1 17.8 115.6 C 13.5 109.8 11.6 105.4 11.6 98.5 C 11.6 98 12.1 99.8 12.7 99.8 C 14 99.7 15.1 100.5 15.9 100.5 C 16.1 101.9 17.4 103.2 18.1 104.4 C 19.6 107.5 19.6 111.4 21.4 114.2 C 21.8 114.8 22.5 116.9 23.1 116.9 C 22.8 116.7 22.6 118.6 22.4 118.9 C 22.1 119.5 21 119.6 21 120.3 Z"/>
  <path style="fill: none; stroke-linecap: square; stroke: rgb(0, 0, 0); stroke-width: 8px;" d="M 256.9 138.9 C 259.8 133.5 265.2 126.7 266.7 120.5 C 268.5 113.5 267.8 106.9 268.9 99.7 C 269.7 94.5 270.8 89.3 269.5 84 C 267.4 75.7 259.2 69.3 259.2 60.3"/>
  <path style="fill: none; stroke: url(#color-0); stroke-width: 6px; stroke-linecap: square;" d="M 256.9 138.9 C 259.8 133.5 265.2 126.7 266.7 120.5 C 268.5 113.5 267.8 106.9 268.9 99.7 C 269.7 94.5 270.8 89.3 269.5 84 C 267.4 75.7 259.2 69.3 259.2 60.3"/>
  <path style="stroke-width: 6px; fill: none; stroke: url(#color-0);" d="M 338.8 290 C 350.9 284.9 353.3 270.3 357.4 259.8 C 359.6 253.8 360.8 247.4 359.2 241.2 C 358 236.5 359 229.3 361.8 225.4 C 363 223.9 363.6 221.6 365.6 221.6"/>
  <path style="stroke: rgb(0, 0, 0); fill: rgb(206, 155, 17);" d="M 390.7 343.6 L 420.4 343.6 L 421 332.8 L 391.5 332.8 L 390.7 343.6 Z" transform="matrix(0.859989, -0.510313, 0.510313, 0.859989, -115.764272, 254.462275)"/>
  <path style="stroke: rgb(0, 0, 0); fill: rgb(206, 155, 17);" d="M 397.4 337.5 L 396.8 348.1" transform="matrix(0.859989, -0.510313, 0.510313, 0.859989, -119.336814, 250.64108)"/>
  <path style="stroke: rgb(0, 0, 0); fill: url(#color-0);" d="M 367 320.3 C 369.1 332.8 378.1 348.9 385.8 360.6 C 388.5 364.8 389.1 370.2 392.7 373.7 C 404.5 385.5 422.9 396.9 427.6 412.3 C 429.3 418 431.5 426.2 424.8 429.4 C 421.8 430.9 417.8 430.7 415.7 432.8 C 415.1 433.4 409.3 441.9 411.5 444 C 418 450.5 427.8 447.1 434.4 443.8 C 435.9 443 443.9 442.5 445 443.6 C 445.8 444.4 456.5 446.4 457.1 445.8 C 464.7 438.1 465.8 434.7 460.2 423.5 C 458.6 420.5 449.6 418.6 447.3 416.3 C 441.5 410.5 438.2 401 434.4 394.6 C 432.5 391.5 429.3 389.6 427.9 386.9 C 425.4 381.7 413.6 381.6 409.6 377.6 C 401.6 369.5 398.2 357.2 393.6 347.9 C 389.7 340.1 381.3 331.7 376.5 326.9 C 373.9 324.3 374.2 319.2 371.4 316.4 C 368 313 364 326.7 368.7 326.7"/>
  <path style="stroke: rgb(0, 0, 0); fill: rgb(206, 155, 17);" d="M 401.8 334.9 L 401.2 345.5" transform="matrix(0.859989, -0.510313, 0.510313, 0.859989, -117.393948, 252.522428)"/>
  <path style="stroke: rgb(0, 0, 0); fill: rgb(206, 155, 17);" d="M 406.3 332.4 L 405.7 343" transform="matrix(0.859989, -0.510313, 0.510313, 0.859989, -115.488123, 254.468828)"/>
  <path style="stroke: rgb(0, 0, 0); fill: rgb(206, 155, 17);" d="M 410.9 330.1 L 410.3 340.7" transform="matrix(0.859989, -0.510313, 0.510313, 0.859989, -113.670359, 256.494214)"/>
  <path style="stroke: rgb(0, 0, 0); fill: rgb(206, 155, 17);" d="M 414.8 327.4 L 414.2 338" transform="matrix(0.859989, -0.510313, 0.510313, 0.859989, -111.746463, 258.106415)"/>
  <path style="stroke: rgb(0, 0, 0); fill: rgb(206, 155, 17);" d="M 428 389.5 L 458.5 389.5 L 456.7 378.9 L 426.4 378.9 L 428 389.5 Z" transform="matrix(0.850599, -0.525815, 0.525815, 0.850599, -135.91563, 290.046673)"/>
  <path style="stroke: rgb(0, 0, 0); fill: rgb(206, 155, 17);" d="M 432.5 384 L 434.3 394.4" transform="matrix(0.850599, -0.525815, 0.525815, 0.850599, -139.896772, 286.035054)"/>
  <path style="stroke: rgb(0, 0, 0); fill: rgb(206, 155, 17);" d="M 436.9 381.3 L 438.7 391.6" transform="matrix(0.850599, -0.525815, 0.525815, 0.850599, -137.79342, 287.937789)"/>
  <path style="stroke: rgb(0, 0, 0); fill: rgb(206, 155, 17);" d="M 441.5 378.6 L 443.4 388.9" transform="matrix(0.850599, -0.525815, 0.525815, 0.850599, -135.679018, 289.979444)"/>
  <path style="stroke: rgb(0, 0, 0); fill: rgb(206, 155, 17);" d="M 446.3 376.1 L 448.1 386.4" transform="matrix(0.850599, -0.525815, 0.525815, 0.850599, -133.65482, 292.103573)"/>
  <path style="stroke: rgb(0, 0, 0); fill: rgb(206, 155, 17);" d="M 450.1 373.3 L 451.9 383.6" transform="matrix(0.850599, -0.525815, 0.525815, 0.850599, -131.61481, 293.683342)"/>
  <path style="stroke: rgb(0, 0, 0); fill: rgb(206, 155, 17);" d="M 453.7 373.6 L 484.2 373.6 L 482.4 363 L 452.1 363 L 453.7 373.6 Z" transform="matrix(0.850599, -0.525815, 0.525815, 0.850599, -123.715555, 301.184655)"/>
  <path style="stroke: rgb(0, 0, 0); fill: rgb(206, 155, 17);" d="M 458.2 368.1 L 460 378.5" transform="matrix(0.850599, -0.525815, 0.525815, 0.850599, -127.696713, 297.173041)"/>
  <path style="stroke: rgb(0, 0, 0); fill: rgb(206, 155, 17);" d="M 462.6 365.4 L 464.4 375.7" transform="matrix(0.850599, -0.525815, 0.525815, 0.850599, -125.59336, 299.075776)"/>
  <path style="stroke: rgb(0, 0, 0); fill: rgb(206, 155, 17);" d="M 467.2 362.7 L 469.1 373" transform="matrix(0.850599, -0.525815, 0.525815, 0.850599, -123.478943, 301.117426)"/>
  <path style="stroke: rgb(0, 0, 0); fill: rgb(206, 155, 17);" d="M 472 360.2 L 473.8 370.5" transform="matrix(0.850599, -0.525815, 0.525815, 0.850599, -121.454754, 303.241524)"/>
  <path style="stroke: rgb(0, 0, 0); fill: rgb(206, 155, 17);" d="M 475.8 357.4 L 477.6 367.7" transform="matrix(0.850599, -0.525815, 0.525815, 0.850599, -119.414751, 304.821329)"/>
  <path style="stroke: rgb(0, 0, 0); fill: rgb(206, 155, 17);" d="M 459.5 452.1 L 489.2 452.1 L 489.8 441.3 L 460.3 441.3 L 459.5 452.1 Z" transform="matrix(0.905641, 0.424044, -0.424044, 0.905641, 234.207821, -159.122648)"/>
  <path style="stroke: rgb(0, 0, 0); fill: rgb(206, 155, 17);" d="M 466.2 436.8 L 465.6 447.4" transform="matrix(0.905641, 0.424044, -0.424044, 0.905641, 231.431577, -155.846303)"/>
  <path style="stroke: rgb(0, 0, 0); fill: rgb(206, 155, 17);" d="M 470.8 438.9 L 470.2 449.5" transform="matrix(0.905641, 0.424044, -0.424044, 0.905641, 232.756119, -157.598755)"/>
  <path style="stroke: rgb(0, 0, 0); fill: rgb(206, 155, 17);" d="M 475.4 441.2 L 474.8 451.8" transform="matrix(0.905641, 0.424044, -0.424044, 0.905641, 234.165472, -159.332336)"/>
  <path style="stroke: rgb(0, 0, 0); fill: rgb(206, 155, 17);" d="M 479.9 443.8 L 479.3 454.4" transform="matrix(0.905641, 0.424044, -0.424044, 0.905641, 235.692613, -160.995188)"/>
  <path style="stroke: rgb(0, 0, 0); fill: rgb(206, 155, 17);" d="M 484.4 445.5 L 483.8 456.1" transform="matrix(0.905641, 0.424044, -0.424044, 0.905641, 236.838102, -162.742992)"/>
  <ellipse style="stroke: rgb(0, 0, 0); fill: rgb(210, 37, 208); stroke-width: 0px;" cx="282.1" cy="109.9" rx="3.6" ry="3.3"/>
  <ellipse style="fill: rgb(210, 37, 208); stroke: rgb(0, 0, 0); stroke-width: 0px;" cx="281" cy="116.5" rx="2.6" ry="5"/>
  <ellipse style="fill: rgb(210, 37, 208); stroke: rgb(0, 0, 0); stroke-width: 0px;" cx="285" cy="115.5" rx="2.5" ry="1.8"/>
  <ellipse style="fill: rgb(210, 37, 208); stroke: rgb(0, 0, 0); stroke-width: 0px;" cx="283.9" cy="123.4" rx="2.4" ry="4.3"/>
  <ellipse style="fill: rgb(210, 37, 208); stroke: rgb(0, 0, 0); stroke-width: 0px;" cx="276.8" cy="121.9" rx="2.9" ry="2.4"/>
  <ellipse style="fill: rgb(210, 37, 208); stroke: rgb(0, 0, 0); stroke-width: 0px;" cx="278.1" cy="118.9" rx="1.8" ry="1.9"/>
  <ellipse style="fill: rgb(210, 37, 208); stroke: rgb(0, 0, 0); stroke-width: 0px;" cx="278.5" cy="113.5" rx="2" ry="2.1"/>
  <ellipse style="fill: rgb(210, 37, 208); stroke: rgb(0, 0, 0); stroke-width: 0px;" cx="279.9" cy="127.1" rx="2.2" ry="4.1"/>
  <ellipse style="fill: rgb(210, 37, 208); stroke: rgb(0, 0, 0); stroke-width: 0px;" cx="280.3" cy="122.9" rx="2" ry="1.9"/>
  <ellipse style="fill: rgb(210, 37, 208); stroke: rgb(0, 0, 0); stroke-width: 0px;" cx="277.9" cy="125.6" rx="1.3" ry="1.8"/>
  <ellipse style="fill: rgb(210, 37, 208); stroke: rgb(0, 0, 0); stroke-width: 0px;" cx="275.5" cy="129" rx="1.7" ry="2.4"/>
  <ellipse style="fill: rgb(210, 37, 208); stroke: rgb(0, 0, 0); stroke-width: 0px;" cx="279.3" cy="127.3" rx="2.4" ry="1.9"/>
  <ellipse style="fill: rgb(210, 37, 208); stroke: rgb(0, 0, 0); stroke-width: 0px;" cx="278.9" cy="130.3" rx="2" ry="1.8"/>
  <ellipse style="fill: rgb(210, 37, 208); stroke: rgb(0, 0, 0); stroke-width: 0px;" cx="284.3" cy="129" rx="5.1" ry="2.2"/>
  <ellipse style="fill: rgb(210, 37, 208); stroke: rgb(0, 0, 0); stroke-width: 0px;" cx="286.7" cy="125.7" rx="2.2" ry="2.5"/>
  <ellipse style="fill: rgb(210, 37, 208); stroke: rgb(0, 0, 0); stroke-width: 0px;" cx="285.2" cy="116" rx="1.6" ry="1.7"/>
  <ellipse style="fill: rgb(210, 37, 208); stroke: rgb(0, 0, 0); stroke-width: 0px;" cx="286.8" cy="120.2" rx="2.2" ry="3.1"/>
  <ellipse style="fill: rgb(210, 37, 208); stroke: rgb(0, 0, 0); stroke-width: 0px;" cx="283.2" cy="120.2" rx="3" ry="3.5"/>
  <ellipse style="fill: rgb(210, 37, 208); stroke: rgb(0, 0, 0); stroke-width: 0px;" cx="281.1" cy="122.6" rx="1.9" ry="3.2"/>
  <ellipse style="fill: rgb(210, 37, 208); stroke: rgb(0, 0, 0); stroke-width: 0px;" cx="277.5" cy="128" rx="1.3" ry="2.2"/>
  <ellipse style="fill: rgb(210, 37, 208); stroke: rgb(0, 0, 0); stroke-width: 0px;" cx="286.1" cy="129.7" rx="3.3" ry="3.7"/>
  <ellipse style="fill: rgb(210, 37, 208); stroke: rgb(0, 0, 0); stroke-width: 0px;" cx="282.1" cy="133.8" rx="3.8" ry="3.1"/>
  <ellipse style="fill: rgb(210, 37, 208); stroke: rgb(0, 0, 0); stroke-width: 0px;" cx="281.9" cy="129.1" rx="1.2" ry="2.1"/>
  <ellipse style="stroke: rgb(0, 0, 0); stroke-width: 0px; fill: rgb(239, 49, 236);" cx="283" cy="113.8" rx="3.5" ry="2.8"/>
  <ellipse style="fill: rgb(210, 37, 208); stroke: rgb(0, 0, 0); stroke-width: 0px;" cx="284.2" cy="123" rx="3.7" ry="4.9"/>
  <ellipse style="fill: rgb(239, 49, 236); stroke: rgb(0, 0, 0); stroke-width: 0px;" cx="278.2" cy="124" rx="3.2" ry="3.2"/>
  <ellipse style="fill: rgb(239, 49, 236); stroke: rgb(0, 0, 0); stroke-width: 0px;" cx="281.9" cy="130.5" rx="1.1" ry="0.9"/>
  <ellipse style="fill: rgb(239, 49, 236); stroke: rgb(0, 0, 0); stroke-width: 0px;" cx="282" cy="121.8" rx="1.1" ry="1.1"/>
  <ellipse style="fill: rgb(239, 49, 236); stroke: rgb(0, 0, 0); stroke-width: 0px;" cx="284.4" cy="127.5" rx="0.9" ry="0.4"/>
  <ellipse style="fill: rgb(239, 49, 236); stroke: rgb(0, 0, 0); stroke-width: 0px;" cx="286.8" cy="122" rx="0.7" ry="0.6"/>
  <ellipse style="stroke: rgb(0, 0, 0); stroke-width: 0px; fill: rgb(236, 49, 239);" cx="287.5" cy="125.2" rx="0.4" ry="0.5"/>
  <ellipse style="stroke: rgb(0, 0, 0); stroke-width: 0px; fill: rgb(177, 31, 68);" cx="301.3" cy="135.9" rx="4.5" ry="4.1"/>
  <ellipse style="fill: rgb(177, 31, 68); stroke: rgb(0, 0, 0); stroke-width: 0px;" cx="295.9" cy="127.1" rx="2.6" ry="3"/>
  <ellipse style="fill: rgb(177, 31, 68); stroke: rgb(0, 0, 0); stroke-width: 0px;" cx="300.8" cy="131.3" rx="4.4" ry="3.3"/>
  <ellipse style="fill: rgb(177, 31, 68); stroke: rgb(0, 0, 0); stroke-width: 0px;" cx="301.6" cy="128.3" rx="1.7" ry="3.1"/>
  <ellipse style="fill: rgb(177, 31, 68); stroke: rgb(0, 0, 0); stroke-width: 0px;" cx="297.6" cy="131.7" rx="0.9" ry="3.2"/>
  <ellipse style="fill: rgb(177, 31, 68); stroke: rgb(0, 0, 0); stroke-width: 0px;" cx="297.9" cy="135.9" rx="6.2" ry="3.1"/>
  <ellipse style="fill: rgb(177, 31, 68); stroke: rgb(0, 0, 0); stroke-width: 0px;" cx="295.7" cy="132.5" rx="1.3" ry="0.9"/>
  <ellipse style="fill: rgb(177, 31, 68); stroke: rgb(0, 0, 0); stroke-width: 0px;" cx="295.2" cy="119.7" rx="2.1" ry="3.9"/>
  <ellipse style="fill: rgb(177, 31, 68); stroke: rgb(0, 0, 0); stroke-width: 0px;" cx="297.7" cy="127" rx="2.4" ry="4.3"/>
  <ellipse style="fill: rgb(177, 31, 68); stroke: rgb(0, 0, 0); stroke-width: 0px;" cx="299.8" cy="124.2" rx="2.5" ry="3.1"/>
  <ellipse style="fill: rgb(177, 31, 68); stroke: rgb(0, 0, 0); stroke-width: 0px;" cx="298.3" cy="121.2" rx="0.9" ry="0.9"/>
  <ellipse style="fill: rgb(177, 31, 68); stroke: rgb(0, 0, 0); stroke-width: 0px;" cx="296.1" cy="122.2" rx="1.3" ry="2.2"/>
  <ellipse style="fill: rgb(177, 31, 68); stroke: rgb(0, 0, 0); stroke-width: 0px;" cx="299.3" cy="123" rx="2.2" ry="2.3"/>
  <ellipse style="fill: rgb(177, 31, 68); stroke: rgb(0, 0, 0); stroke-width: 0px;" cx="300.8" cy="121.5" rx="3.7" ry="2.9"/>
  <ellipse style="fill: rgb(177, 31, 68); stroke: rgb(0, 0, 0); stroke-width: 0px;" cx="297" cy="120" rx="2.2" ry="1.7"/>
  <ellipse style="fill: rgb(177, 31, 68); stroke: rgb(0, 0, 0); stroke-width: 0px;" cx="294.6" cy="120.8" rx="1.4" ry="1.4"/>
  <ellipse style="fill: rgb(177, 31, 68); stroke: rgb(0, 0, 0); stroke-width: 0px;" cx="298.5" cy="129.7" rx="1.6" ry="2.7"/>
  <ellipse style="fill: rgb(233, 114, 144); stroke: rgb(0, 0, 0); stroke-width: 0px;" cx="296" cy="122.1" rx="1.6" ry="1.6"/>
  <ellipse style="fill: rgb(233, 114, 144); stroke: rgb(0, 0, 0); stroke-width: 0px;" cx="298.2" cy="128.3" rx="1.4" ry="2.3"/>
  <ellipse style="fill: rgb(233, 114, 144); stroke: rgb(0, 0, 0); stroke-width: 0px;" cx="297.8" cy="134.7" rx="1.2" ry="0.9"/>
  <ellipse style="fill: rgb(233, 114, 144); stroke: rgb(0, 0, 0); stroke-width: 0px;" cx="300" cy="134.6" rx="0.8" ry="0.6"/>
  <ellipse style="fill: rgb(233, 114, 144); stroke: rgb(0, 0, 0); stroke-width: 0px;" cx="300.4" cy="125.4" rx="1.2" ry="1.5"/>
  <ellipse style="fill: rgb(233, 114, 144); stroke: rgb(0, 0, 0); stroke-width: 0px;" cx="297.6" cy="117.4" rx="2.4" ry="1.7"/>
  <ellipse style="fill: rgb(233, 114, 144); stroke: rgb(0, 0, 0); stroke-width: 0px;" cx="294.1" cy="123.5" rx="0.7" ry="2.1"/>
  <ellipse style="fill: rgb(233, 114, 144); stroke: rgb(0, 0, 0); stroke-width: 0px;" cx="284.8" cy="126.1" rx="0.7" ry="0.8"/>
  <ellipse style="fill: rgb(9, 107, 51); stroke: rgb(0, 0, 0); stroke-width: 0px;"/>
  <ellipse style="stroke: rgb(0, 0, 0); stroke-width: 0px; fill: rgb(111, 183, 142);" cx="293.1" cy="135" rx="4.5" ry="4.1" transform="matrix(-0.983456, 0.181149, -0.181149, -0.983456, 567.971168, 156.765542)" bx:origin="1.1 -1.2"/>
  <ellipse style="stroke: rgb(0, 0, 0); stroke-width: 0px; fill: rgb(111, 183, 142);" cx="292.6" cy="130.4" rx="4.4" ry="3.3" transform="matrix(-0.983456, 0.181149, -0.181149, -0.983456, 567.971168, 156.765544)" bx:origin="1.2 -0.9"/>
  <ellipse style="stroke: rgb(0, 0, 0); stroke-width: 0px; fill: rgb(111, 183, 142);" cx="293.4" cy="127.4" rx="1.7" ry="3.1" transform="matrix(-0.983456, 0.181149, -0.181149, -0.983456, 567.971168, 156.765546)" bx:origin="2 -0.5"/>
  <ellipse style="stroke: rgb(0, 0, 0); stroke-width: 0px; fill: rgb(111, 183, 142);" cx="289.4" cy="130.8" rx="0.9" ry="3.2" transform="matrix(-0.983456, 0.181149, -0.181149, -0.983456, 567.97117, 156.765544)" bx:origin="5.5 -1"/>
  <ellipse style="stroke: rgb(0, 0, 0); stroke-width: 0px; fill: rgb(111, 183, 142);" cx="287.5" cy="131.6" rx="1.3" ry="0.9" transform="matrix(-0.983456, 0.181149, -0.181149, -0.983456, 567.971171, 156.765543)" bx:origin="4.7 -5.4"/>
  <ellipse style="stroke: rgb(0, 0, 0); stroke-width: 0px; fill: rgb(111, 183, 142);" cx="289.5" cy="126.1" rx="2.4" ry="4.3" transform="matrix(-0.983456, 0.181149, -0.181149, -0.983456, 567.97117, 156.765546)" bx:origin="2.4 -0.1"/>
  <ellipse style="stroke: rgb(0, 0, 0); stroke-width: 0px; fill: rgb(111, 183, 142);" cx="291.6" cy="123.3" rx="2.5" ry="3.1" transform="matrix(-0.983456, 0.181149, -0.181149, -0.983456, 567.97117, 156.765547)" bx:origin="1.9 0.1"/>
  <ellipse style="stroke: rgb(0, 0, 0); stroke-width: 0px; fill: rgb(111, 183, 142);" cx="290.1" cy="120.3" rx="0.9" ry="0.9" transform="matrix(-0.983456, 0.181149, -0.181149, -0.983456, 567.97117, 156.765564)" bx:origin="5.2 0.9"/>
  <ellipse style="stroke: rgb(0, 0, 0); stroke-width: 0px; fill: rgb(111, 183, 142);" cx="287.9" cy="121.3" rx="1.3" ry="2.2" transform="matrix(-0.983456, 0.181149, -0.181149, -0.983456, 567.971171, 156.765548)" bx:origin="4.6 0.4"/>
  <ellipse style="stroke: rgb(0, 0, 0); stroke-width: 0px; fill: rgb(111, 183, 142);" cx="291.1" cy="122.1" rx="2.2" ry="2.3" transform="matrix(-0.983456, 0.181149, -0.181149, -0.983456, 567.97117, 156.765548)" bx:origin="2.2 0.3"/>
  <ellipse style="stroke: rgb(0, 0, 0); stroke-width: 0px; fill: rgb(111, 183, 142);" cx="292.6" cy="120.6" rx="3.7" ry="2.9" transform="matrix(-0.983456, 0.181149, -0.181149, -0.983456, 567.971169, 156.765564)" bx:origin="1.3 0.6"/>
  <ellipse style="stroke: rgb(0, 0, 0); stroke-width: 0px; fill: rgb(111, 183, 142);" cx="288.8" cy="119.1" rx="2.2" ry="1.7" transform="matrix(-0.983456, 0.181149, -0.181149, -0.983456, 567.971171, 156.765564)" bx:origin="2.7 1.1"/>
  <ellipse style="stroke: rgb(0, 0, 0); stroke-width: 0px; fill: rgb(111, 183, 142);" cx="290.3" cy="128.8" rx="1.6" ry="2.7" transform="matrix(-0.983456, 0.181149, -0.181149, -0.983456, 567.97117, 156.765545)" bx:origin="3.1 -0.9"/>
  <ellipse style="stroke: rgb(0, 0, 0); stroke-width: 0px; fill: rgb(111, 183, 142);" cx="287.8" cy="121.2" rx="1.6" ry="1.6" transform="matrix(-0.983456, 0.181149, -0.181149, -0.983456, 567.971171, 156.765548)" bx:origin="3.8 0.5"/>
  <ellipse style="stroke: rgb(0, 0, 0); stroke-width: 0px; fill: rgb(111, 183, 142);" cx="290" cy="127.4" rx="1.4" ry="2.3" transform="matrix(-0.983456, 0.181149, -0.181149, -0.983456, 567.97117, 156.765545)" bx:origin="3.5 -0.9"/>
  <ellipse style="stroke: rgb(0, 0, 0); stroke-width: 0px; fill: rgb(111, 183, 142);" cx="289.6" cy="133.8" rx="1.2" ry="0.9" transform="matrix(-0.983456, 0.181149, -0.181149, -0.983456, 567.97117, 156.765542)" bx:origin="4.2 -6.6"/>
  <ellipse style="stroke: rgb(0, 0, 0); stroke-width: 0px; fill: rgb(111, 183, 142);" cx="291.8" cy="133.7" rx="0.8" ry="0.6" transform="matrix(-0.983456, 0.181149, -0.181149, -0.983456, 567.971169, 156.765543)" bx:origin="4.7 -10"/>
  <ellipse style="stroke: rgb(0, 0, 0); stroke-width: 0px; fill: rgb(111, 183, 142);" cx="292.2" cy="124.5" rx="1.2" ry="1.5" transform="matrix(-0.983456, 0.181149, -0.181149, -0.983456, 567.971169, 156.765547)" bx:origin="3.1 -0.6"/>
  <ellipse style="stroke: rgb(0, 0, 0); stroke-width: 0px; fill: rgb(111, 183, 142);" cx="289.4" cy="116.5" rx="2.4" ry="1.7" transform="matrix(-0.983456, 0.181149, -0.181149, -0.983456, 567.971171, 156.765566)" bx:origin="2.4 1.8"/>
  <ellipse style="stroke: rgb(0, 0, 0); stroke-width: 0px; fill: rgb(111, 183, 142);" cx="297" cy="123" rx="4.5" ry="4.1" transform="matrix(-0.983456, 0.181149, -0.181149, -0.983456, 567.971167, 156.765548)" bx:origin="0.7 0.3"/>
  <ellipse style="stroke: rgb(0, 0, 0); stroke-width: 0px; fill: rgb(111, 183, 142);" cx="291.6" cy="114.2" rx="2.6" ry="3" transform="matrix(-0.983456, 0.181149, -0.181149, -0.983456, 567.97117, 156.765582)" bx:origin="1.8 1.6"/>
  <ellipse style="stroke: rgb(0, 0, 0); stroke-width: 0px; fill: rgb(111, 183, 142);" cx="296.5" cy="118.4" rx="4.4" ry="3.3" transform="matrix(-0.983456, 0.181149, -0.181149, -0.983456, 567.971168, 156.765565)" bx:origin="0.7 0.9"/>
  <ellipse style="stroke: rgb(0, 0, 0); stroke-width: 0px; fill: rgb(111, 183, 142);" cx="297.3" cy="115.4" rx="1.7" ry="3.1" transform="matrix(-0.983456, 0.181149, -0.181149, -0.983456, 567.971168, 156.765582)" bx:origin="0.8 1.4"/>
  <ellipse style="stroke: rgb(0, 0, 0); stroke-width: 0px; fill: rgb(111, 183, 142);" cx="293.3" cy="118.8" rx="0.9" ry="3.2" transform="matrix(-0.983456, 0.181149, -0.181149, -0.983456, 567.971169, 156.765565)" bx:origin="3.4 0.9"/>
  <ellipse style="stroke: rgb(0, 0, 0); stroke-width: 0px; fill: rgb(111, 183, 142);" cx="291.4" cy="119.6" rx="1.3" ry="0.9" transform="matrix(-0.983456, 0.181149, -0.181149, -0.983456, 567.97117, 156.765564)" bx:origin="3.2 1.3"/>
  <ellipse style="stroke: rgb(0, 0, 0); stroke-width: 0px; fill: rgb(111, 183, 142);" cx="290.9" cy="106.8" rx="2.1" ry="3.9" transform="matrix(-0.983456, 0.181149, -0.181149, -0.983456, 567.971171, 156.765585)" bx:origin="2.3 2.3"/>
  <ellipse style="stroke: rgb(0, 0, 0); stroke-width: 0px; fill: rgb(111, 183, 142);" cx="293.4" cy="114.1" rx="2.4" ry="4.3" transform="matrix(-0.983456, 0.181149, -0.181149, -0.983456, 567.971169, 156.765582)" bx:origin="1.6 1.3"/>
  <ellipse style="stroke: rgb(0, 0, 0); stroke-width: 0px; fill: rgb(111, 183, 142);" cx="295.5" cy="111.3" rx="2.5" ry="3.1" transform="matrix(-0.983456, 0.181149, -0.181149, -0.983456, 567.971169, 156.765584)" bx:origin="1.1 2.1"/>
  <ellipse style="stroke: rgb(0, 0, 0); stroke-width: 0px; fill: rgb(111, 183, 142);" cx="294" cy="108.3" rx="0.9" ry="0.9" transform="matrix(-0.983456, 0.181149, -0.181149, -0.983456, 567.97117, 156.765585)" bx:origin="3 7.6"/>
  <ellipse style="stroke: rgb(0, 0, 0); stroke-width: 0px; fill: rgb(111, 183, 142);" cx="291.8" cy="109.3" rx="1.3" ry="2.2" transform="matrix(-0.983456, 0.181149, -0.181149, -0.983456, 567.971171, 156.765584)" bx:origin="3.1 3.2"/>
  <ellipse style="stroke: rgb(0, 0, 0); stroke-width: 0px; fill: rgb(111, 183, 142);" cx="295" cy="110.1" rx="2.2" ry="2.3" transform="matrix(-0.983456, 0.181149, -0.181149, -0.983456, 567.971169, 156.765584)" bx:origin="1.3 2.9"/>
  <ellipse style="stroke: rgb(0, 0, 0); stroke-width: 0px; fill: rgb(111, 183, 142);" cx="296.5" cy="108.6" rx="3.7" ry="2.9" transform="matrix(-0.983456, 0.181149, -0.181149, -0.983456, 567.971169, 156.765585)" bx:origin="0.8 2.6"/>
  <ellipse style="stroke: rgb(0, 0, 0); stroke-width: 0px; fill: rgb(111, 183, 142);" cx="292.7" cy="107.1" rx="2.2" ry="1.7" transform="matrix(-0.983456, 0.181149, -0.181149, -0.983456, 567.97117, 156.765585)" bx:origin="1.8 4.6"/>
  <ellipse style="stroke: rgb(0, 0, 0); stroke-width: 0px; fill: rgb(111, 183, 142);" cx="290.3" cy="107.9" rx="1.4" ry="1.4" transform="matrix(-0.983456, 0.181149, -0.181149, -0.983456, 567.971171, 156.765585)" bx:origin="3.4 5.2"/>
  <ellipse style="stroke: rgb(0, 0, 0); stroke-width: 0px; fill: rgb(111, 183, 142);" cx="294.2" cy="116.8" rx="1.6" ry="2.7" transform="matrix(-0.983456, 0.181149, -0.181149, -0.983456, 567.971169, 156.765566)" bx:origin="1.8 1.3"/>
  <ellipse style="stroke: rgb(0, 0, 0); stroke-width: 0px; fill: rgb(111, 183, 142);" cx="291.7" cy="109.2" rx="1.6" ry="1.6" transform="matrix(-0.983456, 0.181149, -0.181149, -0.983456, 567.971171, 156.765584)" bx:origin="2.6 4.2"/>
  <ellipse style="stroke: rgb(0, 0, 0); stroke-width: 0px; fill: rgb(111, 183, 142);" cx="293.9" cy="115.4" rx="1.4" ry="2.3" transform="matrix(-0.983456, 0.181149, -0.181149, -0.983456, 567.971169, 156.765582)" bx:origin="2.1 1.7"/>
  <ellipse style="stroke: rgb(0, 0, 0); stroke-width: 0px; fill: rgb(111, 183, 142);" cx="293.5" cy="121.8" rx="1.2" ry="0.9" transform="matrix(-0.983456, 0.181149, -0.181149, -0.983456, 567.971169, 156.765548)" bx:origin="2.6 0.1"/>
  <ellipse style="stroke: rgb(0, 0, 0); stroke-width: 0px; fill: rgb(111, 183, 142);" cx="295.7" cy="121.7" rx="0.8" ry="0.6" transform="matrix(-0.983456, 0.181149, -0.181149, -0.983456, 567.971168, 156.765564)" bx:origin="2.2 0"/>
  <ellipse style="stroke: rgb(0, 0, 0); stroke-width: 0px; fill: rgb(111, 183, 142);" cx="296.1" cy="112.5" rx="1.2" ry="1.5" transform="matrix(-0.983456, 0.181149, -0.181149, -0.983456, 567.971168, 156.765583)" bx:origin="1.5 3.4"/>
  <ellipse style="stroke: rgb(0, 0, 0); stroke-width: 0px; fill: rgb(111, 183, 142);" cx="293.3" cy="104.5" rx="2.4" ry="1.7" transform="matrix(-0.983456, 0.181149, -0.181149, -0.983456, 567.97117, 156.765663)" bx:origin="1.6 5.4"/>
  <ellipse style="stroke: rgb(0, 0, 0); stroke-width: 0px; fill: rgb(111, 183, 142);" cx="289.8" cy="110.6" rx="0.7" ry="2.1" transform="matrix(-0.983456, 0.181149, -0.181149, -0.983456, 567.971171, 156.765584)" bx:origin="6.7 3"/>
  <ellipse style="stroke: rgb(0, 0, 0); stroke-width: 0px; fill: rgb(9, 107, 51);" cx="295.7" cy="135.8" rx="4.5" ry="4.1" transform="matrix(-0.983456, 0.181149, -0.181149, -0.983456, 567.971167, 156.765542)" bx:origin="0.8 -1.3"/>
  <ellipse style="stroke: rgb(0, 0, 0); stroke-width: 0px; fill: rgb(9, 107, 51);" cx="290.3" cy="127" rx="2.6" ry="3" transform="matrix(-0.983456, 0.181149, -0.181149, -0.983456, 567.97117, 156.765546)" bx:origin="2.1 -0.5"/>
  <ellipse style="stroke: rgb(0, 0, 0); stroke-width: 0px; fill: rgb(9, 107, 51);" cx="295.2" cy="131.2" rx="4.4" ry="3.3" transform="matrix(-0.983456, 0.181149, -0.181149, -0.983456, 567.971167, 156.765544)" bx:origin="0.9 -1"/>
  <ellipse style="stroke: rgb(0, 0, 0); stroke-width: 0px; fill: rgb(9, 107, 51);" cx="296" cy="128.2" rx="1.7" ry="3.1" transform="matrix(-0.983456, 0.181149, -0.181149, -0.983456, 567.971167, 156.765545)" bx:origin="1.2 -0.7"/>
  <ellipse style="stroke: rgb(0, 0, 0); stroke-width: 0px; fill: rgb(9, 107, 51);" cx="292" cy="131.6" rx="0.9" ry="3.2" transform="matrix(-0.983456, 0.181149, -0.181149, -0.983456, 567.971169, 156.765544)" bx:origin="4.1 -1.1"/>
  <ellipse style="stroke: rgb(0, 0, 0); stroke-width: 0px; fill: rgb(9, 107, 51);" cx="292.3" cy="135.8" rx="6.2" ry="3.1" transform="matrix(0.425413, 0.904999, -0.904999, 0.425413, 258.53247, -238.886173)" bx:origin="0.3 0.3"/>
  <ellipse style="stroke: rgb(0, 0, 0); stroke-width: 0px; fill: rgb(9, 107, 51);" cx="290.1" cy="132.4" rx="1.3" ry="0.9" transform="matrix(-0.983456, 0.181149, -0.181149, -0.983456, 567.971169, 156.765543)" bx:origin="3.7 -5.8"/>
  <ellipse style="stroke: rgb(0, 0, 0); stroke-width: 0px; fill: rgb(9, 107, 51);" cx="289.6" cy="119.6" rx="2.1" ry="3.9" transform="matrix(-0.983456, 0.181149, -0.181149, -0.983456, 567.971171, 156.765564)" bx:origin="2.6 0.7"/>
  <ellipse style="stroke: rgb(0, 0, 0); stroke-width: 0px; fill: rgb(9, 107, 51);" cx="292.1" cy="126.9" rx="2.4" ry="4.3" transform="matrix(-0.983456, 0.181149, -0.181149, -0.983456, 567.971169, 156.765546)" bx:origin="1.8 -0.2"/>
  <ellipse style="stroke: rgb(0, 0, 0); stroke-width: 0px; fill: rgb(9, 107, 51);" cx="296.8" cy="117.6" rx="1.6" ry="2.7" transform="matrix(-0.983456, 0.181149, -0.181149, -0.983456, 567.971168, 156.765566)" bx:origin="1 1.1"/>
  <ellipse style="stroke: rgb(0, 0, 0); stroke-width: 0px; fill: rgb(9, 107, 51);" cx="294.3" cy="110" rx="1.6" ry="1.6" transform="matrix(-0.983456, 0.181149, -0.181149, -0.983456, 567.971169, 156.765584)" bx:origin="1.8 4"/>
  <ellipse style="stroke: rgb(0, 0, 0); stroke-width: 0px; fill: rgb(9, 107, 51);" cx="296.5" cy="116.2" rx="1.4" ry="2.3" transform="matrix(-0.983456, 0.181149, -0.181149, -0.983456, 567.971168, 156.765582)" bx:origin="1.2 1.6"/>
  <ellipse style="stroke: rgb(0, 0, 0); stroke-width: 0px; fill: rgb(9, 107, 51);" cx="296.1" cy="122.6" rx="1.2" ry="0.9" transform="matrix(-0.983456, 0.181149, -0.181149, -0.983456, 567.971168, 156.765548)" bx:origin="1.5 -0.4"/>
  <ellipse style="stroke: rgb(0, 0, 0); stroke-width: 0px; fill: rgb(9, 107, 51);" cx="298.3" cy="122.5" rx="0.8" ry="0.6" transform="matrix(-0.983456, 0.181149, -0.181149, -0.983456, 567.971167, 156.765564)" bx:origin="0.6 -0.7"/>
  <ellipse style="stroke: rgb(0, 0, 0); stroke-width: 0px; fill: rgb(9, 107, 51);" cx="298.7" cy="113.3" rx="1.2" ry="1.5" transform="matrix(-0.983456, 0.181149, -0.181149, -0.983456, 567.971167, 156.765583)" bx:origin="0.4 3.1"/>
  <ellipse style="stroke: rgb(0, 0, 0); stroke-width: 0px; fill: rgb(9, 107, 51);" cx="295.9" cy="105.3" rx="2.4" ry="1.7" transform="matrix(-0.983456, 0.181149, -0.181149, -0.983456, 567.971169, 156.765602)" bx:origin="1 5.1"/>
  <ellipse style="stroke: rgb(0, 0, 0); stroke-width: 0px; fill: rgb(9, 107, 51);" cx="292.4" cy="111.4" rx="0.7" ry="2.1" transform="matrix(-0.983456, 0.181149, -0.181149, -0.983456, 567.97117, 156.765583)" bx:origin="4.8 2.8"/>
  <ellipse style="fill: rgb(9, 107, 51); stroke: rgb(0, 0, 0); stroke-width: 0px;" cx="294.1" cy="121.8" rx="2.9" ry="2.4" transform="matrix(-0.983456, 0.181149, -0.181149, -0.983456, 567.971169, 156.765564)" bx:origin="1.3 0.3"/>
  <ellipse style="fill: rgb(9, 107, 51); stroke: rgb(0, 0, 0); stroke-width: 0px;" cx="296.3" cy="116.7" rx="5.3" ry="4.9" transform="matrix(-0.983456, 0.181149, -0.181149, -0.983456, 567.971168, 156.765566)" bx:origin="0.7 0.9"/>
  <ellipse style="fill: rgb(9, 107, 51); stroke: rgb(0, 0, 0); stroke-width: 0px;" cx="298.2" cy="124.4" rx="0.5" ry="0.5" transform="matrix(0.425413, 0.904999, -0.904999, 0.425413, 251.120327, -229.710499)" bx:origin="-13.1 -0.1"/>
  <ellipse style="fill: rgb(9, 107, 51); stroke: rgb(0, 0, 0); stroke-width: 0px;" cx="295.4" cy="113.2" rx="4.6" ry="3.5" transform="matrix(-0.983456, 0.181149, -0.181149, -0.983456, 567.971169, 156.765583)" bx:origin="0.8 1.6"/>
  <rect x="286.2" y="56.5" width="51.7" height="25.6" rx="2" ry="2" style="stroke: rgb(0, 0, 0); fill: rgb(205, 201, 188);" transform="matrix(-0.297661, -0.954672, 0.954672, -0.297661, 278.718719, 352.170502)"/>
  <rect x="288.7" y="60" width="45.8" height="18.1" rx="2" ry="2" style="stroke: rgb(0, 0, 0); fill: rgb(205, 201, 188);" transform="matrix(-0.297661, -0.954672, 0.954672, -0.297661, 278.718719, 352.170502)"/>
  <rect x="291.6" y="66.1" width="5.6" height="6.3" rx="2" ry="2" style="stroke: rgb(0, 0, 0); fill: rgb(205, 201, 188);" transform="matrix(-0.297661, -0.954672, 0.954672, -0.297661, 278.718719, 352.170502)"/>
  <rect x="300.8" y="66" width="5.6" height="6.3" rx="2" ry="2" style="stroke: rgb(0, 0, 0); fill: rgb(205, 201, 188);" transform="matrix(-0.297661, -0.954672, 0.954672, -0.297661, 278.718719, 352.170502)"/>
  <rect x="310" y="65.9" width="5.6" height="6.3" rx="2" ry="2" style="stroke: rgb(0, 0, 0); fill: rgb(205, 201, 188);" transform="matrix(-0.297661, -0.954672, 0.954672, -0.297661, 278.718719, 352.170502)"/>
  <rect x="318.3" y="66" width="5.6" height="6.3" rx="2" ry="2" style="stroke: rgb(0, 0, 0); fill: rgb(205, 201, 188);" transform="matrix(-0.297661, -0.954672, 0.954672, -0.297661, 278.718719, 352.170502)"/>
  <rect x="325.9" y="65.9" width="5.6" height="6.3" rx="2" ry="2" style="stroke: rgb(0, 0, 0); fill: rgb(205, 201, 188);" transform="matrix(-0.297661, -0.954672, 0.954672, -0.297661, 278.718719, 352.170502)"/>
  <ellipse style="stroke: rgb(0, 0, 0); stroke-width: 0px; fill: rgb(252, 193, 0);" cx="71.8" cy="189.5" rx="4.7" ry="4.7"/>
  <ellipse style="stroke: rgb(0, 0, 0); stroke-width: 0px; fill: rgb(252, 143, 0);" cx="72.2" cy="187.1" rx="2.3" ry="2.3" bx:origin="0.5 0.6"/>
  <ellipse style="stroke: rgb(0, 0, 0); stroke-width: 0px; fill: rgb(252, 143, 0);" cx="72.9" cy="191.6" rx="2.3" ry="2.3" bx:origin="0.5 0.6"/>
  <ellipse style="stroke: rgb(0, 0, 0); stroke-width: 0px; fill: rgb(252, 143, 0);" cx="70.3" cy="191.3" rx="2.3" ry="2.3" bx:origin="0.5 0.6"/>
  <ellipse style="stroke: rgb(0, 0, 0); stroke-width: 0px; fill: rgb(248, 194, 70);" cx="72.3" cy="190" rx="2.3" ry="2.3" bx:origin="0.5 0.6"/>
  <path style="fill: rgb(155, 155, 155); stroke: rgb(242, 142, 60);" d="M 76.4 186.8 C 76.4 186.8 87.9 187.5 87.9 187.5"/>
  <path style="fill: rgb(155, 155, 155);" d="M 41.4 169.9 L 71.9 170.1 L 87.4 180.2 L 96.8 182.6 C 104.1 186.4 113.4 192.2 110.5 193.5"/>
  <ellipse style="fill: none; stroke-width: 2px; stroke: rgb(73, 79, 70);" cx="71.8" cy="189.7" rx="4.7" ry="4.7"/>
  <path style="fill: rgb(216, 216, 216); stroke: rgb(242, 142, 60);" d="M 68.1 180.6 L 58 178.8"/>
  <line style="fill: rgb(216, 216, 216); stroke: rgb(242, 142, 60);" x1="60.6" y1="179.3" x2="53.9" y2="183.3"/>
  <line style="fill: rgb(216, 216, 216); stroke: rgb(242, 142, 60);" x1="68.1" y1="180.6" x2="72.2" y2="177.3"/>
  <line style="fill: rgb(216, 216, 216); stroke: rgb(242, 142, 60);" x1="80.7" y1="187.1" x2="88.3" y2="193.7"/>
  <line style="fill: rgb(216, 216, 216); stroke: rgb(242, 142, 60);" x1="61.7" y1="195.7" x2="60.4" y2="188.8"/>
  <line style="fill: rgb(216, 216, 216); stroke: rgb(242, 142, 60);" x1="69.8" y1="200" x2="73.4" y2="196.6"/>
  <polygon style="stroke: rgb(143, 107, 13); fill: rgb(142, 107, 35);" points="41.7 169.2 51.2 170 50.6 184.2 66.1 202.7 80.3 201.5 82.7 209.4 63.5 211.7 39.9 184.8 40.3 171.1"/>
  <polyline style="fill: none; stroke: rgba(192, 151, 117, 0.74);" points="44.8 169.2 45.1 183.7 64.6 207.5 81.5 204.9"/>
  <line style="fill: rgb(216, 216, 216); stroke: rgb(179, 140, 96);" x1="51.3" y1="183.8" x2="39.5" y2="184.7"/>
  <line style="fill: rgb(216, 216, 216); stroke: rgb(179, 140, 96);" x1="66.4" y1="201.9" x2="63.3" y2="212.2"/>
  <line style="fill: rgb(216, 216, 216); stroke: rgb(179, 140, 96);" x1="52.5" y1="199.8" x2="59" y2="193.4"/>
  <line style="fill: rgb(216, 216, 216); stroke: rgb(179, 140, 96);" x1="40.9" y1="169.1" x2="51.7" y2="169.8"/>
  <line style="fill: rgb(216, 216, 216); stroke: rgb(179, 140, 96);" x1="80.7" y1="200.9" x2="82.9" y2="209.9"/>
  <path style="fill: rgb(216, 216, 216); stroke-width: 0.5px; stroke: rgb(0, 0, 0);" d="M 118.5 230.2 H 133 A 2 2 0 0 1 135 232.2 V 232.7 A 2 2 0 0 1 133 234.7 H 118.5 V 230.2 Z" transform="matrix(-0.608919, 0.793232, -0.793232, -0.608919, 361.468536, 239.210434)" bx:shape="rect 118.5 230.2 16.5 4.5 0 2 2 0 1@8a471a99"/>
  <ellipse style="fill: rgb(206, 155, 17); stroke: rgb(0, 0, 0);" cx="416.2" cy="325.7" rx="1.8" ry="1.8"/>
  <ellipse style="fill: rgb(206, 155, 17); stroke: rgb(0, 0, 0);" cx="403.3" cy="333.3" rx="1.8" ry="1.8"/>
  <ellipse style="fill: rgb(206, 155, 17); stroke: rgb(0, 0, 0);" cx="421.4" cy="335.1" rx="1.9" ry="1.9"/>
  <ellipse style="fill: rgb(206, 155, 17); stroke: rgb(0, 0, 0);" cx="408.5" cy="342.6" rx="1.9" ry="1.9"/>
  <ellipse style="fill: rgb(206, 155, 17); stroke: rgb(0, 0, 0);" cx="390.5" cy="341" rx="1.9" ry="1.9"/>
  <ellipse style="fill: rgb(206, 155, 17); stroke: rgb(0, 0, 0);" cx="394.8" cy="349.8" rx="1.9" ry="1.9"/>
  <ellipse style="fill: rgb(206, 155, 17); stroke: rgb(0, 0, 0);" cx="452.5" cy="371.8" rx="1.9" ry="1.9"/>
  <ellipse style="fill: rgb(206, 155, 17); stroke: rgb(0, 0, 0);" cx="439.6" cy="379.7" rx="1.9" ry="1.9"/>
  <ellipse style="fill: rgb(206, 155, 17); stroke: rgb(0, 0, 0);" cx="426.4" cy="387.8" rx="1.9" ry="1.9"/>
  <ellipse style="fill: rgb(206, 155, 17); stroke: rgb(0, 0, 0);" cx="510.9" cy="388.1" rx="1.9" ry="1.9" transform="matrix(0.999575, -0.029162, 0.029162, 0.999575, -43.529229, -17.345355)" bx:origin="-3.3 2"/>
  <ellipse style="fill: rgb(206, 155, 17); stroke: rgb(0, 0, 0);" cx="498" cy="395.6" rx="1.9" ry="1.9" transform="matrix(0.999575, -0.029162, 0.029162, 0.999575, -43.529313, -17.345295)" bx:origin="0.1 0"/>
  <ellipse style="fill: rgb(206, 155, 17); stroke: rgb(0, 0, 0);" cx="459.2" cy="379.9" rx="1.9" ry="1.9"/>
  <ellipse style="fill: rgb(206, 155, 17); stroke: rgb(0, 0, 0);" cx="446.3" cy="387.8" rx="1.9" ry="1.9"/>
  <ellipse style="fill: rgb(206, 155, 17); stroke: rgb(0, 0, 0);" cx="433.1" cy="395.9" rx="1.9" ry="1.9"/>
  <ellipse style="fill: rgb(206, 155, 17); stroke: rgb(0, 0, 0);" cx="510.9" cy="388.1" rx="1.9" ry="1.9" transform="matrix(0.999575, -0.029162, 0.029162, 0.999575, -36.817631, -9.28642)" bx:origin="-3.3 2"/>
  <ellipse style="fill: rgb(206, 155, 17); stroke: rgb(0, 0, 0);" cx="498" cy="395.6" rx="1.9" ry="1.9" transform="matrix(0.999575, -0.029162, 0.029162, 0.999575, -36.817723, -9.286367)" bx:origin="0.1 0"/>
  <ellipse style="fill: rgb(206, 155, 17); stroke: rgb(0, 0, 0);" cx="484.2" cy="402.7" rx="1.9" ry="1.9" transform="matrix(0.587078, 0.809531, -0.809531, 0.587078, 533.07792, -180.962524)"/>
  <ellipse style="fill: rgb(206, 155, 17); stroke: rgb(0, 0, 0);" cx="471.3" cy="410.6" rx="1.9" ry="1.9" transform="matrix(0.587078, 0.809531, -0.809531, 0.587078, 533.077851, -180.962527)"/>
  <ellipse style="fill: rgb(206, 155, 17); stroke: rgb(0, 0, 0);" cx="458.1" cy="418.7" rx="1.9" ry="1.9" transform="matrix(0.587078, 0.809531, -0.809531, 0.587078, 533.076562, -180.96253)"/>
  <ellipse style="fill: rgb(206, 155, 17); stroke: rgb(0, 0, 0);" cx="484.2" cy="402.7" rx="1.9" ry="1.9" transform="matrix(0.587078, 0.809531, -0.809531, 0.587078, 527.670449, -171.545563)"/>
  <ellipse style="fill: rgb(206, 155, 17); stroke: rgb(0, 0, 0);" cx="471.3" cy="410.6" rx="1.9" ry="1.9" transform="matrix(0.587078, 0.809531, -0.809531, 0.587078, 527.67038, -171.545566)"/>
  <ellipse style="fill: rgb(206, 155, 17); stroke: rgb(0, 0, 0);" cx="458.1" cy="418.7" rx="1.9" ry="1.9" transform="matrix(0.587078, 0.809531, -0.809531, 0.587078, 527.66903, -171.545569)"/>
  <path style="stroke: rgb(0, 0, 0); fill: rgb(83, 199, 225);" d="M 430.3 140.9 C 426.4 143.5 424.8 148 421.1 150.7 C 419.3 152 415.1 152.1 414.1 154.1 C 412.5 157.3 416.5 162.4 420.1 161.5 C 422.7 160.9 424.4 158.3 426.1 156.5 C 429.9 152.6 439.9 144.7 431 140.3 C 430.5 140 430.3 140.9 430.1 141.2"/>
  <rect x="239.5" y="351.4" width="47.4" height="10.3" rx="2" ry="2" style="stroke: rgb(0, 0, 0); fill: rgb(155, 84, 12);" transform="matrix(0.981829, -0.18977, 0.734412, 0.876559, -289.584045, 60.812515)"/>
  <rect x="180.7" y="212.8" width="35.7" height="6.2" rx="2" ry="2" style="stroke: rgb(0, 0, 0); fill: rgb(155, 84, 12);" transform="matrix(0.6189, -0.78547, 0.656099, 0.783089, -114.406441, 373.864136)"/>
  <rect x="124.1" y="160.3" width="24.5" height="4.7" rx="2" ry="2" style="stroke: rgb(0, 0, 0); fill: rgb(155, 84, 12);" transform="matrix(0.637377, -0.770552, 0.975842, 0.389194, -155.763, 470.734222)"/>
  <rect x="79.5" y="160.3" width="15.7" height="4.7" rx="2" ry="2" style="stroke: rgb(0, 0, 0); fill: rgb(155, 84, 12);" transform="matrix(0.934238, -0.356651, 0.657556, 0.819365, -139.40744, 352.07193)"/>
  <rect x="219.3" y="217.3" width="43.3" height="6.3" rx="2" ry="2" style="stroke: rgb(0, 0, 0); fill: rgb(155, 84, 12);" transform="matrix(0.994918, -0.100686, 0.11916, 0.993049, -65.441177, 265.779938)"/>
  <rect x="219.6" y="217" width="43.4" height="6.3" rx="2" ry="2" style="stroke: rgb(0, 0, 0); fill: rgb(155, 84, 12);" transform="matrix(0.929821, 0.368012, -0.422784, 0.908143, -31.315659, 172.898407)"/>
  <rect x="242" y="221.2" width="47.8" height="6.4" rx="2" ry="2" style="stroke: rgb(0, 0, 0); fill: rgb(155, 84, 12);" transform="matrix(0.990837, -0.135063, 0.156349, 0.987935, -16.857761, 252.102646)"/>
  <rect x="388.2" y="277.9" width="76.6" height="8.1" rx="2" ry="2" style="stroke: rgb(0, 0, 0); fill: rgb(155, 84, 12);" transform="matrix(0.998915, 0.046576, -0.028028, 0.99978, -39.991241, 134.166397)"/>
  <rect x="93" y="251.8" width="18.3" height="7.3" rx="2" ry="2" style="stroke: rgb(0, 0, 0); fill: rgb(155, 84, 12);" transform="matrix(0.434632, 0.900608, -0.840668, 0.558835, 537.239502, 78.686943)"/>
  <rect x="192.9" y="217.3" width="38.1" height="6.3" rx="2" ry="2" style="stroke: rgb(0, 0, 0); fill: rgb(155, 84, 12);" transform="matrix(0.761706, -0.647923, 0.662068, 0.749674, 69.737183, 181.208038)"/>
  <rect x="127.9" y="217.3" width="25.3" height="6.3" rx="2" ry="2" style="stroke: rgb(0, 0, 0); fill: rgb(155, 84, 12);" transform="matrix(0.180426, -0.983589, 0.986939, 0.162162, 157.792389, 280.000305)"/>
  <rect x="240.1" y="280" width="47.4" height="8.1" rx="2" ry="2" style="stroke: rgb(0, 0, 0); fill: rgb(155, 84, 12);" transform="matrix(0.718569, 0.695456, -0.500401, 0.907349, 127.062332, -205.257538)"/>
  <rect x="95" y="145.5" width="18.8" height="4.2" rx="2" ry="2" style="stroke: rgb(0, 0, 0); fill: rgb(155, 84, 12);" transform="matrix(0.546488, 0.837467, -0.82732, 0.562038, 89.010178, -47.938354)"/>
  <rect x="50.4" y="142.7" width="10" height="4.1" rx="2" ry="2" style="stroke: rgb(0, 0, 0); fill: rgb(155, 84, 12);" transform="matrix(-0.002855, 0.999996, -1.000049, 0.015713, 158.790405, 39.024338)"/>
  <rect x="228.1" y="229.1" width="4.6" height="17.7" rx="2" ry="2" style="fill: rgb(155, 84, 12); stroke: rgb(0, 0, 0);" transform="matrix(0.636594, -0.771199, 0.771199, 0.636594, -122.911957, 232.986343)"/>
  <rect x="138.8" y="176.1" width="2.8" height="13.6" rx="2" ry="2" style="fill: rgb(155, 84, 12); stroke: rgb(0, 0, 0);" transform="matrix(0.460174, 0.887829, -0.887829, 0.460174, 298.925385, -13.938772)"/>
  <rect x="138.8" y="106.6" width="2.8" height="8.2" rx="2" ry="2" style="fill: rgb(155, 84, 12); stroke: rgb(0, 0, 0);" transform="matrix(-0.947202, 0.320636, -0.320636, -0.947202, 374.150391, 245.272598)"/>
  <rect x="138.8" y="115.5" width="2.8" height="8.9" rx="2" ry="2" style="fill: rgb(155, 84, 12); stroke: rgb(0, 0, 0);" transform="matrix(-0.908841, -0.417142, 0.417142, -0.908841, 284.912567, 342.304962)"/>
  <rect x="138.8" y="115.5" width="2.8" height="8.9" rx="2" ry="2" style="fill: rgb(155, 84, 12); stroke: rgb(0, 0, 0);" transform="matrix(-0.029661, -0.99956, 0.99956, -0.029661, 108.00177, 311.992004)"/>
  <rect x="138.8" y="115.5" width="2.8" height="8.9" rx="2" ry="2" style="fill: rgb(155, 84, 12); stroke: rgb(0, 0, 0);" transform="matrix(-0.908841, -0.417142, 0.417142, -0.908841, 311.550934, 329.264221)"/>
  <rect x="129.1" y="115.5" width="2.6" height="8.9" rx="2" ry="2" style="fill: rgb(155, 84, 12); stroke: rgb(0, 0, 0);" transform="matrix(-0.516413, -0.85634, 0.85634, -0.516413, 206.46109, 329.054504)"/>
</svg>