<?xml version="1.0" encoding="utf-8"?>
<svg viewBox="0 0 600 600" preserveAspectRatio="1:1" xmlns="http://www.w3.org/2000/svg" xmlns:bx="https://boxy-svg.com">
  <defs>
    <linearGradient id="color-0" gradientUnits="userSpaceOnUse" gradientTransform="matrix(1, 0, 0, 1, 1.930252, -2.030453)" bx:pinned="true">
      <title>Path</title>
      <stop style="stop-color: rgb(223, 197, 66);"/>
    </linearGradient>
    <linearGradient id="color-1" gradientUnits="userSpaceOnUse" bx:pinned="true">
      <title>Grass</title>
      <stop style="stop-color: rgb(163, 233, 183);"/>
    </linearGradient>
    <radialGradient gradientUnits="userSpaceOnUse" cx="471.4" cy="420.5" r="75.5" id="gradient-0" gradientTransform="matrix(0.812543, 0.659515, -0.414019, 0.652982, 262.736084, -164.023846)">
      <stop offset="0" style="stop-color: rgba(83, 199, 225, 1)"/>
      <stop offset="1" style="stop-color: rgba(31, 149, 175, 0);"/>
    </radialGradient>
  </defs>
  <path style="fill: rgb(216, 216, 216); stroke: rgb(0, 0, 0);" d="M 44 142.5 C 42.5 141.7 34.8 135.5 37.5 132.7 C 38.8 131.4 43.8 129.8 45.7 131.6 C 49.6 135.5 51.3 141.4 54.7 144.9 C 58 148.1 49.3 155.1 46.6 153.7 C 40.4 150.6 46.7 141.1 40.7 141.1"/>
  <path style="fill: rgb(216, 216, 216); stroke: rgb(0, 0, 0);" d="M 90.1 164.1 C 88.2 162.1 88 159.4 89.6 158.9 C 94.8 157.1 100.4 157.6 105.8 157.6 C 108.5 159 103.2 165.9 101.5 166.7 C 95.8 169.6 92 165.3 90.1 164.1 Z"/>
  <path style="fill: rgb(216, 216, 216); stroke: rgb(0, 0, 0);" d="M 98.1 172.2 C 96.7 172.2 92.4 173.5 93.5 175.8 C 93.9 176.5 95 176.9 95.7 177.2 C 99 178.6 103.1 178.9 106.6 179.6 C 109.5 180.3 112.2 181.6 115 182.6 C 117.4 183.4 119.9 183.7 122.1 184.6 C 124 185.4 126 186.7 127.7 187.9 C 128 188.1 129 189.7 129.2 189.7 C 129.3 189.7 128.8 186.6 128.8 186.5 C 128.2 184.6 128.1 182.5 126.7 181.1 C 125.9 180.3 124.8 179.8 123.8 179.2 C 120.9 177.3 117.4 176.7 114.2 175.5 C 109.7 173.7 105.4 172 100.6 171.5 C 100.1 171.5 98.7 171.3 98.2 171.5 C 97.7 171.7 97.7 172.3 97.1 172.3"/>
  <path style="fill: rgb(216, 216, 216); stroke: rgb(0, 0, 0);" d="M 55.8 158.8 C 66.3 158.8 73 166.9 81.7 171.9 C 97.3 180.9 188.1 228.2 196.9 248.6 C 199.5 254.6 172.7 265.2 165.1 265.2 C 161.8 265.1 141.8 258.4 130.6 255.3 C 105.4 248 75.6 205.7 61.1 188.8 C 57.9 185 42 166.7 47.8 159.7 C 50.4 156.7 54.4 160.6 55.6 160.6"/>
  <path style="fill: rgb(216, 216, 216); stroke: rgb(0, 0, 0);" d="M 62.8 141.5 C 64.2 143.7 65.8 145.6 67.6 147.6 C 68.9 149.1 69.8 150.9 71.3 152.2 C 72.6 153.4 74.5 154.3 76.2 155 C 79.3 156.3 79 151.1 78.1 149.5 C 77.4 148.3 76.2 147.4 75.2 146.6 C 73.8 145.5 72.4 144.3 70.8 143.6 C 69.3 142.9 67.4 142.8 65.7 142.4 C 64.9 142.1 64.2 141.9 63.4 141.5 C 63.3 141.5 62.3 140.9 62.2 140.9 C 62.2 141 63.6 141.8 62.7 141.8"/>
  <path style="fill: rgb(216, 216, 216); stroke: rgb(0, 0, 0);" d="M 53.9 128.5 C 52.1 129.2 49.2 128.6 47.4 128.6 C 45.8 128.6 44.4 128.5 42.9 128.1 C 41.7 127.8 40.4 127.7 39.2 127.2 C 38.4 126.9 37.9 125.6 37.6 124.9 C 37.4 124.2 36.9 123.5 36.8 122.8 C 36.3 119.6 39.4 118.7 40.6 116.3 C 41.3 114.9 41.7 113.4 42 111.9 C 42.9 107.2 40.9 102.1 43 97.6 C 43.9 95.8 46.7 96.5 47.9 97.3 C 49.6 98.5 50.4 100 51.5 101.7 C 52.7 103.7 54.3 105.2 55.1 107.5 C 56.3 110.5 57.8 113.3 58.4 116.6 C 58.6 118 58.8 119.8 58.5 121.1 C 58.3 122.1 57.6 123.2 57.1 124.2 C 56.4 125.5 54.7 126.3 53.9 127.7 C 53.7 128 53.9 128.7 53.9 129.1"/>
  <path style="fill: rgb(216, 216, 216); stroke: rgb(0, 0, 0);" d="M 140.3 192.4 C 140.1 192.8 140.2 193.4 140.1 193.8 C 140 194.6 139.7 195.3 139.8 196.1 C 139.8 196.7 140.2 197.3 140.5 197.8 C 141.4 199.6 142.9 201.3 144.6 202.3 C 146.7 203.5 149 204 151.1 204.9 C 152.3 205.5 153.5 205.8 154.7 206.4 C 155.9 207 156.9 207.8 157.8 208.7 C 158 208.9 158.7 210 159.1 210.1 C 159.6 210.2 160.3 210 160.8 209.9 C 161.2 209.8 162.1 209.9 162.4 209.5 C 162.6 209.2 162.5 208.3 162.4 208 C 161.9 206.7 160.9 205.7 159.9 204.7 C 157.8 202.6 155.3 201.3 153 199.5 C 150.7 197.7 148.6 195.8 146.3 194.1 C 145.1 193.3 143.7 192.5 142.3 191.8 C 142 191.7 140.5 192 140.2 192.1 C 140 192.2 140 192.7 140.2 192.7"/>
  <path style="fill: rgb(216, 216, 216); stroke: rgb(0, 0, 0);" d="M 200.9 257.8 C 198 260.7 191.8 264.1 193.6 269.2 C 194 270.4 195.9 271.5 196.9 272 C 199.9 273.8 203.1 274.9 206.6 275.3 C 207.5 275.4 209.5 275.8 210.4 275.3 C 215.3 272.9 215.7 263.2 211.3 260 C 208.8 258.1 203.2 257.9 200 257.9"/>
  <path style="fill: rgb(216, 216, 216); stroke: rgb(0, 0, 0);" d="M 177.2 264.8 C 175.8 265.5 174.3 265.9 172.9 266.6 C 172.2 267 171.4 267.7 170.7 268.2 C 169.9 268.8 168.8 269.7 168.6 270.8 C 168.3 271.8 169.1 272.8 169.5 273.5 C 169.9 274.2 170.1 275.4 170.8 275.9 C 171.4 276.2 172.2 276.2 172.8 276.2 C 174.6 276.3 176.3 276.3 177.9 275.6 C 180.3 274.6 180.4 272.4 181.4 270.4 C 181.6 270.1 182 270 182.2 269.7 C 182.6 269.2 183 268.7 183.3 268.1 C 183.3 268.1 183.6 267.7 183.5 267.7 C 183.4 267.6 182.9 267.6 182.8 267.6 C 182.2 267.5 181.6 267.6 181 267.5 C 180.8 267.4 181 267.1 180.9 266.9 C 180.8 266.6 180.6 266 180.3 265.7 C 179.7 265.1 179 265.1 178.2 265 C 178 264.9 177.7 264.6 177.5 264.7 C 177.3 264.8 177.3 265 177 265.2"/>
  <path style="stroke: rgb(0, 0, 0); fill: url(#gradient-0); stroke-width: 0px;" d="M 402.7 347.3 C 571.5 293.3 602.3 545.8 477.5 507.5 C 465.7 490.5 442.2 392.4 421.6 407.4 L 402.7 347.3 Z"/>
  <path style="fill: rgb(216, 216, 216); stroke: rgb(0, 0, 0);" d="M 387.2 350.2 C 391.3 344.9 399.4 342.2 401.2 335 C 404.2 323.3 401.4 313.3 404.4 301.8 C 405.5 297.3 413.2 288.6 412.4 284.9 C 411.6 281.4 411.9 274.4 409.5 271.6 C 403.5 264.9 397.7 257.7 395.6 249.1 C 393.7 241.6 403.4 236.4 400.3 228.3 C 395.2 215 386.2 219.8 377.4 213.9 C 368.7 208.1 363.1 199 355.8 191.7 C 352.9 188.8 337.6 192.7 333.6 193.1 C 326.9 193.7 317.3 185.5 310.8 188.9 C 302.1 193.3 299.6 204.8 291.8 210.9 C 278.9 220.9 266.3 226.5 254.6 238.3 C 245.6 247.4 225.7 238.7 222.2 252.6 C 221.3 256.4 222.8 262.5 222.8 266.2 C 222.8 269.2 220.8 273.8 220.8 275.6 C 220.6 277.3 220.9 280.2 219.8 281.7 C 218.2 283.8 215.7 285.2 215 287.8 C 213.4 293.9 220.2 299.3 223.6 303.8 C 225.1 305.7 226.2 308.1 227.7 310.2 C 229.8 313.2 233 316.5 234.5 319.8 C 235.7 322.4 235.6 326 235.8 328.9 C 236 330.5 237.7 333.9 235.7 333.9 C 237.1 338.9 243.1 340.3 247.7 341 C 249 341.1 249.8 342.9 251.1 342.7 C 254.3 342.1 257 340.7 260.7 341.5 C 267 343 275.2 346.8 280.2 350.9 C 282.3 352.6 288 356.6 288 359.7 C 287.9 359.2 288.4 360.6 288.7 361 C 289.3 361.8 290 362.7 290.5 363.6 C 291.9 366 295 368.4 297.3 370 C 304.8 374.9 315.6 376.4 324.2 374.9 C 341.3 372 346.6 367.3 363.6 364.4 C 362.1 368.1 372.3 370.9 375.1 369.5 C 381.4 366.3 383.2 354.3 387.2 350.2 Z"/>
  <path style="fill: rgb(216, 216, 216); stroke: rgb(0, 0, 0);" d="M 424.9 222.9 C 422.6 224.2 420.4 224.9 418.2 226 C 413.7 228.2 417.5 235.3 420.3 236.7 C 421.5 237.3 424.6 233.7 425.4 233.1 C 429.6 229.9 433.9 234.1 436.7 228.4 C 438.3 225.2 430.9 218.9 428.6 218.1 C 423.4 216.4 425.5 223.2 424.1 223.9 C 423.9 224 422.4 223.7 422.4 224"/>
  <path style="fill: rgb(216, 216, 216); stroke: rgb(0, 0, 0);" d="M 431.6 196.1 C 436.2 204.2 441.2 211.7 450.8 204.4 C 453.5 202.4 453.2 198.4 456 196.3 C 465.4 189.1 478.5 178.8 469.8 165.9 C 467.9 163.1 463.5 163 461.4 165.8 C 456.7 171.9 449.6 174.1 444.9 180.3 C 438.5 188.7 432.5 179.2 425.3 186.3 C 424.4 187.1 424 188.7 424.2 189.8 C 424.5 190.9 425.8 191.7 426.5 192.4 C 428.2 194.2 431.6 200.4 434.4 200.4"/>
  <path style="fill: rgb(216, 216, 216); stroke: rgb(0, 0, 0);" d="M 221.4 220.6 C 219.7 221.4 216.4 222.5 215.5 224.4 C 215.2 225 216.9 227.4 217.2 228 C 219.2 232.6 223.8 237 229.3 235.7 C 230.9 235.5 233.1 233.5 233.3 231.7 C 233.6 229.8 232.5 227.3 231.9 225.5 C 231.6 224.3 230.8 221.9 229.5 221.2 C 228.1 220.4 226 220 224.4 219.5 C 224.2 219.4 222.7 218.7 222.4 218.9 C 222 219.2 221.4 220.7 221 220.7"/>
  <path style="fill: rgb(216, 216, 216); stroke: rgb(0, 0, 0);" d="M 236.3 222.2 C 234.5 223.8 237.5 227.7 239.2 228.2 C 240.5 228.6 242.1 224.9 242.5 224.2 C 242.9 223.6 244 221.9 243.9 221.2 C 243.7 220.3 241.7 219.8 241.2 219.6 C 239.9 219.1 236.3 217.8 235.2 219.5 C 234.8 220 235.3 221.2 235.7 221.7 C 235.8 221.9 235.5 223.1 235.8 223.1"/>
  <path style="fill: rgb(216, 216, 216); stroke: rgb(0, 0, 0);" d="M 252.7 209.6 C 252.7 214.3 262.9 217.2 267.1 213.4 C 268.8 211.8 271.4 207 266.5 206.5 C 264.3 206.2 262.4 207.6 260.2 207.7 C 258.3 207.9 255.8 206.8 254 207.3 C 252.7 207.6 254 209.1 253.4 209.6 C 253 209.8 252.7 210.1 252.5 210.3"/>
  <path style="fill: rgb(216, 216, 216); stroke: rgb(0, 0, 0);" d="M 234.1 210.8 C 233.5 211.4 232.1 212.9 231.9 213.6 C 231.6 215.2 233.8 215.9 235 215.8 C 237.6 215.6 240.2 215 241.9 212.9 C 242.3 212.5 241.7 211.5 241.4 211.2 C 240.1 210.3 237.8 207.9 235.9 208.2 C 234.8 208.3 234.3 209.4 233.9 210.2 C 233.7 210.5 234.2 211.3 233.8 211.5"/>
  <path style="fill: rgb(216, 216, 216); stroke: rgb(0, 0, 0);" d="M 235.2 195.7 C 234.1 196.2 232.2 197.2 231.9 198.2 C 230.9 200.9 234.5 204.7 238.2 204.9 C 241.7 205.4 242.3 203.7 244.7 202.7 C 247.3 201.9 250.2 202.9 252.7 202.2 C 253.8 201.9 254.2 200.7 254.8 200.2 C 255.1 199.7 255.4 199.2 255.6 198.7 C 255.8 197.9 256.4 197.2 256.2 196.4 C 255.8 195.4 253.1 194.9 251.6 194.4 C 249.6 194.2 247.1 195.7 245.3 195.4 C 242.9 194.9 239.7 193.7 237.5 193.9 C 235.8 194.2 233.5 195.9 233.5 196.9"/>
  <path style="fill: rgb(216, 216, 216); stroke: rgb(0, 0, 0);" d="M 258.7 194.9 C 257.7 196.6 256.7 200.6 259.1 201.4 C 259.6 201.6 260.3 201 260.8 200.8 C 261.7 200.6 262.8 200.7 263.8 200.6 C 264.4 200.6 267.2 201.8 267.4 200.4 C 268.1 197.4 265.5 194.4 263.6 193.5 C 262.8 193.2 261.8 192.4 261.1 193 C 260.2 193.5 259.6 194.3 258.9 194.9 C 258.8 195 258.4 195.5 258.4 195.7"/>
  <path style="fill: rgb(216, 216, 216); stroke: rgb(0, 0, 0);" d="M 264 183.4 C 264 187.4 263.8 190.5 266.9 192.5 C 267.9 193.2 273.3 191.7 272.9 189.2 C 272.4 186.5 268.6 182.9 266.8 182.2 C 265.3 181.8 263.4 182.2 263.4 184.6"/>
  <path style="fill: rgb(216, 216, 216); stroke: rgb(0, 0, 0);" d="M 276.3 184.5 C 281.2 178 284.5 167.9 285.8 159.8 C 287 152.2 289.7 143.1 288.3 135.3 C 287.1 127.7 285.8 120.2 285.1 112.5 C 284.3 105 285 97.7 282.8 90.4 C 280 81.1 269.2 75.2 264.9 66.8 C 263.2 63.4 264.8 57.7 268.8 57 C 272.9 56.3 276.8 60.1 280.4 61.6 C 289.3 65.2 300.8 73.1 303.4 83.3 C 305.4 91.3 306.6 100.3 307.9 108.5 C 308.8 114.4 313.5 119.9 316.3 125 C 321 133.7 329.7 139.5 335.6 147.4 C 338 150.6 343.5 153 344.5 157.1 C 346.2 164 338.7 171.7 332.6 173.1 C 329.1 173.9 324.7 173.4 321.1 173.4 C 313.5 173.4 306.5 172.9 299 171.5 C 298.2 171.4 290.9 174.3 290 175.5 C 286.2 180.4 281.3 188.2 274.6 185.1"/>
  <path style="fill: rgb(216, 216, 216); stroke: rgb(0, 0, 0);" d="M 229.2 340 C 235 347 238.7 351.5 245.2 358 C 247.3 360.1 251.6 363.5 250.7 366.9 C 249.3 372.5 242 375.1 238.1 378 C 227.2 386.1 218.9 397.3 208.1 405.2 C 205.8 407 194.6 410.9 192.3 408.7 C 191.2 407.6 190 406 188.8 404.8 C 179.8 395.8 190.4 389.2 195.2 382.6 C 196.9 380.2 193.9 375.8 193.6 362.3 C 193.4 354 202.8 350.6 207.6 344.1 C 209.1 342.1 212.4 337.9 214.8 337 C 219.3 335.5 224.9 340.2 229.2 340.2"/>
  <path style="fill: rgb(216, 216, 216); stroke: rgb(0, 0, 0);" d="M 172.6 398.8 C 167.2 399.9 168.9 405.2 173.4 406.3 C 174.7 406.6 176.5 405.1 177.5 404.5 C 178.7 403.7 179.4 403 180 401.6 C 182 397.1 171.2 394 171.2 399.2"/>
  <path style="fill: rgb(216, 216, 216); stroke: rgb(0, 0, 0);" d="M 184.1 408.3 C 182.4 410.5 187.3 415.7 189.9 415.1 C 191.9 414.6 190.4 412.1 189.7 411.2 C 188 409 185.3 408.5 182.8 408.5"/>
  <path style="fill: rgb(216, 216, 216); stroke: rgb(0, 0, 0);" d="M 173 414.7 C 166 420.1 157.4 418.2 149.5 420.1 C 146.7 420.8 139.9 420.2 137.8 422.2 C 134.2 425.7 130.1 429.5 127.8 434.1 C 124.1 441.5 122.1 445.3 127.3 453 C 130.3 457.5 139.4 450.9 142.3 449.4 C 146.4 447.3 154.4 449 158.8 450.1 C 162.6 451 166.2 447.7 169.2 446.1 C 171 445.1 174.2 442.5 175 440.5 C 176.9 435.5 173.1 430.8 174.3 425.8 C 175.3 421.9 177.5 418.4 176.5 414.3 C 175.5 410.5 168.9 413.7 168.9 416.7"/>
  <path style="fill: rgb(216, 216, 216); stroke: rgb(0, 0, 0);" d="M 116.3 451.2 C 113.3 452.5 110.6 457.3 115.7 458.6 C 117.2 459 120.1 458.3 121.4 457.9 C 125.4 456.8 118.8 451.1 117.3 450.4 C 115.6 449.5 115.3 451 114.4 451"/>
  <path style="fill: rgb(216, 216, 216); stroke: rgb(0, 0, 0);" d="M 129.6 457.4 C 124.9 457.4 127.7 463.4 130.8 462.6 C 134.7 461.6 130.1 456.5 127.9 456.5"/>
  <path style="fill: rgb(216, 216, 216); stroke: rgb(0, 0, 0);" d="M 122.2 460.8 C 120.4 462.7 117.7 465 119.1 468.1 C 120.5 471.1 124.3 470.3 125.1 467.3 C 125.7 464.8 121.7 462.3 121.7 460"/>
  <path style="fill: rgb(216, 216, 216); stroke: rgb(0, 0, 0);" d="M 106.1 455.3 C 104.8 461 109.6 464.7 113.3 467.5 C 114.9 468.7 115.8 470.8 117.5 472.1 C 119.2 473.4 122.5 474.7 121.7 477.6 C 120.8 481.4 112.3 482.6 109.7 484 C 104.9 486.7 101.7 492.1 96.9 494.5 C 95.5 495.2 93.4 496.9 91.6 496.4 C 86.1 495.1 89.2 489 87.6 485.7 C 86.6 483.7 83.9 484.9 82.5 483.2 C 80.8 481 77.1 478.6 75.5 476.2 C 74.7 475.1 74.6 472.8 75.8 472 C 78.1 470.5 82.8 473 84.8 473.4 C 86.6 473.8 88.1 475.5 89.8 475.9 C 92.9 476.7 98.9 471.4 101.6 470.2 C 103 469.6 102.2 460.8 102 460.2 C 101.7 459 105.5 455 106 455.4"/>
  <path style="fill: rgb(216, 216, 216); stroke: rgb(0, 0, 0);" d="M 71.8 483.6 C 67.2 482.7 63.1 483.9 59.3 486.7 C 56.7 488.6 55.5 493 54.7 496 C 54.2 498.1 52.1 499.7 51.5 501.9 C 49.9 508.2 37 514.7 44.7 522.3 C 45.6 523.2 46.6 524.4 47.7 525.1 C 49.3 526.2 51 527.4 52.9 527.9 C 58.4 529.3 65.6 522.1 69 518.6 C 72.5 515.2 78.3 515 80.8 510.4 C 82.9 506.6 83.9 502.2 84.4 497.9 C 84.5 496.9 85.3 495.3 85.1 494.3 C 83.5 488 74.1 482.9 68.4 482.9"/>
  <path style="stroke: rgb(0, 0, 0); fill: rgb(168, 96, 96);" d="M 82.1 512.4 C 77.3 515.9 86.5 523.9 88.2 516.9 C 88.7 514.9 84.9 511 82.9 512 C 82.1 512.4 82.3 513.8 81.5 514.2 C 81.4 514.2 79.3 515.6 79.3 515.9"/>
  <path style="stroke: rgb(0, 0, 0); fill: rgb(168, 96, 96);" d="M 90.2 503.3 C 86.7 504.8 87.2 511.8 91.2 510.8 C 94.2 510.1 94.9 506.6 92.4 504.9 C 91.4 504.2 89.9 503.5 89.1 502.8"/>
  <path style="fill: rgb(216, 216, 216); stroke: rgb(0, 0, 0);" d="M 107.6 500.7 C 107.2 502.6 109.9 508.6 112.5 506.6 C 116 504 113.8 500.5 110 500.5 C 108.6 500.5 107.2 501.6 106 501.6"/>
  <path style="fill: rgb(216, 216, 216); stroke: rgb(0, 0, 0);" d="M 117.5 489.9 C 116.8 490.5 114.6 491.8 114.9 493 C 115.6 495.7 121 497.4 123.1 496 C 124.7 494.9 122.7 491.1 121.5 490.3 C 119.4 488.9 116.2 489.8 114.3 490.7"/>
  <path style="fill: rgb(216, 216, 216); stroke: rgb(0, 0, 0);" d="M 122.9 501.9 C 125 505.3 128.3 503.5 131.6 502.4 C 135.5 501.1 138.5 500.5 136 495.9 C 133.5 491.4 129.6 494.8 127 496.5 C 124.6 498.1 121.9 497.8 123.8 501.7"/>
  <path style="fill: rgb(216, 216, 216); stroke: rgb(0, 0, 0);" d="M 140.7 487.8 C 139.4 488.5 136.5 489 135.9 490.7 C 135.5 491.9 140.1 495.3 141.2 494.4 C 144.3 492.1 142.6 485.8 138.4 486.8 C 137.7 486.9 137.1 487.4 136.6 487.8 C 136.5 488 136.6 490.1 136.5 490.1"/>
  <path style="fill: rgb(216, 216, 216); stroke: rgb(0, 0, 0);" d="M 158.9 485.9 C 153.5 485.9 152.1 490.9 150.1 494.8 C 148.4 498.2 146.7 501.2 144.9 504.5 C 144.3 505.6 143 507 143.3 508.4 C 143.8 510.1 145.4 511.6 146.7 512.8 C 147.4 513.3 147.9 514.3 148.7 514.7 C 156.4 518.9 167.1 511 172.9 507.1 C 174.3 506.2 175.4 504.4 176.8 503.7 C 177.6 503.3 178.5 505 179 505.5 C 180.6 507.1 182.5 509.7 184.9 510.5 C 191.8 512.8 195.4 511.7 203.1 509.2 C 208.8 507.3 214.8 504.4 216.1 497.8 C 216.5 496 216 493.8 215.7 492.1 C 214.2 483.8 210 480.9 201.3 481.7 C 196.4 482.1 191.4 481.6 186.4 482.1 C 183 482.4 179.8 484.4 176.2 484.6 C 172.2 485 169.2 484.2 165.4 483.2 C 163.6 482.8 162.4 484.5 161.1 485.2 C 158.5 486.7 153 485.4 153 489"/>
  <path style="fill: rgb(216, 216, 216); stroke: rgb(0, 0, 0);" d="M 230.9 494 C 229.4 494.3 227.8 494.5 226.3 494.9 C 222.3 495.8 219.5 499.4 224.4 502 C 226.1 502.9 227.8 502.9 229.7 503.3 C 232.8 504.1 233.8 500.8 235.8 499.3 C 236.8 498.5 239.4 496.5 239 495 C 238.8 494.1 238.1 493.6 237.7 492.9 C 235.1 488.2 232.2 490.9 230.5 494.4 C 230.2 494.8 228 495.3 228 495.5"/>
  <path style="fill: rgb(216, 216, 216); stroke: rgb(0, 0, 0);" d="M 238.5 484.3 C 239.8 487.6 243.5 489.1 246.3 490.5 C 254.2 494.5 267.9 494 276.1 490.9 C 278.8 489.8 281.3 487.8 284 486.7 C 285.3 486.3 286.6 486 287.9 485.7 C 291.6 484.9 295.9 483.4 297.8 480 C 298.3 479.1 299.4 478.1 299.2 477.1 C 297.5 470.5 286.8 470.2 281.9 469.2 C 278.5 468.4 275.2 466.8 271.6 467.2 C 269 467.4 266.9 468.9 264.5 469.7 C 259.1 471.7 253.4 472.9 248.4 475.8 C 246.7 476.8 245.6 478.9 243.7 479.6 C 242.3 480 239.1 480.4 238.3 481.6 C 235.5 485.7 239 489.7 244.1 489.7"/>
  <path style="fill: rgb(216, 216, 216); stroke: rgb(0, 0, 0);" d="M 316.6 468.8 C 313.7 469.3 308.9 468.6 307.2 471.9 C 306 474.3 311.9 477.5 313.4 478.1 C 314.2 478.3 314.9 478.7 315.7 478.9 C 316.7 479.2 317.6 479.7 318.6 479.6 C 321.5 479.1 325.8 476 323.4 472.7 C 321.2 469.8 318.4 469.8 315.6 468.5 C 315.1 468.2 313.8 467 313.5 467"/>
  <path style="fill: rgb(216, 216, 216); stroke: rgb(0, 0, 0);" d="M 349.6 450.3 C 345.1 452.3 341.6 453.7 339.2 458.2 C 338 460.3 335.9 460.6 335.1 463.3 C 333.3 469.3 339.7 479.3 346.6 478.1 C 347.8 477.9 348.7 476.5 349.7 476 C 351.7 475 354 473.8 356.2 473.3 C 359.7 472.4 364.2 476.8 367.4 475.2 C 368.6 474.5 370.1 473.5 371.2 472.7 C 375.8 469.2 374.9 462.5 374.1 457.8 C 373.8 456.4 373.6 454.3 372.4 453.4 C 369.4 451.1 364.6 456.5 361.8 455.6 C 358.5 454.5 355 453.9 351.7 453 C 350.3 452.7 348.2 450.4 347.1 450.4"/>
  <path style="fill: rgb(216, 216, 216); stroke: rgb(0, 0, 0);" d="M 395.7 462.2 C 392.5 465.3 388.2 463.4 384.7 464.4 C 382.2 465.2 383.3 467.6 384.7 468.7 C 387.3 470.6 389.7 472.6 393.3 471.7 C 399 470.3 397.9 462.7 392.4 462.7"/>
  <path style="fill: rgb(216, 216, 216); stroke: rgb(0, 0, 0);" d="M 406.6 465.3 C 406.6 464.9 405.7 461.7 404.7 462.7 C 402.3 465 404.4 471.8 406.6 474 C 408.1 475.5 410.5 475.5 412.7 475.5 C 413.6 475.5 417 476 417.6 475.1 C 420 471.4 417.4 459.1 411 461 C 408.8 461.7 406.8 466 405.4 466"/>
  <path style="fill: rgb(216, 216, 216); stroke: rgb(0, 0, 0);" d="M 429.2 469.5 C 431.9 472.7 436.8 471.6 440.3 470.6 C 441.5 470.2 444.4 469.2 444 467.3 C 442.9 462.9 438.6 466.5 436.5 467 C 434.6 467.5 432.8 466.5 431 467.4 C 429.8 468 426.7 469.7 429.1 470.9"/>
  <path style="fill: rgb(216, 216, 216); stroke: rgb(0, 0, 0);" d="M 445.5 442.8 C 445.5 444.8 444.7 448.7 445.5 450.7 C 446.2 452.7 448.4 455 448.1 457.4 C 447.3 462.8 445.6 466.9 444.1 472.1 C 443.8 473 442.2 476.8 443.1 477.8 C 443.6 478.4 444.7 478.4 445.5 478.6 C 445.5 478.6 445.9 481.2 446.2 481.5 C 447.8 483 448.1 485.8 449.9 487.5 C 452.5 489.9 456.9 489.8 460.6 490.2 C 463.6 490.5 466.6 491.5 469.6 491.8 C 476.3 492.4 483.7 490.4 489.6 487.5 C 489.9 487.4 489.7 482.6 489.7 481.9 C 489.7 478.7 490.8 477 493.1 474.5 C 495 472.6 497 470.7 499.1 469.1 C 502.4 466.5 505.1 467.1 505.9 462 C 506.8 454.9 503.9 449.1 498.3 444.5 C 496.1 442.7 493 442.3 490.9 440.4 C 486.7 436.9 485.5 431.4 482.4 427.1 C 482.3 426.9 478.9 426.4 478.6 426.3 C 475.2 425.5 471.3 425.3 468 424.1 C 462.8 422.3 454.8 411.4 454.3 411.3 C 452.8 410.3 450.9 409.5 450 407.9 C 449.8 407 444.7 403.5 442.8 401.6 C 440.9 399.9 437.8 398.5 436.7 395.9 C 435 391.8 434.1 387.6 432.2 383.5 C 429.7 378.2 426.1 374.2 422.8 369.3 C 420.3 365.7 418.8 361.5 416.2 357.9 C 414.2 354.9 412.5 351.7 409.8 349.2 C 409.1 348.5 407.7 346.3 406.4 346 C 401 344.7 398.5 353.7 398.1 355.7 C 395.9 365.2 400.1 381.4 401.4 384.4 C 403.5 389.7 404.4 405.2 405.2 407.8 C 410.5 425.8 436.3 425.3 442.1 435.7 C 443.4 438 444.8 440.4 445.5 442.8 Z"/>
  <path style="stroke: rgb(0, 0, 0); fill: rgb(163, 233, 181);" d="M 284.1 171 C 288.3 165.4 287.8 164.7 288.9 157.7 C 289.9 151.2 292.3 143.3 291.1 136.6 C 290 130 288.9 123.5 288.3 116.8 C 287.6 110.4 290.4 104 288.5 97.6 C 286.1 89.6 279.8 83.7 276 76.4 C 274.6 73.5 268.6 62.7 272.1 62.1 C 275.6 61.5 282.8 69.5 285.9 70.8 C 293.6 73.9 301.9 82.8 304.1 91.6 C 305.8 98.5 306.9 106.3 308 113.4 C 308.8 118.5 312.8 123.2 315.3 127.7 C 319.3 135.2 326.8 140.2 331.9 147 C 334 149.8 340.2 153.2 341 156.7 C 342.5 162.7 336.2 168.9 330.9 170.1 C 327.9 170.8 322.5 169.5 319.4 169.5 C 312.8 169.5 306.8 169.1 300.3 167.8 C 299.6 167.8 293.3 170.3 292.5 171.3 C 289.2 175.5 291.9 175.3 286.1 172.6"/>
  <path style="stroke: rgb(0, 0, 0); fill: rgb(163, 233, 182);" d="M 63.4 165.8 C 72.7 165.8 85.4 179.8 92.8 184.5 C 104.4 191.9 182.3 233.8 190 249.2 C 192.2 253.7 168.8 261.7 162 261.7 C 159.1 261.6 141.7 256.7 131.7 254.3 C 109.6 248.9 89 215.3 76.3 202.9 C 73.4 200 50.1 173.1 55.2 167.9 C 57.5 165.7 63.1 165.3 64 165.3"/>
  <path style="stroke: rgb(0, 0, 0); fill: rgb(155, 155, 155);" d="M 72.5 202.1 L 72.1 215.7 L 94.9 242.3 L 131.6 238.8 L 143.2 224 L 122.1 209.7 C 122.1 209.7 108.3 205.7 108.3 205.8 C 108.3 205.9 101.5 199.4 101.5 199.4 L 75.1 197.7 L 72.5 202.1 Z"/>
  <line style="fill: rgb(216, 216, 216); stroke: rgb(242, 142, 60);" x1="103.7" y1="225.8" x2="110.2" y2="231.4"/>
  <path style="stroke: rgb(0, 0, 0); fill: rgb(163, 233, 183);" d="M 45.3 140.9 C 44 140.2 37.5 134.6 39.8 132.1 C 40.9 131 45.1 129.5 46.8 131.1 C 50.1 134.6 51.5 139.9 54.4 143 C 57.3 145.9 49.8 152.1 47.5 150.9 C 42.2 148.1 47.6 139.6 42.5 139.6"/>
  <path style="stroke: rgb(0, 0, 0); fill: rgb(163, 233, 183);" d="M 65.5 142 C 66.7 143.9 68.1 145.6 69.6 147.4 C 70.7 148.7 71.5 150.4 72.8 151.5 C 73.9 152.6 75.5 153.4 77 154 C 79.6 155.2 79.4 150.5 78.6 149.1 C 78 148 77 147.2 76.1 146.5 C 74.9 145.5 73.7 144.5 72.4 143.8 C 71.1 143.2 69.5 143.1 68 142.8 C 67.3 142.5 66.7 142.3 66 142 C 66 142 65.1 141.4 65 141.4 C 65 141.5 66.2 142.2 65.4 142.2"/>
  <path style="stroke: rgb(0, 0, 0); fill: rgb(163, 233, 183);" d="M 53.8 128.4 C 52.2 129 49.7 128.4 48.2 128.4 C 46.8 128.4 45.6 128.4 44.4 128 C 43.3 127.7 42.2 127.6 41.2 127.2 C 40.5 126.9 40.1 125.8 39.8 125.1 C 39.7 124.5 39.2 123.9 39.2 123.3 C 38.7 120.4 41.4 119.6 42.4 117.5 C 43 116.2 43.3 114.9 43.6 113.5 C 44.4 109.3 42.7 104.8 44.5 100.7 C 45.2 99.1 47.6 99.7 48.6 100.5 C 50.1 101.5 50.8 102.9 51.7 104.4 C 52.7 106.2 54.1 107.5 54.8 109.6 C 55.8 112.3 57.1 114.8 57.6 117.7 C 57.8 119 57.9 120.6 57.7 121.7 C 57.5 122.6 56.9 123.6 56.5 124.5 C 55.9 125.7 54.4 126.4 53.8 127.6 C 53.6 127.9 53.8 128.5 53.8 128.9"/>
  <path style="stroke: rgb(0, 0, 0); fill: rgb(163, 233, 183);" d="M 92.8 163.2 C 91.1 161.4 90.9 159 92.4 158.5 C 97.2 156.9 102.4 157.4 107.4 157.4 C 109.9 158.6 105 164.8 103.4 165.5 C 98.1 168.1 94.6 164.3 92.8 163.2 Z"/>
  <path style="stroke: rgb(0, 0, 0); fill: rgb(163, 233, 183);" d="M 99 172.4 C 97.7 172.4 93.7 173.6 94.7 175.6 C 95.1 176.3 96.1 176.6 96.7 176.9 C 99.8 178.2 103.6 178.4 106.9 179.1 C 109.5 179.7 112.1 180.8 114.7 181.7 C 116.9 182.5 119.2 182.7 121.3 183.5 C 123 184.2 124.9 185.4 126.5 186.5 C 126.7 186.7 127.7 188.1 127.9 188.1 C 128 188.1 127.5 185.3 127.5 185.2 C 126.9 183.5 126.8 181.6 125.5 180.4 C 124.8 179.7 123.8 179.2 122.8 178.7 C 120.1 177 116.9 176.5 113.9 175.4 C 109.7 173.8 105.7 172.2 101.3 171.8 C 100.8 171.8 99.5 171.6 99 171.8 C 98.6 172 98.6 172.5 98 172.5"/>
  <path style="stroke: rgb(0, 0, 0); fill: rgb(163, 233, 183);" d="M 140.2 193.1 C 140 193.5 140.1 194 140 194.4 C 139.9 195.1 139.6 195.7 139.7 196.5 C 139.7 197 140.1 197.5 140.4 198 C 141.2 199.6 142.6 201.1 144.2 202 C 146.1 203.1 148.3 203.5 150.2 204.3 C 151.3 204.9 152.4 205.1 153.6 205.7 C 154.7 206.2 155.6 206.9 156.4 207.7 C 156.6 207.9 157.3 208.9 157.6 209 C 158.1 209.1 158.8 208.9 159.2 208.8 C 159.6 208.7 160.4 208.8 160.7 208.5 C 160.9 208.2 160.8 207.4 160.7 207.1 C 160.2 206 159.3 205.1 158.4 204.2 C 156.4 202.3 154.1 201.1 152 199.5 C 149.8 197.9 147.9 196.2 145.7 194.7 C 144.6 193.9 143.3 193.2 142 192.6 C 141.7 192.5 140.4 192.8 140.1 192.9 C 139.9 193 139.9 193.4 140.1 193.4"/>
  <path style="stroke: rgb(0, 0, 0); fill: rgb(163, 233, 182);" d="M 200.9 260.1 C 198.6 262.3 193.7 264.7 195.2 268.5 C 195.6 269.4 197 270.2 197.8 270.6 C 200.1 272 202.4 272.8 205.2 273 C 206 273 207.5 273.5 208.2 273 C 211.9 271.3 212.2 264.2 209 261.8 C 207 260.3 202.6 260.1 200.2 260.1"/>
  <path style="stroke: rgb(0, 0, 0); fill: rgb(163, 233, 182);" d="M 176.9 266.1 C 175.8 266.7 174.6 266.9 173.5 267.6 C 173 267.8 172.3 268.3 171.9 268.6 C 171.2 269.2 170.2 269.8 170 270.5 C 170 271.3 170.6 272 171 272.6 C 171.2 273 171.4 273.9 171.9 274.4 C 172.3 274.6 173 274.6 173.5 274.6 C 174.7 274.7 176.2 274.7 177.3 274.2 C 179.3 273.4 179.3 271.9 180.1 270.3 C 180.2 270 180.6 270 180.8 269.8 C 181.1 269.4 181.4 269 181.6 268.6 C 181.6 268.6 181.9 268.3 181.7 268.3 C 181.7 268.2 181.2 268.2 181.2 268.2 C 180.8 268.2 180.2 268.2 179.8 268.2 C 179.6 268.1 179.8 267.9 179.8 267.6 C 179.6 267.6 179.5 267.1 179.3 266.8 C 178.8 266.4 178.4 266.4 177.7 266.3 C 177.5 266.3 177.2 266 177.1 266 C 176.9 266.1 176.9 266.3 176.7 266.4"/>
  <path style="fill: rgb(216, 216, 216); stroke: rgb(0, 0, 0);" d="M 277.8 181.6 L 281.5 184.8 L 277.8 181.6 Z"/>
  <path style="fill: rgb(216, 216, 216); stroke: rgb(0, 0, 0);" d="M 280.1 178.7 L 285.3 181.4 C 285.3 181.4 280.2 178.3 280.1 178.7 Z"/>
  <path style="fill: rgb(216, 216, 216); stroke: rgb(0, 0, 0);" d="M 281.3 174.9 L 287.1 178.2"/>
  <path style="fill: rgb(216, 216, 216); stroke: rgb(0, 0, 0);" d="M 282.7 170.7 L 291 174.5"/>
  <path style="stroke: rgb(0, 0, 0); fill: rgb(163, 233, 182);" d="M 221.9 222.2 C 220.5 222.8 217.9 223.6 217.2 225 C 217 225.4 218.3 227.1 218.6 227.5 C 220.1 230.8 223.8 234 228.1 233.1 C 229.3 232.9 231.1 231.5 231.2 230.2 C 231.4 228.8 230.6 227 230.1 225.7 C 229.9 224.9 229.2 223.2 228.2 222.7 C 227.1 222.1 225.5 221.8 224.2 221.4 C 224.1 221.4 222.9 220.9 222.7 221 C 222.3 221.2 221.9 222.3 221.6 222.3"/>
  <path style="stroke: rgb(0, 0, 0); fill: rgb(163, 233, 182);" d="M 236.6 222.2 C 235.4 223.5 237.4 226.8 238.6 227.2 C 239.5 227.5 240.6 224.4 240.9 223.8 C 241.2 223.3 242 221.9 241.9 221.3 C 241.8 220.6 240.4 220.1 240 220 C 239.1 219.6 236.6 218.5 235.8 219.9 C 235.6 220.3 235.9 221.3 236.2 221.7 C 236.3 221.9 236.1 222.9 236.3 222.9"/>
  <path style="stroke: rgb(0, 0, 0); fill: rgb(163, 233, 182);" d="M 254.9 212.2 C 254.9 216 262.2 218.3 265.2 215.2 C 266.4 214 268.3 210.1 264.8 209.7 C 263.2 209.4 261.8 210.6 260.3 210.7 C 258.9 210.8 257.1 209.9 255.8 210.3 C 254.9 210.6 255.8 211.8 255.4 212.2 C 255.1 212.3 254.9 212.6 254.7 212.7"/>
  <path style="stroke: rgb(0, 0, 0); fill: rgb(163, 233, 182);" d="M 234.5 211.1 C 234.1 211.5 233 212.7 232.9 213.2 C 232.6 214.4 234.3 215 235.2 214.9 C 237.2 214.7 239.1 214.3 240.4 212.7 C 240.7 212.4 240.3 211.6 240.1 211.4 C 239.1 210.7 237.3 208.9 235.9 209.1 C 235.1 209.2 234.7 210 234.4 210.6 C 234.2 210.9 234.6 211.5 234.3 211.6"/>
  <path style="stroke: rgb(0, 0, 0); fill: rgb(163, 233, 182);" d="M 235.9 196.7 C 234.9 197.1 233.2 197.8 233 198.6 C 232.1 200.6 235.2 203.4 238.6 203.6 C 241.6 204 242.2 202.7 244.2 202 C 246.5 201.3 249.1 202.2 251.4 201.6 C 252.3 201.3 252.6 200.4 253.2 200.1 C 253.5 199.7 253.7 199.4 253.8 199 C 254 198.4 254.6 197.8 254.4 197.3 C 254 196.5 251.6 196.1 250.3 195.7 C 248.6 195.5 246.3 196.7 244.8 196.5 C 242.6 196.1 239.9 195.2 237.9 195.4 C 236.4 195.5 234.4 196.8 234.4 197.6"/>
  <path style="stroke: rgb(0, 0, 0); fill: rgb(163, 233, 182);" d="M 259.6 196.9 C 258.8 198 258 200.6 259.9 201.1 C 260.3 201.2 260.8 200.9 261.2 200.7 C 261.9 200.6 262.7 200.7 263.5 200.6 C 263.9 200.6 266.1 201.4 266.2 200.5 C 266.8 198.5 264.8 196.6 263.3 196 C 262.7 195.8 261.9 195.3 261.4 195.7 C 260.7 196 260.3 196.5 259.7 196.9 C 259.6 197 259.3 197.3 259.3 197.4"/>
  <path style="stroke: rgb(0, 0, 0); fill: rgb(163, 233, 182);" d="M 265.2 186 C 265.2 188.8 265 191 267.6 192.4 C 268.4 192.9 272.8 191.9 272.5 190.1 C 272.1 188.2 269 185.6 267.5 185.1 C 266.2 184.8 264.7 185.1 264.7 186.8"/>
  <ellipse style="stroke: rgb(0, 0, 0); fill: rgb(248, 250, 244);" cx="341.9" cy="193" rx="2.5" ry="2.5"/>
  <path style="stroke: rgb(0, 0, 0); fill: rgb(163, 233, 182);" d="M 386.3 346.4 C 390.3 341.4 398.2 338.8 399.9 332 C 402.8 320.9 400.1 311.4 403 300.5 C 404.1 296.3 411.6 288 410.8 284.5 C 410 281.2 410.3 274.6 408 271.9 C 402.2 265.5 396.6 258.7 394.5 250.6 C 392.7 243.4 402.1 238.4 399 230.7 C 394.1 218.1 385.4 222.7 376.9 217.1 C 368.4 211.6 363 203 356 196 C 353.1 193.3 338.4 197 334.5 197.4 C 327.9 197.9 318.6 190.2 312.4 193.4 C 303.9 197.6 301.5 208.5 294 214.2 C 281.5 223.7 269.2 229 257.9 240.2 C 249.2 249 229.9 240.6 226.6 253.9 C 225.6 257.5 227.1 263.3 227.1 266.8 C 227.1 269.6 225.1 274 225.1 275.7 C 224.9 277.3 225.2 280 224.2 281.5 C 222.7 283.5 220.2 284.8 219.5 287.3 C 218 293 224.6 298.2 227.9 302.4 C 229.3 304.2 230.3 306.5 231.9 308.5 C 233.9 311.3 237 314.5 238.4 317.6 C 239.6 320.1 239.5 323.5 239.7 326.2 C 239.9 327.7 241.5 331 239.6 331 C 241 335.7 246.8 337 251.2 337.7 C 252.4 337.8 253.3 339.5 254.5 339.3 C 257.7 338.7 260.2 337.4 263.8 338.2 C 269.9 339.6 277.9 343.2 282.7 347.1 C 284.8 348.7 290.3 352.6 290.3 355.5 C 290.2 355 290.7 356.4 290.9 356.8 C 291.5 357.5 292.2 358.4 292.6 359.2 C 294.1 361.5 297 363.8 299.3 365.3 C 306.6 369.9 317 371.4 325.4 369.9 C 341.9 367.2 348.9 363.9 365.3 361.2 C 364.1 365 373.4 370.1 375.7 365.5 C 378.3 360.3 382.6 350.3 386.3 346.4 Z"/>
  <path style="fill: none; stroke: rgb(0, 0, 0); stroke-width: 8px;" d="M 370.5 320.9 C 382.6 315.8 385 301.2 389.1 290.7 C 391.3 284.7 392.5 278.3 390.9 272.1 C 389.7 267.4 390.7 260.2 393.5 256.3 C 394.7 254.8 395.3 252.5 397.3 252.5"/>
  <path style="stroke: rgb(0, 0, 0); fill: rgb(223, 196, 46);" d="M 277.4 347.5 C 277.4 346 280.3 346.8 281.1 346.4 C 281.5 346.2 282.5 346.7 282.4 346.2 C 282.3 346.1 282 345.7 282.2 345.7 C 282.2 346.5 282.6 344.8 282.6 344.2 C 282.6 343 283 342 282.7 340.6 C 281.9 337.5 277.4 333.3 275.4 331.2 C 269 324.1 259.2 321.3 254.4 312.5 C 253.4 310.7 251.4 309.5 251 307.4 C 251.4 307.7 250.2 306.8 249.9 306.4 C 249.4 305.9 248.4 304.4 247.7 304.2 C 246.3 303.7 245.7 301.9 244.8 301 C 244 300.2 241.9 298.7 240.8 297.8 C 234.3 292.9 223.3 293.8 219.6 286.3 C 219.3 285.6 218.1 285.3 217.8 284.7 C 218.3 284.2 219.3 284 219.8 283.5 C 221.1 282.3 221.4 278.7 221.4 277.5 C 225.1 279.2 229.3 280.3 233.1 281.2 C 236.8 282.2 239 242.6 242.7 243.3 C 244.5 243.6 248.1 240.9 249.9 241.5 C 252 242.3 249.9 259.2 250.4 261.3 C 251.9 268 261.8 289.2 263 293.4 C 265.2 301.1 279.3 306.7 286.8 307.9 C 288.6 308.3 288 308.5 289.7 309 C 289.9 309.1 293.5 309.9 293.5 309.8 C 293.4 312 299.1 311.5 300.3 313.1 C 300.7 313.7 302.7 314.7 303.5 314.5 C 306.6 313.7 306.7 314.2 310 313.4 C 312.5 312.8 315 312.5 317.5 312.3 C 321.2 311.9 324.8 310.9 328.4 310.5 C 333.8 309.8 339.2 310 344.6 310.8 C 350.3 311.6 356 313.6 361.6 314.1 C 363.4 314.2 366.5 315.4 368.2 316 C 368.4 316.1 367.8 315.8 367.6 315.8 C 369.5 316.8 373 319.4 375.1 319.8 C 378.7 320.4 382.2 321 385.7 322 C 388.9 323 392.3 323.9 395.4 325.1 C 399 326.4 400.4 327.4 402.6 329.6 C 403.1 330.1 402.2 331.6 402.2 332.4 C 402.2 335.9 401.6 339.6 398 341.4 C 396.2 342.3 392.6 341 390.5 340.7 C 386.2 340.2 380.1 340.7 376.7 343.9 C 375.7 343.8 374.7 345.8 374 346.5 C 371.4 349.1 368.3 351 365.4 353.3 C 363.6 354.7 360.8 354.9 358.7 355.9 C 355.3 357.4 352.3 360 348.9 361.5 C 344.4 363.5 340.6 364 335.7 364 C 334.2 363.3 331 365 329.4 365.3 C 325.1 366 319.8 366.2 315.4 365.9 C 312.8 365.8 310.2 365.6 307.6 364.9 C 306.1 364.4 305 362.6 303.6 361.8 C 301.6 360.7 299.4 360.4 297.3 359.5 C 296.1 359.1 295.6 357.8 294.4 357.4 C 291.6 356.5 291.5 358.1 289.2 358 C 289 358 289.5 357.4 289.6 357.5 C 289.9 357.8 289.3 358.3 289.1 358.6 C 288.8 358.9 289.3 360.5 288.5 360.4 C 288.2 360.4 288.4 359 288.3 358.8 C 287.8 357.8 287.5 356.1 286.4 355.3 C 284.3 354 282 352.7 280.2 351.4 C 279.5 350.9 279.8 349.9 279.2 349.4 C 278.7 348.9 277.4 348.3 277.4 347.5 Z"/>
  <path style="stroke: rgb(0, 0, 0); fill: rgb(163, 233, 183);" d="M 426.3 222.7 C 424.2 223.8 422.2 224.5 420.2 225.6 C 416.1 227.7 419.6 234.4 422.1 235.7 C 423.2 236.3 426 232.9 426.7 232.3 C 430.6 229.3 434.5 233.2 437 227.9 C 438.5 224.8 431.8 218.8 429.6 218.1 C 425 216.5 426.8 223 425.5 223.5 C 425.4 223.6 424 223.5 424 223.6"/>
  <path style="stroke: rgb(0, 0, 0); fill: rgb(163, 233, 183);" d="M 433.1 196.7 C 437.3 204.4 441.8 211.5 450.6 204.6 C 453 202.8 452.8 198.9 455.3 196.9 C 463.9 190.1 475.8 180.4 467.9 168.2 C 466.1 165.5 462.1 165.4 460.2 168.1 C 455.9 173.9 449.5 176 445.2 181.9 C 439.4 189.7 433.9 180.8 427.4 187.5 C 426.5 188.3 426.2 189.7 426.3 190.8 C 426.6 191.8 427.8 192.6 428.5 193.3 C 430 195 433.1 200.9 435.7 200.9"/>
  <path style="stroke: rgb(0, 0, 0); fill: rgb(163, 233, 183);" d="M 449.2 444.6 C 449.2 446.3 448.5 449.7 449.2 451.4 C 449.9 453.1 451.9 455.1 451.5 457.1 C 450.9 461.8 449.3 465.2 447.9 469.7 C 447.5 470.5 446.3 473.7 447 474.6 C 447.5 475.1 448.5 475.1 449.2 475.3 C 449.2 475.3 449.6 477.5 449.9 477.8 C 451.3 479.1 451.5 481.5 453.2 482.9 C 455.5 485 459.5 484.9 462.9 485.2 C 465.7 485.5 468.3 486.3 471.1 486.6 C 477.2 487.1 484 485.4 489.3 482.9 C 489.6 482.8 489.4 478.8 489.4 478.1 C 489.4 475.4 490.4 473.9 492.5 471.8 C 494.1 470.2 496 468.5 497.9 467.2 C 501 465 503.4 465.4 504.1 461.1 C 504.8 455 502.3 450 497.3 446.1 C 495.1 444.6 492.4 444.2 490.5 442.5 C 486.7 439.5 485.6 434.8 482.8 431.1 C 482.7 430.9 479.5 430.5 479.3 430.5 C 476.2 429.8 472.7 429.6 469.6 428.6 C 465 427.1 457.7 417.7 457.3 417.6 C 455.5 417.2 455.3 415.7 453.3 414.7 C 453.1 413.9 448.5 410.9 446.7 409.3 C 445.1 407.8 442.3 406.7 441.3 404.4 C 439.7 400.9 434.7 399.3 433 395.7 C 430.7 391.2 431.7 385.8 428.5 381.6 C 426.3 378.6 425 374.9 422.6 371.8 C 420.7 369.3 419.2 366.5 416.8 364.3 C 415.8 360.1 407.8 352.4 405.7 352.6 C 398.5 353.4 399.4 363.3 402.8 371.8 C 405.8 379.3 406.8 394.1 408.3 397.3 C 412.1 405.5 405.9 410.9 415.4 417.6 C 424.8 422.7 442.8 427.5 446.1 438.6 C 446.7 440.7 448.6 442.5 449.2 444.6 Z"/>
  <path style="stroke: rgb(0, 0, 0); fill: rgb(163, 233, 183);" d="M 226.4 343.4 C 231.6 349.6 237.4 354.7 243.2 360.4 C 245.1 362.2 249 365.2 248.2 368.2 C 246.9 373.1 240.4 375.4 236.9 378 C 227.1 385.1 219.6 394.9 209.9 401.9 C 207.9 403.4 197.8 406.9 195.8 404.9 C 194.8 404 193.7 402.6 192.6 401.5 C 184.5 393.6 197.5 390.5 199.5 382.2 C 200.9 376.1 195.5 369.6 196.9 364.2 C 198.7 357.1 205.2 353.9 209.5 348.2 C 210.8 346.4 213.8 342.7 215.9 341.9 C 220 340.6 222.5 343.6 226.4 343.6"/>
  <path style="stroke: rgb(0, 0, 0); fill: rgb(164, 233, 183);" d="M 169.6 418.7 C 163.5 423.2 156 421.6 149.1 423.2 C 146.7 423.8 140.8 423.3 138.9 425 C 135.8 428 132.2 431.2 130.2 435.1 C 127 441.3 125.3 444.5 129.8 451 C 132.4 454.8 140.3 449.3 142.9 448 C 146.4 446.2 153.4 447.7 157.2 448.6 C 160.5 449.3 163.7 446.6 166.3 445.2 C 167.8 444.4 170.6 442.2 171.3 440.5 C 173 436.2 169.7 432.3 170.7 428 C 171.6 424.8 173.5 421.8 172.6 418.3 C 171.8 415.1 166 417.8 166 420.4"/>
  <path style="stroke: rgb(0, 0, 0); fill: rgb(164, 233, 183);" d="M 106.3 458.5 C 105.1 463.5 109.4 466.8 112.8 469.2 C 114.2 470.2 115 472.1 116.6 473.2 C 118.1 474.4 121.1 475.5 120.3 478.1 C 119.5 481.4 111.8 482.4 109.5 483.6 C 105.2 486 102.3 490.7 98 492.9 C 96.7 493.5 94.8 495 93.1 494.5 C 88.2 493.4 90.9 488 89.6 485.2 C 88.6 483.4 86.2 484.4 84.9 482.9 C 83.4 481 80 479 78.6 476.8 C 77.9 475.8 77.8 473.9 78.8 473.2 C 80.9 471.9 85.1 474 87 474.4 C 88.6 474.7 90 476.2 91.6 476.5 C 94.3 477.2 99.7 472.6 102.2 471.6 C 103.4 471 102.7 463.3 102.6 462.8 C 102.3 461.7 105.7 458.3 106.2 458.6"/>
  <path style="stroke: rgb(0, 0, 0); fill: rgb(164, 233, 183);" d="M 71.6 482.7 C 67.1 481.8 63 483 59.2 485.8 C 56.7 487.7 55.5 492.2 54.7 495.3 C 54.2 497.4 52.1 499 51.5 501.2 C 49.9 507.6 37.2 514.2 44.8 521.9 C 45.7 522.8 46.7 524 47.7 524.8 C 49.3 525.9 51 527.1 52.9 527.6 C 58.3 529 65.5 521.6 68.8 518.2 C 72.3 514.7 78.1 514.5 80.5 509.8 C 82.6 506 83.6 501.5 84.1 497.2 C 84.2 496.2 85 494.5 84.8 493.5 C 83.2 487.1 73.9 482 68.2 482"/>
  <path style="stroke: rgb(0, 0, 0); fill: rgb(163, 233, 183);" d="M 160.8 487.7 C 155.9 487.7 154.6 491.9 152.8 495.2 C 151.2 498.1 149.7 500.6 148 503.5 C 147.5 504.4 146.3 505.6 146.5 506.7 C 147 508.2 148.4 509.4 149.7 510.5 C 150.3 510.9 150.7 511.8 151.5 512.1 C 158.5 515.6 164.2 508 169.5 504.6 C 170.8 503.9 173.2 500.1 174.5 499.5 C 175.2 499.1 181.7 500.3 182.2 500.8 C 183.6 502.1 184.9 506.7 187.1 507.3 C 193.4 509.3 194.2 509.5 201.2 507.4 C 206.5 505.8 211.9 503.4 213.1 497.7 C 213.5 496.2 213 494.4 212.7 493 C 211.4 485.9 207.5 483.5 199.6 484.2 C 195.1 484.5 190.6 484.1 185.9 484.5 C 182.8 484.7 179.9 486.4 176.7 486.6 C 173 487 170.2 486.3 166.7 485.4 C 165.1 485.1 164 486.5 162.8 487.2 C 160.5 488.4 155.5 487.2 155.5 490.3"/>
  <path style="stroke: rgb(0, 0, 0); fill: rgb(164, 233, 183);" d="M 241 483.5 C 242.3 486.2 245.6 487.4 248.2 488.5 C 255.3 491.7 267.8 491.4 275.4 488.9 C 277.8 487.9 280.1 486.4 282.5 485.4 C 283.7 485.2 284.9 484.9 286.1 484.6 C 289.5 483.9 293.4 482.7 295.1 480.1 C 295.6 479.3 296.6 478.5 296.4 477.6 C 294.8 472.4 285.1 472.1 280.6 471.3 C 277.5 470.7 274.5 469.4 271.2 469.7 C 268.8 469.9 267 471.1 264.8 471.7 C 259.8 473.3 254.6 474.3 250.2 476.6 C 248.5 477.5 247.6 479.1 245.8 479.7 C 244.6 480.1 241.7 480.3 240.8 481.4 C 238.3 484.6 241.6 487.8 246.1 487.8"/>
  <path style="stroke: rgb(0, 0, 0); fill: rgb(163, 233, 183);" d="M 349.6 453.6 C 345.6 455.1 342.7 456.2 340.6 459.7 C 339.5 461.3 337.8 461.6 337 463.6 C 335.5 468.3 341.1 476 347 475.1 C 347.9 474.9 348.7 473.8 349.6 473.5 C 351.3 472.7 353.3 471.8 355.3 471.4 C 358.2 470.7 362.1 474.1 364.9 472.8 C 365.8 472.3 367.2 471.5 368.1 470.9 C 372.1 468.2 371.3 463 370.6 459.4 C 370.3 458.3 370.2 456.7 369.1 456 C 366.6 454.2 362.5 458.4 360.1 457.7 C 357.2 456.8 354.2 456.4 351.3 455.7 C 350.1 455.5 348.4 453.7 347.4 453.7"/>
  <path style="stroke: rgb(0, 0, 0); fill: rgb(163, 233, 183);" d="M 408.7 467.2 C 408.7 467 408.1 464.8 407.5 465.5 C 405.9 467 407.3 471.7 408.7 473.2 C 409.6 474.2 411.2 474.2 412.6 474.2 C 413.1 474.2 415.3 474.5 415.7 473.9 C 417.2 471.4 415.6 463 411.5 464.3 C 410.1 464.8 408.8 467.7 407.9 467.7"/>
  <path d="M 279.4 -283.1 Q 287.1 -286.3 294.8 -283.1 L 317.9 -273.6 Q 325.6 -270.5 328.8 -262.8 L 338.3 -239.9 Q 341.5 -232.3 338.3 -224.7 L 328.8 -201.8 Q 325.6 -194.1 317.9 -191 L 294.8 -181.5 Q 287.1 -178.3 279.4 -181.5 L 256.3 -191 Q 248.6 -194.1 245.4 -201.8 L 235.9 -224.7 Q 232.7 -232.3 235.9 -239.9 L 245.4 -262.8 Q 248.6 -270.5 256.3 -273.6 Z" style="stroke: rgb(0, 0, 0); fill: rgb(245, 247, 244);" transform="matrix(0.932032, 0.362376, 0.369875, -0.929116, 149.646744, -56.08752)" bx:shape="n-gon 287.1 -232.3 54.4 54 8 0.2 1@7bfdcc0b"/>
  <path style="fill: rgb(216, 216, 216); stroke: rgb(0, 0, 0);" d="M 316.8 302.5 L 311.8 312.2 L 316.8 302.5 Z"/>
  <path style="fill: rgb(216, 216, 216); stroke: rgb(0, 0, 0);" d="M 348.1 302.1 L 353.3 311.5 L 348.1 302.1 Z"/>
  <path style="fill: rgb(216, 216, 216); stroke: rgb(0, 0, 0);" d="M 314.5 308.4 L 351.6 308.4 L 314 308.4 L 314.5 308.4 Z"/>
  <path style="fill: rgb(216, 216, 216); stroke: rgb(0, 0, 0);" d="M 315.7 305.5 L 350.3 305.5 L 315.7 305.5 Z"/>
  <path style="fill: rgb(216, 216, 216); stroke: rgb(0, 0, 0);" d="M 313.1 310.7 L 352.7 310.7 L 312.4 310.7"/>
  <ellipse style="stroke: rgb(0, 0, 0); fill: rgb(248, 250, 244);" cx="341.7" cy="207.9" rx="2.4" ry="2.4"/>
  <ellipse style="stroke: rgb(0, 0, 0); fill: rgb(248, 250, 244);" cx="318.6" cy="192.5" rx="2.5" ry="2.5"/>
  <ellipse style="stroke: rgb(0, 0, 0); fill: rgb(248, 250, 244);" cx="318.4" cy="207.4" rx="2.4" ry="2.4"/>
  <rect x="318.6" y="181.8" width="23.1" height="47.2" rx="6" ry="6" style="stroke: rgb(0, 0, 0); fill: rgb(247, 249, 244);"/>
  <path style="stroke: rgb(0, 0, 0); fill: rgb(247, 249, 244); stroke-width: 0.5px;" d="M 325.3 183.3 H 335.2 A 5 5 0 0 1 340.2 188.3 V 225.8 A 6 6 0 0 1 334.2 231.8 H 326.3 A 6 6 0 0 1 320.3 225.8 V 188.3 A 5 5 0 0 1 325.3 183.3 Z" bx:shape="rect 320.3 183.3 19.9 48.5 5 5 6 6 1@31ae31b9"/>
  <path d="M 281 -272.6 Q 287.1 -275.1 293.2 -272.6 L 311.5 -265.1 Q 317.6 -262.6 320.1 -256.5 L 327.7 -238.4 Q 330.2 -232.3 327.7 -226.2 L 320.1 -208.1 Q 317.6 -202 311.5 -199.5 L 293.2 -192 Q 287.1 -189.5 281 -192 L 262.7 -199.5 Q 256.6 -202 254.1 -208.1 L 246.5 -226.2 Q 244 -232.3 246.5 -238.4 L 254.1 -256.5 Q 256.6 -262.6 262.7 -265.1 Z" style="stroke: rgb(0, 0, 0); fill: rgb(245, 247, 244);" transform="matrix(0.932032, 0.362376, 0.369875, -0.929116, 149.549118, -56.072162)" bx:shape="n-gon 287.1 -232.3 43.1 42.8 8 0.2 1@097a641a"/>
  <path style="stroke: rgb(0, 0, 0); fill: rgb(223, 197, 66);" d="M 239 351.6 C 235.8 354.6 231.9 355.6 228.6 359 C 225.8 361.7 222.8 364.6 220.5 367.7 C 218.3 370.7 217.2 374.6 214.9 377.6 C 213.1 379.8 206.9 384.1 206.4 384.6 C 204.3 387.3 202.2 390 200.1 392.7 C 197.8 395.6 194.2 398.5 191.4 401 C 190.9 401.5 187.5 403.2 187.6 403.3 C 188.3 404.1 190.9 408 192.4 407.6 C 194.8 407 197.3 404.2 199.1 402.8 C 203.6 399.4 216 388.3 218.5 385.8 C 218.7 385.5 224.5 382.8 224.9 382.2 C 226.5 378.9 228.1 373.9 231.2 371.7 C 233.7 369.9 237.2 365.1 240.3 364.3 C 241.2 364.1 248.8 363.5 248.8 362.6 C 248.7 359.8 245.1 358.5 242 354.8 C 241 354.1 239.6 351.6 238.1 352.3 C 237.3 352.7 236.4 354.2 235.6 355"/>
  <path style="stroke: rgb(0, 0, 0); fill: url(#color-0);" d="M 174.5 426.1 C 174.5 427.9 176.4 432.4 175.2 433.6 C 172.3 436.4 169.6 437.4 165.6 438.4 C 164.6 438.7 163.9 439.9 163 440.2 C 158.7 441.9 154.4 443.4 150.2 445.1 C 147.2 446.2 143.3 445.7 140.3 446.5 C 137 447.3 133 450.6 130.1 452 C 129.5 452.3 127.6 453.9 127.4 453.9 C 127.3 454.6 126.9 452.4 126.7 452.3 C 126.3 451.9 124.5 448.7 125.5 447.7 C 126.7 446.4 128.4 444.5 130.6 443.7 C 135.2 442.1 140.6 443.5 145.4 441.1 C 148.5 439.5 150.3 436.4 153.3 434.7 C 157.6 432.2 162.6 431.6 167.1 429.4 C 169.9 428 171.6 426.1 174.5 426.1 Z"/>
  <path style="stroke: rgb(0, 0, 0); fill: url(#color-0);" d="M 78.8 479.5 C 85.2 482.4 91.6 480.1 97.9 478 C 100.5 477.1 102.5 474.3 104.7 473.2 C 106.8 472.1 108.9 469.7 110.3 468.3 C 110.9 467.6 110.8 466 111.7 466 C 112.3 466 115.8 469.3 115.4 469.7 C 113.7 471.3 113.2 473.4 112.1 475.5 C 111.8 476.2 112.3 479.8 112.7 480.2 C 113.2 480.8 114.8 481.2 114.3 481.7 C 113.2 482.8 109.7 484.4 108.5 483.1 C 107.9 482.6 105.9 478.3 105.6 478.5 C 104.1 479.2 102.6 479.5 101.4 480.7 C 100.4 481.7 99.6 483.2 98.2 483.7 C 96.4 484.3 94 485.1 92.2 485.9 C 90.9 486.6 88.9 485 87.6 485 C 85.9 485.1 82.9 484.1 81.8 483 C 81.3 482.5 79.8 479.4 78.8 479.5 Z"/>
  <ellipse style="fill: rgb(216, 216, 216); stroke: rgb(0, 0, 0);" cx="52.6" cy="518.6" rx="10.3" ry="10.3"/>
  <path d="M 52.5 508.7 H 55.2 L 55.2 508.7 L 56.2 509.2 L 55.2 509.7 L 55.2 509.7 H 52.5 V 508.7 Z" style="fill: rgb(216, 216, 216); stroke: rgb(0, 0, 0);" transform="matrix(0.101061, 0.99488, -0.99488, 0.101061, 553.843811, 405.508789)" bx:shape="arrow 52.5 508.7 3.7 1 1 1 0 1@882aa19d"/>
  <path d="M 58.1 510 H 61.3 L 61.3 510 L 62.3 510.5 L 61.3 511 L 61.3 511 H 58.1 V 510 Z" style="fill: rgb(216, 216, 216); stroke: rgb(0, 0, 0);" transform="matrix(-0.664561, 0.747234, -0.747234, -0.664561, 478.134918, 806.383362)" bx:shape="arrow 58.1 510 4.2 1 1 1 0 1@a8f21d86"/>
  <path d="M 60.6 512.9 H 64 L 64 512.9 L 65 513.4 L 64 513.9 L 64 513.9 H 60.6 V 512.9 Z" style="fill: rgb(216, 216, 216); stroke: rgb(0, 0, 0);" transform="matrix(-0.889363, 0.457202, -0.457202, -0.889363, 349.181763, 942.311035)" bx:shape="arrow 60.6 512.9 4.4 1 1 1 0 1@6d9a2782"/>
  <path d="M 61.7 517.8 H 65.9 L 65.9 517.8 L 66.9 518.3 L 65.9 518.8 L 65.9 518.8 H 61.7 V 517.8 Z" style="fill: rgb(216, 216, 216); stroke: rgb(0, 0, 0);" transform="matrix(-0.961286, -0.275554, 0.275554, -0.961286, -21.909414, 1033.578125)" bx:shape="arrow 61.7 517.8 5.2 1 1 1 0 1@2221fa1b"/>
  <path d="M 59.9 524.4 H 66.1 L 66.1 524.4 L 67.1 524.9 L 66.1 525.4 L 66.1 525.4 H 59.9 V 524.4 Z" style="fill: rgb(216, 216, 216); stroke: rgb(0, 0, 0);" transform="matrix(-0.608349, -0.79367, 0.79367, -0.608349, -320.269196, 891.829895)" bx:shape="arrow 59.9 524.4 7.2 1 1 1 0 1@f7eaedba"/>
  <path d="M 46.9 510.4 H 50.8 L 50.8 510.4 L 51.8 510.9 L 50.8 511.4 L 50.8 511.4 H 46.9 V 510.4 Z" style="fill: rgb(216, 216, 216); stroke: rgb(0, 0, 0);" transform="matrix(0.842182, 0.539193, -0.539193, 0.842182, 282.865112, 55.322315)" bx:shape="arrow 46.9 510.4 4.9 1 1 1 0 1@b7e1774b"/>
  <path d="M 43.6 514.2 H 47.4 L 47.4 514.2 L 48.4 514.7 L 47.4 515.2 L 47.4 515.2 H 43.6 V 514.2 Z" style="fill: rgb(216, 216, 216); stroke: rgb(0, 0, 0);" transform="matrix(0.996238, 0.086654, -0.086654, 0.996238, 44.764553, -1.841598)" bx:shape="arrow 43.6 514.2 4.8 1 1 1 0 1@7e2de0ba"/>
  <path style="fill: rgb(216, 216, 216); stroke: rgb(0, 0, 0);" d="M 46.2 511 C 46.2 511 59.9 526.2 60 526.6 C 60.1 527 46.3 533.1 42.9 521.6 C 40.9 514.8 45.6 510.7 46.2 511 Z"/>
  <ellipse style="stroke: rgb(0, 0, 0);" cx="65.6" cy="517.3" rx="0.8" ry="0.8"/>
  <ellipse style="stroke: rgb(0, 0, 0);" cx="64" cy="511.9" rx="0.5" ry="0.5"/>
  <ellipse style="stroke: rgb(0, 0, 0);" cx="67.5" cy="513.4" rx="0.6" ry="0.6"/>
  <ellipse style="stroke: rgb(0, 0, 0);" cx="68.8" cy="508.2" rx="0.4" ry="0.4"/>
  <ellipse style="stroke: rgb(0, 0, 0);" cx="69.4" cy="500.6" rx="0.6" ry="0.6"/>
  <ellipse style="stroke: rgb(0, 0, 0);" cx="66.7" cy="504.8" rx="0.3" ry="0.3"/>
  <ellipse style="stroke: rgb(0, 0, 0);" cx="71.9" cy="493" rx="0.6" ry="0.6"/>
  <ellipse style="stroke: rgb(0, 0, 0);" cx="71.4" cy="495.9" rx="0.3" ry="0.3"/>
  <ellipse style="stroke: rgb(0, 0, 0);" cx="73" cy="485.8" rx="0.7" ry="0.7"/>
  <ellipse style="stroke: rgb(0, 0, 0);" cx="73" cy="488.4" rx="0.2" ry="0.2"/>
  <ellipse style="stroke: rgb(0, 0, 0);" cx="75.3" cy="487.1" rx="0.5" ry="0.5"/>
  <path d="M 60.8 497.9 C 60.7 497.9 60.6 497.9 60.6 497.9 C 60.6 499.2 59.8 500.2 58.9 500.2 C 57.8 500.2 57 499.1 57 497.8 C 57 496.9 57.4 496.1 57.9 495.7 C 57.6 495.4 57.4 494.9 57.4 494.2 C 57.4 493.6 57.6 492.9 57.9 492.7 C 57.8 492.2 57.7 491.6 57.7 491 C 57.7 488.9 58.8 487.3 60.1 487.3 C 60.3 487.3 60.6 487.3 60.8 487.4 C 61.1 487 61.6 486.6 62.1 486.6 C 62.4 486 62.8 485.8 63.3 485.8 C 64.3 485.8 65.1 487 65.1 488.5 C 65.1 489.2 64.9 489.7 64.7 490.2 C 64.8 490.4 64.9 490.6 64.9 491 C 64.9 491.7 64.6 492.5 64.2 492.7 C 64.2 493.2 64.4 493.7 64.4 494.2 C 64.4 495.4 63.9 496.3 63.2 496.3 C 63.1 496.3 62.9 496.3 62.8 496.2 C 62.4 497.2 61.7 497.9 60.8 497.9 Z" style="stroke: rgb(0, 0, 0); fill: rgb(221, 137, 227);"/>
  <path d="M 57.6 506 C 57.5 506 57.5 506 57.5 506 C 57.5 507.3 56.8 508.3 56 508.3 C 55 508.3 54.3 507.2 54.3 505.9 C 54.3 504.9 54.7 504.1 55.1 503.7 C 54.8 503.4 54.7 502.9 54.7 502.2 C 54.7 501.6 54.8 500.9 55.1 500.7 C 55 500.2 54.9 499.6 54.9 499 C 54.9 496.8 55.9 495.2 57 495.2 C 57.2 495.2 57.5 495.2 57.6 495.3 C 57.9 494.9 58.3 494.5 58.8 494.5 C 59 493.9 59.4 493.7 59.8 493.7 C 60.7 493.7 61.4 494.9 61.4 496.4 C 61.4 497.1 61.2 497.7 61.1 498.2 C 61.1 498.4 61.2 498.6 61.2 499 C 61.2 499.7 61 500.5 60.6 500.7 C 60.6 501.2 60.8 501.7 60.8 502.2 C 60.8 503.4 60.4 504.3 59.7 504.3 C 59.7 504.3 59.5 504.3 59.4 504.2 C 59 505.3 58.4 506 57.6 506 Z" style="stroke: rgb(0, 0, 0); fill: rgb(221, 137, 227);" transform="matrix(0.868234, 0.496156, -0.496156, 0.868234, 256.827569, 37.857045)" bx:origin="0.4 0.6"/>
  <ellipse style="fill: rgb(31, 199, 225); stroke: rgb(165, 165, 165);" cx="77.6" cy="501.4" rx="3.7" ry="8.3" transform="matrix(0.964779, 0.263062, -0.263062, 0.964779, 134.419582, -2.374266)"/>
  <rect x="322.3" y="354" width="18" height="14.2" rx="5" ry="5" style="fill: rgb(216, 216, 216); stroke: rgb(0, 0, 0);"/>
  <path style="fill: rgb(216, 216, 216); stroke: rgb(0, 0, 0);" d="M 328.7 361.5 C 328.6 361.4 328.5 361.1 328.5 360.9 C 328.4 360.7 328.2 360.6 328.2 360.3 C 328.2 358.4 330.1 359.3 330.1 360.5"/>
  <path style="fill: rgb(216, 216, 216); stroke: rgb(0, 0, 0);" d="M 331.8 360.2 C 332.7 358.3 333.4 358.2 333.9 359.9 C 334.1 360.4 333.4 360.8 333.4 361.2"/>
  <path style="fill: rgb(216, 216, 216); stroke: rgb(0, 0, 0);" d="M 333.8 362.8 L 339.7 361.2 L 333.8 362.8 Z"/>
  <path style="fill: rgb(216, 216, 216); stroke: rgb(0, 0, 0);" d="M 328.3 363.2 L 323.8 362"/>
  <path style="fill: rgb(216, 216, 216); stroke: rgb(0, 0, 0);" transform="matrix(0.707107, -0.707107, 0.707107, 0.707107, -2.802948, 338.697388)" d="M 217.9 250.7 H 219.3 A 2 2 0 0 1 221.3 252.7 V 254.1 A 2 2 0 0 1 219.3 256.1 H 215.9 V 252.7 A 2 2 0 0 1 217.9 250.7 Z" bx:shape="rect 215.9 250.7 5.4 5.4 2 2 2 0 1@55647052"/>
  <path style="fill: none; stroke: rgb(142, 107, 3); stroke-linecap: round;" d="M 343 366.2 L 334.6 351.3"/>
  <path style="fill: none; stroke: rgb(142, 107, 3);" d="M 336.2 354.3 C 336.1 355.5 338.4 357.1 339 358.3 C 339.8 359.7 338.3 361.1 340.9 361.8 C 342 362 341.7 363.8 341.5 364.5 C 341.4 364.7 341.3 365.7 341.6 365.7"/>
  <path style="stroke: rgb(0, 0, 0); stroke-width: 0.25px; fill: none;" d="M 335.8 353.4 C 335.5 354.6 337.1 355.2 337.8 356.2 C 338.2 356.6 337.6 357.3 337.8 357.9 C 338.2 358.3 339.1 358.9 339.2 359.4 C 339.6 360.2 339.2 360.7 339.9 361.3 C 340.4 361.8 340.9 361.8 341.3 362.2 C 341.7 362.6 342.2 363.4 341.6 363.9 C 341.5 364.2 341.5 364.3 341.5 364.5 C 341.4 364.6 341.4 364.8 341.4 364.8 C 341.4 364.6 341.5 364.4 341.6 364.4 C 341.9 364.5 342.3 365.2 342.5 365.2"/>
  <ellipse style="fill: rgb(255, 255, 255); stroke: rgb(255, 255, 255);" cx="330.4" cy="349.9" rx="2" ry="2"/>
  <ellipse style="fill: rgb(216, 216, 216); stroke: rgb(255, 255, 255); stroke-linejoin: round; stroke-linecap: square;" cx="325.9" cy="344.3" rx="0.2" ry="0.2"/>
  <ellipse style="fill: rgb(216, 216, 216); stroke: rgb(255, 255, 255); stroke-linejoin: round; stroke-linecap: square;" cx="326.3" cy="349.6" rx="0.5" ry="0.5"/>
  <ellipse style="fill: rgb(216, 216, 216); stroke: rgb(255, 255, 255); stroke-linejoin: round; stroke-linecap: square;" cx="331.8" cy="344.4" rx="0.4" ry="0.4"/>
  <ellipse style="fill: rgb(216, 216, 216); stroke: rgb(255, 255, 255); stroke-linejoin: round; stroke-linecap: square;" cx="335.2" cy="347.8" rx="0.4" ry="0.4"/>
  <ellipse style="fill: rgb(216, 216, 216); stroke: rgb(255, 255, 255); stroke-linejoin: round; stroke-linecap: square;" cx="326" cy="353.3" rx="0.3" ry="0.3"/>
  <ellipse style="fill: rgb(216, 216, 216); stroke: rgb(255, 255, 255); stroke-linejoin: round; stroke-linecap: square;" cx="338.1" cy="351" rx="0.3" ry="0.3"/>
  <ellipse style="fill: rgb(216, 216, 216); stroke: rgb(255, 255, 255); stroke-linejoin: round; stroke-linecap: square;" cx="330.9" cy="353.1" rx="0.2" ry="0.2"/>
  <path style="stroke: rgb(0, 0, 0); fill: url(#color-0);" d="M 150.1 494.5 C 149.9 494.8 147.8 500.2 147.1 500.2 C 146.8 501.4 152.2 500.6 153.4 500.8 C 158.4 501.6 162.8 500.4 167.4 499.6 C 169.3 499.2 171.5 499.4 173.3 498.5 C 174 498.1 175.4 498.5 176.3 498.4 C 179.1 497.9 181.9 497.8 184.7 497.6 C 192.3 496.8 200.5 497.5 208 496 C 209.9 495.5 211.9 496.1 213.8 496.6 C 214.1 496.7 215.7 497.2 216 496.9 C 217.1 495.8 215.2 490.6 215.2 489.8 C 209.6 488.9 202.3 489.4 196.8 490.5 C 194.5 491 191 489.9 188.5 489.9 C 182.3 489.9 176 490.7 169.9 490.7 C 165.4 490.7 161 491.4 156.5 492.2 C 153.7 492.7 149.4 494.5 150.1 494.5 Z"/>
  <path style="stroke: rgb(0, 0, 0); fill: url(#color-0);" d="M 294.5 472 C 294.5 471.4 293.8 472.9 293.4 473.2 C 292.2 474 290.9 474.7 289.7 475.4 C 286.3 477.5 282.7 478.1 279.5 480.5 C 275.2 483.7 270.1 486.5 265.2 488.2 C 263.4 488.8 261.2 488.5 259.4 489.1 C 256.1 490.1 252.5 492 249 492 C 250.6 492.4 245.7 491.3 245.1 490.9 C 243 489.9 242.1 488.2 239.5 488.2 C 242.4 487.9 245.8 488.6 248.6 488 C 251.7 487.4 254.6 486.2 257.7 485.4 C 259.1 484.9 261.3 484.9 262.5 484.3 C 265.2 482.9 267.6 480.3 270.2 479.3 C 272.3 478.5 275.4 478.3 277.2 477.3 C 277.7 477 278.8 474.9 279.4 474.3 C 280.7 472.9 282.7 472.6 284.4 472.2 C 286.5 471.7 287.5 470.1 289.9 470.1 C 289.5 470.4 293.2 471.9 294.5 472 Z"/>
  <path style="stroke: rgb(0, 0, 0); fill: url(#color-0);" d="M 334.8 462.7 C 344.4 461.8 355 461.4 364.2 463.7 C 367.6 464.6 371.1 463 374.5 463 C 375 464.3 375.8 467.7 375.1 469.1 C 374.9 469.5 373.7 470.1 373.7 470.4 C 364 469.3 353.1 472.5 343.8 470.1 C 341.7 469.6 338.6 469.5 336.7 468.6 C 336.5 468.5 335 468.7 334.9 468.6 C 334.3 467.3 334.8 463.9 334.8 462.7 Z"/>
  <path style="stroke: rgb(0, 0, 0); fill: url(#color-0);" d="M 190.5 256.6 C 187.8 255.1 185.1 251.4 182.1 250.5 C 174.6 248.2 169 241.8 162.1 237.8 C 151.1 231.4 141.4 222.2 130.5 215.9 C 124.6 212.5 119 212.2 113 209.8 C 109.4 208.3 107.1 204.9 104.1 202.8 C 102.8 201.9 97.1 202.8 95.6 202.8 C 89.2 202.8 81.9 203 76 201.1 C 73.6 200.4 73.2 196.3 73.2 194.3 C 73.2 190.9 74 187.2 75.8 184.3 C 77.7 181.4 81.2 180.6 78.8 176.5 C 75.2 170.3 67.7 168 61.4 165.5 C 59.3 164.7 58.1 162.8 56.7 161.3 C 56.3 160.9 54.9 158.6 55.3 159.2 C 56.3 158.7 61 158.5 61 159.5 C 65.1 160.1 69.7 165.3 73.3 167.1 C 76.8 168.9 80 173.3 84.3 174.6 C 86.4 175.3 91.6 178.2 92.6 180.2 C 93.3 181.7 93.2 183.5 94 185.2 C 95.3 187.9 99.3 189.6 101.3 191.7 C 104.3 194.6 109.1 195.1 112.5 197.3 C 117.6 200.6 122.5 204.6 127.6 208.3 C 129.8 210 134.8 210.1 137.6 211.8 C 144.6 216.3 149.2 223.9 156 228.4 C 158.5 230 162.3 231.6 165 233 C 172 236.5 178 242.5 184.4 246.6 C 186.8 248.2 189.3 247.9 191.7 249.1 C 193 249.7 193.8 251.7 194.9 252.7 C 194.4 253.4 190.5 256.5 190.5 256.6 Z"/>
  <path style="fill: rgb(216, 216, 216); stroke: rgb(242, 142, 60);" d="M 98.5 220.6 C 99 220.4 87.1 218.5 86.6 218.7"/>
  <path style="fill: rgb(155, 155, 155); stroke: rgb(242, 142, 60);" d="M 104.8 215.6 L 104.7 210.4"/>
  <path style="fill: rgb(155, 155, 155); stroke: rgb(242, 142, 60);" d="M 101.3 215.6 L 98.8 209.5"/>
  <path style="stroke: rgb(0, 0, 0); fill: url(#color-0);" d="M 52.7 151.2 C 50.9 150.2 50.7 148 49.5 146.5 C 45.2 140.7 43.3 136.3 43.3 129.4 C 43.3 128.9 43.8 130.7 44.4 130.7 C 45.7 130.6 46.8 131.4 47.6 131.4 C 47.8 132.8 49.1 134.1 49.8 135.3 C 51.3 138.4 51.3 142.3 53.1 145.1 C 53.5 145.7 54.2 147.8 54.8 147.8 C 54.5 147.6 54.3 149.5 54.1 149.8 C 53.8 150.4 52.7 150.5 52.7 151.2 Z"/>
  <path style="fill: none; stroke-linecap: square; stroke: rgb(0, 0, 0); stroke-width: 8px;" d="M 288.6 169.8 C 291.5 164.4 296.9 157.6 298.4 151.4 C 300.2 144.4 299.5 137.8 300.6 130.6 C 301.4 125.4 302.5 120.2 301.2 114.9 C 299.1 106.6 290.9 100.2 290.9 91.2"/>
  <path style="fill: none; stroke: url(#color-0); stroke-width: 6px; stroke-linecap: square;" d="M 288.6 169.8 C 291.5 164.4 296.9 157.6 298.4 151.4 C 300.2 144.4 299.5 137.8 300.6 130.6 C 301.4 125.4 302.5 120.2 301.2 114.9 C 299.1 106.6 290.9 100.2 290.9 91.2"/>
  <path style="stroke-width: 6px; fill: none; stroke: url(#color-0);" d="M 370.5 320.9 C 382.6 315.8 385 301.2 389.1 290.7 C 391.3 284.7 392.5 278.3 390.9 272.1 C 389.7 267.4 390.7 260.2 393.5 256.3 C 394.7 254.8 395.3 252.5 397.3 252.5"/>
  <path style="stroke: rgb(0, 0, 0); fill: rgb(206, 155, 17);" d="M 422.4 374.5 L 452.1 374.5 L 452.7 363.7 L 423.2 363.7 L 422.4 374.5 Z" transform="matrix(0.859989, -0.510313, 0.510313, 0.859989, -127.094575, 274.965417)"/>
  <path style="stroke: rgb(0, 0, 0); fill: rgb(206, 155, 17);" d="M 429.1 368.4 L 428.5 379" transform="matrix(0.859989, -0.510313, 0.510313, 0.859989, -130.667106, 271.14423)"/>
  <path style="stroke: rgb(0, 0, 0); fill: url(#color-0);" d="M 398.7 351.2 C 400.8 363.7 409.8 379.8 417.5 391.5 C 420.2 395.7 420.8 401.1 424.4 404.6 C 436.2 416.4 454.6 427.8 459.3 443.2 C 461 448.9 463.2 457.1 456.5 460.3 C 453.5 461.8 449.5 461.6 447.4 463.7 C 446.8 464.3 441 472.8 443.2 474.9 C 449.7 481.4 459.5 478 466.1 474.7 C 467.6 473.9 475.6 473.4 476.7 474.5 C 477.5 475.3 488.2 477.3 488.8 476.7 C 496.4 469 497.5 465.6 491.9 454.4 C 490.3 451.4 481.3 449.5 479 447.2 C 473.2 441.4 469.9 431.9 466.1 425.5 C 464.2 422.4 461 420.5 459.6 417.8 C 457.1 412.6 445.3 412.5 441.3 408.5 C 433.3 400.4 429.9 388.1 425.3 378.8 C 421.4 371 413 362.6 408.2 357.8 C 405.6 355.2 405.9 350.1 403.1 347.3 C 399.7 343.9 395.7 357.6 400.4 357.6"/>
  <path style="stroke: rgb(0, 0, 0); fill: rgb(206, 155, 17);" d="M 433.5 365.8 L 432.9 376.4" transform="matrix(0.859989, -0.510313, 0.510313, 0.859989, -128.724241, 273.025575)"/>
  <path style="stroke: rgb(0, 0, 0); fill: rgb(206, 155, 17);" d="M 438 363.3 L 437.4 373.9" transform="matrix(0.859989, -0.510313, 0.510313, 0.859989, -126.818408, 274.971954)"/>
  <path style="stroke: rgb(0, 0, 0); fill: rgb(206, 155, 17);" d="M 442.6 361 L 442 371.6" transform="matrix(0.859989, -0.510313, 0.510313, 0.859989, -125.000645, 276.997373)"/>
  <path style="stroke: rgb(0, 0, 0); fill: rgb(206, 155, 17);" d="M 446.5 358.3 L 445.9 368.9" transform="matrix(0.859989, -0.510313, 0.510313, 0.859989, -123.076753, 278.609556)"/>
  <path style="stroke: rgb(0, 0, 0); fill: rgb(206, 155, 17);" d="M 459.7 420.4 L 490.2 420.4 L 488.4 409.8 L 458.1 409.8 L 459.7 420.4 Z" transform="matrix(0.850599, -0.525815, 0.525815, 0.850599, -147.427309, 311.331643)"/>
  <path style="stroke: rgb(0, 0, 0); fill: rgb(206, 155, 17);" d="M 464.2 414.9 L 466 425.3" transform="matrix(0.850599, -0.525815, 0.525815, 0.850599, -151.408465, 307.320019)"/>
  <path style="stroke: rgb(0, 0, 0); fill: rgb(206, 155, 17);" d="M 468.6 412.2 L 470.4 422.5" transform="matrix(0.850599, -0.525815, 0.525815, 0.850599, -149.305117, 309.222753)"/>
  <path style="stroke: rgb(0, 0, 0); fill: rgb(206, 155, 17);" d="M 473.2 409.5 L 475.1 419.8" transform="matrix(0.850599, -0.525815, 0.525815, 0.850599, -147.190696, 311.264413)"/>
  <path style="stroke: rgb(0, 0, 0); fill: rgb(206, 155, 17);" d="M 478 407 L 479.8 417.3" transform="matrix(0.850599, -0.525815, 0.525815, 0.850599, -145.166504, 313.388524)"/>
  <path style="stroke: rgb(0, 0, 0); fill: rgb(206, 155, 17);" d="M 481.8 404.2 L 483.6 414.5" transform="matrix(0.850599, -0.525815, 0.525815, 0.850599, -143.126503, 314.968303)"/>
  <path style="stroke: rgb(0, 0, 0); fill: rgb(206, 155, 17);" d="M 485.4 404.5 L 515.9 404.5 L 514.1 393.9 L 483.8 393.9 L 485.4 404.5 Z" transform="matrix(0.850599, -0.525815, 0.525815, 0.850599, -135.227228, 322.469482)"/>
  <path style="stroke: rgb(0, 0, 0); fill: rgb(206, 155, 17);" d="M 489.9 399 L 491.7 409.4" transform="matrix(0.850599, -0.525815, 0.525815, 0.850599, -139.208383, 318.45786)"/>
  <path style="stroke: rgb(0, 0, 0); fill: rgb(206, 155, 17);" d="M 494.3 396.3 L 496.1 406.6" transform="matrix(0.850599, -0.525815, 0.525815, 0.850599, -137.105029, 320.360588)"/>
  <path style="stroke: rgb(0, 0, 0); fill: rgb(206, 155, 17);" d="M 498.9 393.6 L 500.8 403.9" transform="matrix(0.850599, -0.525815, 0.525815, 0.850599, -134.990615, 322.402244)"/>
  <path style="stroke: rgb(0, 0, 0); fill: rgb(206, 155, 17);" d="M 503.7 391.1 L 505.5 401.4" transform="matrix(0.850599, -0.525815, 0.525815, 0.850599, -132.966422, 324.52637)"/>
  <path style="stroke: rgb(0, 0, 0); fill: rgb(206, 155, 17);" d="M 507.5 388.3 L 509.3 398.6" transform="matrix(0.850599, -0.525815, 0.525815, 0.850599, -130.926415, 326.106136)"/>
  <path style="stroke: rgb(0, 0, 0); fill: rgb(206, 155, 17);" d="M 491.2 483 L 520.9 483 L 521.5 472.2 L 492 472.2 L 491.2 483 Z" transform="matrix(0.905641, 0.424044, -0.424044, 0.905641, 250.301961, -169.649169)"/>
  <path style="stroke: rgb(0, 0, 0); fill: rgb(206, 155, 17);" d="M 497.9 467.7 L 497.3 478.3" transform="matrix(0.905641, 0.424044, -0.424044, 0.905641, 247.525717, -166.372827)"/>
  <path style="stroke: rgb(0, 0, 0); fill: rgb(206, 155, 17);" d="M 502.5 469.8 L 501.9 480.4" transform="matrix(0.905641, 0.424044, -0.424044, 0.905641, 248.850259, -168.12528)"/>
  <path style="stroke: rgb(0, 0, 0); fill: rgb(206, 155, 17);" d="M 507.1 472.1 L 506.5 482.7" transform="matrix(0.905641, 0.424044, -0.424044, 0.905641, 250.259617, -169.85886)"/>
  <path style="stroke: rgb(0, 0, 0); fill: rgb(206, 155, 17);" d="M 511.6 474.7 L 511 485.3" transform="matrix(0.905641, 0.424044, -0.424044, 0.905641, 251.786741, -171.521727)"/>
  <path style="stroke: rgb(0, 0, 0); fill: rgb(206, 155, 17);" d="M 516.1 476.4 L 515.5 487" transform="matrix(0.905641, 0.424044, -0.424044, 0.905641, 252.932225, -173.269512)"/>
  <ellipse style="stroke: rgb(0, 0, 0); fill: rgb(210, 37, 208); stroke-width: 0px;" cx="313.8" cy="140.8" rx="3.6" ry="3.3"/>
  <ellipse style="fill: rgb(210, 37, 208); stroke: rgb(0, 0, 0); stroke-width: 0px;" cx="312.7" cy="147.4" rx="2.6" ry="5"/>
  <ellipse style="fill: rgb(210, 37, 208); stroke: rgb(0, 0, 0); stroke-width: 0px;" cx="316.7" cy="146.4" rx="2.5" ry="1.8"/>
  <ellipse style="fill: rgb(210, 37, 208); stroke: rgb(0, 0, 0); stroke-width: 0px;" cx="315.6" cy="154.3" rx="2.4" ry="4.3"/>
  <ellipse style="fill: rgb(210, 37, 208); stroke: rgb(0, 0, 0); stroke-width: 0px;" cx="308.5" cy="152.8" rx="2.9" ry="2.4"/>
  <ellipse style="fill: rgb(210, 37, 208); stroke: rgb(0, 0, 0); stroke-width: 0px;" cx="309.8" cy="149.8" rx="1.8" ry="1.9"/>
  <ellipse style="fill: rgb(210, 37, 208); stroke: rgb(0, 0, 0); stroke-width: 0px;" cx="310.2" cy="144.4" rx="2" ry="2.1"/>
  <ellipse style="fill: rgb(210, 37, 208); stroke: rgb(0, 0, 0); stroke-width: 0px;" cx="311.6" cy="158" rx="2.2" ry="4.1"/>
  <ellipse style="fill: rgb(210, 37, 208); stroke: rgb(0, 0, 0); stroke-width: 0px;" cx="312" cy="153.8" rx="2" ry="1.9"/>
  <ellipse style="fill: rgb(210, 37, 208); stroke: rgb(0, 0, 0); stroke-width: 0px;" cx="309.6" cy="156.5" rx="1.3" ry="1.8"/>
  <ellipse style="fill: rgb(210, 37, 208); stroke: rgb(0, 0, 0); stroke-width: 0px;" cx="307.2" cy="159.9" rx="1.7" ry="2.4"/>
  <ellipse style="fill: rgb(210, 37, 208); stroke: rgb(0, 0, 0); stroke-width: 0px;" cx="311" cy="158.2" rx="2.4" ry="1.9"/>
  <ellipse style="fill: rgb(210, 37, 208); stroke: rgb(0, 0, 0); stroke-width: 0px;" cx="310.6" cy="161.2" rx="2" ry="1.8"/>
  <ellipse style="fill: rgb(210, 37, 208); stroke: rgb(0, 0, 0); stroke-width: 0px;" cx="316" cy="159.9" rx="5.1" ry="2.2"/>
  <ellipse style="fill: rgb(210, 37, 208); stroke: rgb(0, 0, 0); stroke-width: 0px;" cx="318.4" cy="156.6" rx="2.2" ry="2.5"/>
  <ellipse style="fill: rgb(210, 37, 208); stroke: rgb(0, 0, 0); stroke-width: 0px;" cx="316.9" cy="146.9" rx="1.6" ry="1.7"/>
  <ellipse style="fill: rgb(210, 37, 208); stroke: rgb(0, 0, 0); stroke-width: 0px;" cx="318.5" cy="151.1" rx="2.2" ry="3.1"/>
  <ellipse style="fill: rgb(210, 37, 208); stroke: rgb(0, 0, 0); stroke-width: 0px;" cx="314.9" cy="151.1" rx="3" ry="3.5"/>
  <ellipse style="fill: rgb(210, 37, 208); stroke: rgb(0, 0, 0); stroke-width: 0px;" cx="312.8" cy="153.5" rx="1.9" ry="3.2"/>
  <ellipse style="fill: rgb(210, 37, 208); stroke: rgb(0, 0, 0); stroke-width: 0px;" cx="309.2" cy="158.9" rx="1.3" ry="2.2"/>
  <ellipse style="fill: rgb(210, 37, 208); stroke: rgb(0, 0, 0); stroke-width: 0px;" cx="317.8" cy="160.6" rx="3.3" ry="3.7"/>
  <ellipse style="fill: rgb(210, 37, 208); stroke: rgb(0, 0, 0); stroke-width: 0px;" cx="313.8" cy="164.7" rx="3.8" ry="3.1"/>
  <ellipse style="fill: rgb(210, 37, 208); stroke: rgb(0, 0, 0); stroke-width: 0px;" cx="313.6" cy="160" rx="1.2" ry="2.1"/>
  <ellipse style="stroke: rgb(0, 0, 0); stroke-width: 0px; fill: rgb(239, 49, 236);" cx="314.7" cy="144.7" rx="3.5" ry="2.8"/>
  <ellipse style="fill: rgb(210, 37, 208); stroke: rgb(0, 0, 0); stroke-width: 0px;" cx="315.9" cy="153.9" rx="3.7" ry="4.9"/>
  <ellipse style="fill: rgb(239, 49, 236); stroke: rgb(0, 0, 0); stroke-width: 0px;" cx="309.9" cy="154.9" rx="3.2" ry="3.2"/>
  <ellipse style="fill: rgb(239, 49, 236); stroke: rgb(0, 0, 0); stroke-width: 0px;" cx="313.6" cy="161.4" rx="1.1" ry="0.9"/>
  <ellipse style="fill: rgb(239, 49, 236); stroke: rgb(0, 0, 0); stroke-width: 0px;" cx="313.7" cy="152.7" rx="1.1" ry="1.1"/>
  <ellipse style="fill: rgb(239, 49, 236); stroke: rgb(0, 0, 0); stroke-width: 0px;" cx="316.1" cy="158.4" rx="0.9" ry="0.4"/>
  <ellipse style="fill: rgb(239, 49, 236); stroke: rgb(0, 0, 0); stroke-width: 0px;" cx="318.5" cy="152.9" rx="0.7" ry="0.6"/>
  <ellipse style="stroke: rgb(0, 0, 0); stroke-width: 0px; fill: rgb(236, 49, 239);" cx="319.2" cy="156.1" rx="0.4" ry="0.5"/>
  <ellipse style="stroke: rgb(0, 0, 0); stroke-width: 0px; fill: rgb(177, 31, 68);" cx="333" cy="166.8" rx="4.5" ry="4.1"/>
  <ellipse style="fill: rgb(177, 31, 68); stroke: rgb(0, 0, 0); stroke-width: 0px;" cx="327.6" cy="158" rx="2.6" ry="3"/>
  <ellipse style="fill: rgb(177, 31, 68); stroke: rgb(0, 0, 0); stroke-width: 0px;" cx="332.5" cy="162.2" rx="4.4" ry="3.3"/>
  <ellipse style="fill: rgb(177, 31, 68); stroke: rgb(0, 0, 0); stroke-width: 0px;" cx="333.3" cy="159.2" rx="1.7" ry="3.1"/>
  <ellipse style="fill: rgb(177, 31, 68); stroke: rgb(0, 0, 0); stroke-width: 0px;" cx="329.3" cy="162.6" rx="0.9" ry="3.2"/>
  <ellipse style="fill: rgb(177, 31, 68); stroke: rgb(0, 0, 0); stroke-width: 0px;" cx="329.6" cy="166.8" rx="6.2" ry="3.1"/>
  <ellipse style="fill: rgb(177, 31, 68); stroke: rgb(0, 0, 0); stroke-width: 0px;" cx="327.4" cy="163.4" rx="1.3" ry="0.9"/>
  <ellipse style="fill: rgb(177, 31, 68); stroke: rgb(0, 0, 0); stroke-width: 0px;" cx="326.9" cy="150.6" rx="2.1" ry="3.9"/>
  <ellipse style="fill: rgb(177, 31, 68); stroke: rgb(0, 0, 0); stroke-width: 0px;" cx="329.4" cy="157.9" rx="2.4" ry="4.3"/>
  <ellipse style="fill: rgb(177, 31, 68); stroke: rgb(0, 0, 0); stroke-width: 0px;" cx="331.5" cy="155.1" rx="2.5" ry="3.1"/>
  <ellipse style="fill: rgb(177, 31, 68); stroke: rgb(0, 0, 0); stroke-width: 0px;" cx="330" cy="152.1" rx="0.9" ry="0.9"/>
  <ellipse style="fill: rgb(177, 31, 68); stroke: rgb(0, 0, 0); stroke-width: 0px;" cx="327.8" cy="153.1" rx="1.3" ry="2.2"/>
  <ellipse style="fill: rgb(177, 31, 68); stroke: rgb(0, 0, 0); stroke-width: 0px;" cx="331" cy="153.9" rx="2.2" ry="2.3"/>
  <ellipse style="fill: rgb(177, 31, 68); stroke: rgb(0, 0, 0); stroke-width: 0px;" cx="332.5" cy="152.4" rx="3.7" ry="2.9"/>
  <ellipse style="fill: rgb(177, 31, 68); stroke: rgb(0, 0, 0); stroke-width: 0px;" cx="328.7" cy="150.9" rx="2.2" ry="1.7"/>
  <ellipse style="fill: rgb(177, 31, 68); stroke: rgb(0, 0, 0); stroke-width: 0px;" cx="326.3" cy="151.7" rx="1.4" ry="1.4"/>
  <ellipse style="fill: rgb(177, 31, 68); stroke: rgb(0, 0, 0); stroke-width: 0px;" cx="330.2" cy="160.6" rx="1.6" ry="2.7"/>
  <ellipse style="fill: rgb(233, 114, 144); stroke: rgb(0, 0, 0); stroke-width: 0px;" cx="327.7" cy="153" rx="1.6" ry="1.6"/>
  <ellipse style="fill: rgb(233, 114, 144); stroke: rgb(0, 0, 0); stroke-width: 0px;" cx="329.9" cy="159.2" rx="1.4" ry="2.3"/>
  <ellipse style="fill: rgb(233, 114, 144); stroke: rgb(0, 0, 0); stroke-width: 0px;" cx="329.5" cy="165.6" rx="1.2" ry="0.9"/>
  <ellipse style="fill: rgb(233, 114, 144); stroke: rgb(0, 0, 0); stroke-width: 0px;" cx="331.7" cy="165.5" rx="0.8" ry="0.6"/>
  <ellipse style="fill: rgb(233, 114, 144); stroke: rgb(0, 0, 0); stroke-width: 0px;" cx="332.1" cy="156.3" rx="1.2" ry="1.5"/>
  <ellipse style="fill: rgb(233, 114, 144); stroke: rgb(0, 0, 0); stroke-width: 0px;" cx="329.3" cy="148.3" rx="2.4" ry="1.7"/>
  <ellipse style="fill: rgb(233, 114, 144); stroke: rgb(0, 0, 0); stroke-width: 0px;" cx="325.8" cy="154.4" rx="0.7" ry="2.1"/>
  <ellipse style="fill: rgb(233, 114, 144); stroke: rgb(0, 0, 0); stroke-width: 0px;" cx="316.5" cy="157" rx="0.7" ry="0.8"/>
  <ellipse style="fill: rgb(9, 107, 51); stroke: rgb(0, 0, 0); stroke-width: 0px;"/>
  <ellipse style="stroke: rgb(0, 0, 0); stroke-width: 0px; fill: rgb(111, 183, 142);" cx="293.1" cy="135" rx="4.5" ry="4.1" transform="matrix(-0.983456, 0.181149, -0.181149, -0.983456, 599.688819, 187.672814)" bx:origin="1.1 -1.2"/>
  <ellipse style="stroke: rgb(0, 0, 0); stroke-width: 0px; fill: rgb(111, 183, 142);" cx="292.6" cy="130.4" rx="4.4" ry="3.3" transform="matrix(-0.983456, 0.181149, -0.181149, -0.983456, 599.68882, 187.672817)" bx:origin="1.2 -0.9"/>
  <ellipse style="stroke: rgb(0, 0, 0); stroke-width: 0px; fill: rgb(111, 183, 142);" cx="293.4" cy="127.4" rx="1.7" ry="3.1" transform="matrix(-0.983456, 0.181149, -0.181149, -0.983456, 599.68882, 187.672818)" bx:origin="2 -0.5"/>
  <ellipse style="stroke: rgb(0, 0, 0); stroke-width: 0px; fill: rgb(111, 183, 142);" cx="289.4" cy="130.8" rx="0.9" ry="3.2" transform="matrix(-0.983456, 0.181149, -0.181149, -0.983456, 599.688821, 187.672816)" bx:origin="5.5 -1"/>
  <ellipse style="stroke: rgb(0, 0, 0); stroke-width: 0px; fill: rgb(111, 183, 142);" cx="287.5" cy="131.6" rx="1.3" ry="0.9" transform="matrix(-0.983456, 0.181149, -0.181149, -0.983456, 599.688822, 187.672816)" bx:origin="4.7 -5.4"/>
  <ellipse style="stroke: rgb(0, 0, 0); stroke-width: 0px; fill: rgb(111, 183, 142);" cx="289.5" cy="126.1" rx="2.4" ry="4.3" transform="matrix(-0.983456, 0.181149, -0.181149, -0.983456, 599.688822, 187.672818)" bx:origin="2.4 -0.1"/>
  <ellipse style="stroke: rgb(0, 0, 0); stroke-width: 0px; fill: rgb(111, 183, 142);" cx="291.6" cy="123.3" rx="2.5" ry="3.1" transform="matrix(-0.983456, 0.181149, -0.181149, -0.983456, 599.688821, 187.67282)" bx:origin="1.9 0.1"/>
  <ellipse style="stroke: rgb(0, 0, 0); stroke-width: 0px; fill: rgb(111, 183, 142);" cx="290.1" cy="120.3" rx="0.9" ry="0.9" transform="matrix(-0.983456, 0.181149, -0.181149, -0.983456, 599.688822, 187.672836)" bx:origin="5.2 0.9"/>
  <ellipse style="stroke: rgb(0, 0, 0); stroke-width: 0px; fill: rgb(111, 183, 142);" cx="287.9" cy="121.3" rx="1.3" ry="2.2" transform="matrix(-0.983456, 0.181149, -0.181149, -0.983456, 599.688823, 187.67282)" bx:origin="4.6 0.4"/>
  <ellipse style="stroke: rgb(0, 0, 0); stroke-width: 0px; fill: rgb(111, 183, 142);" cx="291.1" cy="122.1" rx="2.2" ry="2.3" transform="matrix(-0.983456, 0.181149, -0.181149, -0.983456, 599.688821, 187.67282)" bx:origin="2.2 0.3"/>
  <ellipse style="stroke: rgb(0, 0, 0); stroke-width: 0px; fill: rgb(111, 183, 142);" cx="292.6" cy="120.6" rx="3.7" ry="2.9" transform="matrix(-0.983456, 0.181149, -0.181149, -0.983456, 599.688821, 187.672836)" bx:origin="1.3 0.6"/>
  <ellipse style="stroke: rgb(0, 0, 0); stroke-width: 0px; fill: rgb(111, 183, 142);" cx="288.8" cy="119.1" rx="2.2" ry="1.7" transform="matrix(-0.983456, 0.181149, -0.181149, -0.983456, 599.688823, 187.672837)" bx:origin="2.7 1.1"/>
  <ellipse style="stroke: rgb(0, 0, 0); stroke-width: 0px; fill: rgb(111, 183, 142);" cx="290.3" cy="128.8" rx="1.6" ry="2.7" transform="matrix(-0.983456, 0.181149, -0.181149, -0.983456, 599.688821, 187.672817)" bx:origin="3.1 -0.9"/>
  <ellipse style="stroke: rgb(0, 0, 0); stroke-width: 0px; fill: rgb(111, 183, 142);" cx="287.8" cy="121.2" rx="1.6" ry="1.6" transform="matrix(-0.983456, 0.181149, -0.181149, -0.983456, 599.688823, 187.67282)" bx:origin="3.8 0.5"/>
  <ellipse style="stroke: rgb(0, 0, 0); stroke-width: 0px; fill: rgb(111, 183, 142);" cx="290" cy="127.4" rx="1.4" ry="2.3" transform="matrix(-0.983456, 0.181149, -0.181149, -0.983456, 599.688821, 187.672818)" bx:origin="3.5 -0.9"/>
  <ellipse style="stroke: rgb(0, 0, 0); stroke-width: 0px; fill: rgb(111, 183, 142);" cx="289.6" cy="133.8" rx="1.2" ry="0.9" transform="matrix(-0.983456, 0.181149, -0.181149, -0.983456, 599.688821, 187.672815)" bx:origin="4.2 -6.6"/>
  <ellipse style="stroke: rgb(0, 0, 0); stroke-width: 0px; fill: rgb(111, 183, 142);" cx="291.8" cy="133.7" rx="0.8" ry="0.6" transform="matrix(-0.983456, 0.181149, -0.181149, -0.983456, 599.68882, 187.672815)" bx:origin="4.7 -10"/>
  <ellipse style="stroke: rgb(0, 0, 0); stroke-width: 0px; fill: rgb(111, 183, 142);" cx="292.2" cy="124.5" rx="1.2" ry="1.5" transform="matrix(-0.983456, 0.181149, -0.181149, -0.983456, 599.688821, 187.672819)" bx:origin="3.1 -0.6"/>
  <ellipse style="stroke: rgb(0, 0, 0); stroke-width: 0px; fill: rgb(111, 183, 142);" cx="289.4" cy="116.5" rx="2.4" ry="1.7" transform="matrix(-0.983456, 0.181149, -0.181149, -0.983456, 599.688822, 187.672838)" bx:origin="2.4 1.8"/>
  <ellipse style="stroke: rgb(0, 0, 0); stroke-width: 0px; fill: rgb(111, 183, 142);" cx="297" cy="123" rx="4.5" ry="4.1" transform="matrix(-0.983456, 0.181149, -0.181149, -0.983456, 599.688818, 187.67282)" bx:origin="0.7 0.3"/>
  <ellipse style="stroke: rgb(0, 0, 0); stroke-width: 0px; fill: rgb(111, 183, 142);" cx="291.6" cy="114.2" rx="2.6" ry="3" transform="matrix(-0.983456, 0.181149, -0.181149, -0.983456, 599.688822, 187.672854)" bx:origin="1.8 1.6"/>
  <ellipse style="stroke: rgb(0, 0, 0); stroke-width: 0px; fill: rgb(111, 183, 142);" cx="296.5" cy="118.4" rx="4.4" ry="3.3" transform="matrix(-0.983456, 0.181149, -0.181149, -0.983456, 599.688819, 187.672838)" bx:origin="0.7 0.9"/>
  <ellipse style="stroke: rgb(0, 0, 0); stroke-width: 0px; fill: rgb(111, 183, 142);" cx="297.3" cy="115.4" rx="1.7" ry="3.1" transform="matrix(-0.983456, 0.181149, -0.181149, -0.983456, 599.688819, 187.672854)" bx:origin="0.8 1.4"/>
  <ellipse style="stroke: rgb(0, 0, 0); stroke-width: 0px; fill: rgb(111, 183, 142);" cx="293.3" cy="118.8" rx="0.9" ry="3.2" transform="matrix(-0.983456, 0.181149, -0.181149, -0.983456, 599.68882, 187.672837)" bx:origin="3.4 0.9"/>
  <ellipse style="stroke: rgb(0, 0, 0); stroke-width: 0px; fill: rgb(111, 183, 142);" cx="291.4" cy="119.6" rx="1.3" ry="0.9" transform="matrix(-0.983456, 0.181149, -0.181149, -0.983456, 599.688821, 187.672837)" bx:origin="3.2 1.3"/>
  <ellipse style="stroke: rgb(0, 0, 0); stroke-width: 0px; fill: rgb(111, 183, 142);" cx="290.9" cy="106.8" rx="2.1" ry="3.9" transform="matrix(-0.983456, 0.181149, -0.181149, -0.983456, 599.688823, 187.672858)" bx:origin="2.3 2.3"/>
  <ellipse style="stroke: rgb(0, 0, 0); stroke-width: 0px; fill: rgb(111, 183, 142);" cx="293.4" cy="114.1" rx="2.4" ry="4.3" transform="matrix(-0.983456, 0.181149, -0.181149, -0.983456, 599.688821, 187.672855)" bx:origin="1.6 1.3"/>
  <ellipse style="stroke: rgb(0, 0, 0); stroke-width: 0px; fill: rgb(111, 183, 142);" cx="295.5" cy="111.3" rx="2.5" ry="3.1" transform="matrix(-0.983456, 0.181149, -0.181149, -0.983456, 599.68882, 187.672856)" bx:origin="1.1 2.1"/>
  <ellipse style="stroke: rgb(0, 0, 0); stroke-width: 0px; fill: rgb(111, 183, 142);" cx="294" cy="108.3" rx="0.9" ry="0.9" transform="matrix(-0.983456, 0.181149, -0.181149, -0.983456, 599.688821, 187.672857)" bx:origin="3 7.6"/>
  <ellipse style="stroke: rgb(0, 0, 0); stroke-width: 0px; fill: rgb(111, 183, 142);" cx="291.8" cy="109.3" rx="1.3" ry="2.2" transform="matrix(-0.983456, 0.181149, -0.181149, -0.983456, 599.688822, 187.672857)" bx:origin="3.1 3.2"/>
  <ellipse style="stroke: rgb(0, 0, 0); stroke-width: 0px; fill: rgb(111, 183, 142);" cx="295" cy="110.1" rx="2.2" ry="2.3" transform="matrix(-0.983456, 0.181149, -0.181149, -0.983456, 599.68882, 187.672857)" bx:origin="1.3 2.9"/>
  <ellipse style="stroke: rgb(0, 0, 0); stroke-width: 0px; fill: rgb(111, 183, 142);" cx="296.5" cy="108.6" rx="3.7" ry="2.9" transform="matrix(-0.983456, 0.181149, -0.181149, -0.983456, 599.68882, 187.672857)" bx:origin="0.8 2.6"/>
  <ellipse style="stroke: rgb(0, 0, 0); stroke-width: 0px; fill: rgb(111, 183, 142);" cx="292.7" cy="107.1" rx="2.2" ry="1.7" transform="matrix(-0.983456, 0.181149, -0.181149, -0.983456, 599.688822, 187.672858)" bx:origin="1.8 4.6"/>
  <ellipse style="stroke: rgb(0, 0, 0); stroke-width: 0px; fill: rgb(111, 183, 142);" cx="290.3" cy="107.9" rx="1.4" ry="1.4" transform="matrix(-0.983456, 0.181149, -0.181149, -0.983456, 599.688823, 187.672857)" bx:origin="3.4 5.2"/>
  <ellipse style="stroke: rgb(0, 0, 0); stroke-width: 0px; fill: rgb(111, 183, 142);" cx="294.2" cy="116.8" rx="1.6" ry="2.7" transform="matrix(-0.983456, 0.181149, -0.181149, -0.983456, 599.68882, 187.672838)" bx:origin="1.8 1.3"/>
  <ellipse style="stroke: rgb(0, 0, 0); stroke-width: 0px; fill: rgb(111, 183, 142);" cx="291.7" cy="109.2" rx="1.6" ry="1.6" transform="matrix(-0.983456, 0.181149, -0.181149, -0.983456, 599.688822, 187.672857)" bx:origin="2.6 4.2"/>
  <ellipse style="stroke: rgb(0, 0, 0); stroke-width: 0px; fill: rgb(111, 183, 142);" cx="293.9" cy="115.4" rx="1.4" ry="2.3" transform="matrix(-0.983456, 0.181149, -0.181149, -0.983456, 599.688821, 187.672854)" bx:origin="2.1 1.7"/>
  <ellipse style="stroke: rgb(0, 0, 0); stroke-width: 0px; fill: rgb(111, 183, 142);" cx="293.5" cy="121.8" rx="1.2" ry="0.9" transform="matrix(-0.983456, 0.181149, -0.181149, -0.983456, 599.68882, 187.672821)" bx:origin="2.6 0.1"/>
  <ellipse style="stroke: rgb(0, 0, 0); stroke-width: 0px; fill: rgb(111, 183, 142);" cx="295.7" cy="121.7" rx="0.8" ry="0.6" transform="matrix(-0.983456, 0.181149, -0.181149, -0.983456, 599.688819, 187.672836)" bx:origin="2.2 0"/>
  <ellipse style="stroke: rgb(0, 0, 0); stroke-width: 0px; fill: rgb(111, 183, 142);" cx="296.1" cy="112.5" rx="1.2" ry="1.5" transform="matrix(-0.983456, 0.181149, -0.181149, -0.983456, 599.68882, 187.672856)" bx:origin="1.5 3.4"/>
  <ellipse style="stroke: rgb(0, 0, 0); stroke-width: 0px; fill: rgb(111, 183, 142);" cx="293.3" cy="104.5" rx="2.4" ry="1.7" transform="matrix(-0.983456, 0.181149, -0.181149, -0.983456, 599.688822, 187.672859)" bx:origin="1.6 5.4"/>
  <ellipse style="stroke: rgb(0, 0, 0); stroke-width: 0px; fill: rgb(111, 183, 142);" cx="289.8" cy="110.6" rx="0.7" ry="2.1" transform="matrix(-0.983456, 0.181149, -0.181149, -0.983456, 599.688823, 187.672856)" bx:origin="6.7 3"/>
  <ellipse style="stroke: rgb(0, 0, 0); stroke-width: 0px; fill: rgb(9, 107, 51);" cx="295.7" cy="135.8" rx="4.5" ry="4.1" transform="matrix(-0.983456, 0.181149, -0.181149, -0.983456, 599.688818, 187.672814)" bx:origin="0.8 -1.3"/>
  <ellipse style="stroke: rgb(0, 0, 0); stroke-width: 0px; fill: rgb(9, 107, 51);" cx="290.3" cy="127" rx="2.6" ry="3" transform="matrix(-0.983456, 0.181149, -0.181149, -0.983456, 599.688821, 187.672818)" bx:origin="2.1 -0.5"/>
  <ellipse style="stroke: rgb(0, 0, 0); stroke-width: 0px; fill: rgb(9, 107, 51);" cx="295.2" cy="131.2" rx="4.4" ry="3.3" transform="matrix(-0.983456, 0.181149, -0.181149, -0.983456, 599.688819, 187.672816)" bx:origin="0.9 -1"/>
  <ellipse style="stroke: rgb(0, 0, 0); stroke-width: 0px; fill: rgb(9, 107, 51);" cx="296" cy="128.2" rx="1.7" ry="3.1" transform="matrix(-0.983456, 0.181149, -0.181149, -0.983456, 599.688818, 187.672818)" bx:origin="1.2 -0.7"/>
  <ellipse style="stroke: rgb(0, 0, 0); stroke-width: 0px; fill: rgb(9, 107, 51);" cx="292" cy="131.6" rx="0.9" ry="3.2" transform="matrix(-0.983456, 0.181149, -0.181149, -0.983456, 599.68882, 187.672816)" bx:origin="4.1 -1.1"/>
  <ellipse style="stroke: rgb(0, 0, 0); stroke-width: 0px; fill: rgb(9, 107, 51);" cx="292.3" cy="135.8" rx="6.2" ry="3.1" transform="matrix(0.425413, 0.904999, -0.904999, 0.425413, 290.24759, -207.977935)" bx:origin="0.3 0.3"/>
  <ellipse style="stroke: rgb(0, 0, 0); stroke-width: 0px; fill: rgb(9, 107, 51);" cx="290.1" cy="132.4" rx="1.3" ry="0.9" transform="matrix(-0.983456, 0.181149, -0.181149, -0.983456, 599.688821, 187.672815)" bx:origin="3.7 -5.8"/>
  <ellipse style="stroke: rgb(0, 0, 0); stroke-width: 0px; fill: rgb(9, 107, 51);" cx="289.6" cy="119.6" rx="2.1" ry="3.9" transform="matrix(-0.983456, 0.181149, -0.181149, -0.983456, 599.688822, 187.672836)" bx:origin="2.6 0.7"/>
  <ellipse style="stroke: rgb(0, 0, 0); stroke-width: 0px; fill: rgb(9, 107, 51);" cx="292.1" cy="126.9" rx="2.4" ry="4.3" transform="matrix(-0.983456, 0.181149, -0.181149, -0.983456, 599.68882, 187.672818)" bx:origin="1.8 -0.2"/>
  <ellipse style="stroke: rgb(0, 0, 0); stroke-width: 0px; fill: rgb(9, 107, 51);" cx="296.8" cy="117.6" rx="1.6" ry="2.7" transform="matrix(-0.983456, 0.181149, -0.181149, -0.983456, 599.688819, 187.672838)" bx:origin="1 1.1"/>
  <ellipse style="stroke: rgb(0, 0, 0); stroke-width: 0px; fill: rgb(9, 107, 51);" cx="294.3" cy="110" rx="1.6" ry="1.6" transform="matrix(-0.983456, 0.181149, -0.181149, -0.983456, 599.688821, 187.672857)" bx:origin="1.8 4"/>
  <ellipse style="stroke: rgb(0, 0, 0); stroke-width: 0px; fill: rgb(9, 107, 51);" cx="296.5" cy="116.2" rx="1.4" ry="2.3" transform="matrix(-0.983456, 0.181149, -0.181149, -0.983456, 599.688819, 187.672854)" bx:origin="1.2 1.6"/>
  <ellipse style="stroke: rgb(0, 0, 0); stroke-width: 0px; fill: rgb(9, 107, 51);" cx="296.1" cy="122.6" rx="1.2" ry="0.9" transform="matrix(-0.983456, 0.181149, -0.181149, -0.983456, 599.688819, 187.67282)" bx:origin="1.5 -0.4"/>
  <ellipse style="stroke: rgb(0, 0, 0); stroke-width: 0px; fill: rgb(9, 107, 51);" cx="298.3" cy="122.5" rx="0.8" ry="0.6" transform="matrix(-0.983456, 0.181149, -0.181149, -0.983456, 599.688818, 187.672836)" bx:origin="0.6 -0.7"/>
  <ellipse style="stroke: rgb(0, 0, 0); stroke-width: 0px; fill: rgb(9, 107, 51);" cx="298.7" cy="113.3" rx="1.2" ry="1.5" transform="matrix(-0.983456, 0.181149, -0.181149, -0.983456, 599.688818, 187.672855)" bx:origin="0.4 3.1"/>
  <ellipse style="stroke: rgb(0, 0, 0); stroke-width: 0px; fill: rgb(9, 107, 51);" cx="295.9" cy="105.3" rx="2.4" ry="1.7" transform="matrix(-0.983456, 0.181149, -0.181149, -0.983456, 599.68882, 187.672859)" bx:origin="1 5.1"/>
  <ellipse style="stroke: rgb(0, 0, 0); stroke-width: 0px; fill: rgb(9, 107, 51);" cx="292.4" cy="111.4" rx="0.7" ry="2.1" transform="matrix(-0.983456, 0.181149, -0.181149, -0.983456, 599.688822, 187.672856)" bx:origin="4.8 2.8"/>
  <ellipse style="fill: rgb(9, 107, 51); stroke: rgb(0, 0, 0); stroke-width: 0px;" cx="294.1" cy="121.8" rx="2.9" ry="2.4" transform="matrix(-0.983456, 0.181149, -0.181149, -0.983456, 599.68882, 187.672836)" bx:origin="1.3 0.3"/>
  <ellipse style="fill: rgb(9, 107, 51); stroke: rgb(0, 0, 0); stroke-width: 0px;" cx="296.3" cy="116.7" rx="5.3" ry="4.9" transform="matrix(-0.983456, 0.181149, -0.181149, -0.983456, 599.688819, 187.672838)" bx:origin="0.7 0.9"/>
  <ellipse style="fill: rgb(9, 107, 51); stroke: rgb(0, 0, 0); stroke-width: 0px;" cx="298.2" cy="124.4" rx="0.5" ry="0.5" transform="matrix(0.425413, 0.904999, -0.904999, 0.425413, 282.835455, -198.802261)" bx:origin="-13.1 -0.1"/>
  <ellipse style="fill: rgb(9, 107, 51); stroke: rgb(0, 0, 0); stroke-width: 0px;" cx="295.4" cy="113.2" rx="4.6" ry="3.5" transform="matrix(-0.983456, 0.181149, -0.181149, -0.983456, 599.68882, 187.672855)" bx:origin="0.8 1.6"/>
  <rect x="286.2" y="56.5" width="51.7" height="25.6" rx="2" ry="2" style="stroke: rgb(0, 0, 0); fill: rgb(205, 201, 188);" transform="matrix(-0.297661, -0.954672, 0.954672, -0.297661, 310.433838, 383.077148)"/>
  <rect x="288.7" y="60" width="45.8" height="18.1" rx="2" ry="2" style="stroke: rgb(0, 0, 0); fill: rgb(205, 201, 188);" transform="matrix(-0.297661, -0.954672, 0.954672, -0.297661, 310.433838, 383.077148)"/>
  <rect x="291.6" y="66.1" width="5.6" height="6.3" rx="2" ry="2" style="stroke: rgb(0, 0, 0); fill: rgb(205, 201, 188);" transform="matrix(-0.297661, -0.954672, 0.954672, -0.297661, 310.433838, 383.077148)"/>
  <rect x="300.8" y="66" width="5.6" height="6.3" rx="2" ry="2" style="stroke: rgb(0, 0, 0); fill: rgb(205, 201, 188);" transform="matrix(-0.297661, -0.954672, 0.954672, -0.297661, 310.433838, 383.077148)"/>
  <rect x="310" y="65.9" width="5.6" height="6.3" rx="2" ry="2" style="stroke: rgb(0, 0, 0); fill: rgb(205, 201, 188);" transform="matrix(-0.297661, -0.954672, 0.954672, -0.297661, 310.433838, 383.077148)"/>
  <rect x="318.3" y="66" width="5.6" height="6.3" rx="2" ry="2" style="stroke: rgb(0, 0, 0); fill: rgb(205, 201, 188);" transform="matrix(-0.297661, -0.954672, 0.954672, -0.297661, 310.433838, 383.077148)"/>
  <rect x="325.9" y="65.9" width="5.6" height="6.3" rx="2" ry="2" style="stroke: rgb(0, 0, 0); fill: rgb(205, 201, 188);" transform="matrix(-0.297661, -0.954672, 0.954672, -0.297661, 310.433838, 383.077148)"/>
  <ellipse style="stroke: rgb(0, 0, 0); stroke-width: 0px; fill: rgb(252, 193, 0);" cx="103.5" cy="220.4" rx="4.7" ry="4.7"/>
  <ellipse style="stroke: rgb(0, 0, 0); stroke-width: 0px; fill: rgb(252, 143, 0);" cx="103.9" cy="218" rx="2.3" ry="2.3" bx:origin="0.5 0.6"/>
  <ellipse style="stroke: rgb(0, 0, 0); stroke-width: 0px; fill: rgb(252, 143, 0);" cx="104.6" cy="222.5" rx="2.3" ry="2.3" bx:origin="0.5 0.6"/>
  <ellipse style="stroke: rgb(0, 0, 0); stroke-width: 0px; fill: rgb(252, 143, 0);" cx="102" cy="222.2" rx="2.3" ry="2.3" bx:origin="0.5 0.6"/>
  <ellipse style="stroke: rgb(0, 0, 0); stroke-width: 0px; fill: rgb(248, 194, 70);" cx="104" cy="220.9" rx="2.3" ry="2.3" bx:origin="0.5 0.6"/>
  <path style="fill: rgb(155, 155, 155); stroke: rgb(242, 142, 60);" d="M 108.1 217.7 C 108.1 217.7 119.6 218.4 119.6 218.4"/>
  <path style="fill: rgb(155, 155, 155);" d="M 73.1 200.8 L 103.6 201 L 119.1 211.1 L 128.5 213.5 C 135.8 217.3 145.1 223.1 142.2 224.4"/>
  <ellipse style="fill: none; stroke-width: 2px; stroke: rgb(73, 79, 70);" cx="103.5" cy="220.6" rx="4.7" ry="4.7"/>
  <path style="fill: rgb(216, 216, 216); stroke: rgb(242, 142, 60);" d="M 99.8 211.5 L 89.7 209.7"/>
  <line style="fill: rgb(216, 216, 216); stroke: rgb(242, 142, 60);" x1="92.3" y1="210.2" x2="85.6" y2="214.2"/>
  <line style="fill: rgb(216, 216, 216); stroke: rgb(242, 142, 60);" x1="99.8" y1="211.5" x2="103.9" y2="208.2"/>
  <line style="fill: rgb(216, 216, 216); stroke: rgb(242, 142, 60);" x1="112.4" y1="218" x2="120" y2="224.6"/>
  <line style="fill: rgb(216, 216, 216); stroke: rgb(242, 142, 60);" x1="93.4" y1="226.6" x2="92.1" y2="219.7"/>
  <line style="fill: rgb(216, 216, 216); stroke: rgb(242, 142, 60);" x1="101.5" y1="230.9" x2="105.1" y2="227.5"/>
  <polygon style="stroke: rgb(143, 107, 13); fill: rgb(142, 107, 35);" points="73.4 200.1 82.9 200.9 82.3 215.1 97.8 233.6 112 232.4 114.4 240.3 95.2 242.6 71.6 215.7 72 202"/>
  <polyline style="fill: none; stroke: rgba(192, 151, 117, 0.74);" points="76.5 200.1 76.8 214.6 96.3 238.4 113.2 235.8"/>
  <line style="fill: rgb(216, 216, 216); stroke: rgb(179, 140, 96);" x1="83" y1="214.7" x2="71.2" y2="215.6"/>
  <line style="fill: rgb(216, 216, 216); stroke: rgb(179, 140, 96);" x1="98.1" y1="232.8" x2="95" y2="243.1"/>
  <line style="fill: rgb(216, 216, 216); stroke: rgb(179, 140, 96);" x1="84.2" y1="230.7" x2="90.7" y2="224.3"/>
  <line style="fill: rgb(216, 216, 216); stroke: rgb(179, 140, 96);" x1="72.6" y1="200" x2="83.4" y2="200.7"/>
  <line style="fill: rgb(216, 216, 216); stroke: rgb(179, 140, 96);" x1="112.4" y1="231.8" x2="114.6" y2="240.8"/>
  <path style="fill: rgb(216, 216, 216); stroke-width: 0.5px; stroke: rgb(0, 0, 0);" d="M 118.5 230.2 H 133 A 2 2 0 0 1 135 232.2 V 232.7 A 2 2 0 0 1 133 234.7 H 118.5 V 230.2 Z" transform="matrix(-0.608919, 0.793232, -0.793232, -0.608919, 393.183655, 270.117065)" bx:shape="rect 118.5 230.2 16.5 4.5 0 2 2 0 1@8a471a99"/>
  <ellipse style="fill: rgb(206, 155, 17); stroke: rgb(0, 0, 0);" cx="447.9" cy="356.6" rx="1.8" ry="1.8"/>
  <ellipse style="fill: rgb(206, 155, 17); stroke: rgb(0, 0, 0);" cx="435" cy="364.2" rx="1.8" ry="1.8"/>
  <ellipse style="fill: rgb(206, 155, 17); stroke: rgb(0, 0, 0);" cx="453.1" cy="366" rx="1.9" ry="1.9"/>
  <ellipse style="fill: rgb(206, 155, 17); stroke: rgb(0, 0, 0);" cx="440.2" cy="373.5" rx="1.9" ry="1.9"/>
  <ellipse style="fill: rgb(206, 155, 17); stroke: rgb(0, 0, 0);" cx="422.2" cy="371.9" rx="1.9" ry="1.9"/>
  <ellipse style="fill: rgb(206, 155, 17); stroke: rgb(0, 0, 0);" cx="426.5" cy="380.7" rx="1.9" ry="1.9"/>
  <ellipse style="fill: rgb(206, 155, 17); stroke: rgb(0, 0, 0);" cx="484.2" cy="402.7" rx="1.9" ry="1.9"/>
  <ellipse style="fill: rgb(206, 155, 17); stroke: rgb(0, 0, 0);" cx="471.3" cy="410.6" rx="1.9" ry="1.9"/>
  <ellipse style="fill: rgb(206, 155, 17); stroke: rgb(0, 0, 0);" cx="458.1" cy="418.7" rx="1.9" ry="1.9"/>
  <ellipse style="fill: rgb(206, 155, 17); stroke: rgb(0, 0, 0);" cx="510.9" cy="388.1" rx="1.9" ry="1.9" transform="matrix(0.999575, -0.029162, 0.029162, 0.999575, -11.817636, 13.558771)" bx:origin="-3.3 2"/>
  <ellipse style="fill: rgb(206, 155, 17); stroke: rgb(0, 0, 0);" cx="498" cy="395.6" rx="1.9" ry="1.9" transform="matrix(0.999575, -0.029162, 0.029162, 0.999575, -11.817641, 13.558773)" bx:origin="0.1 0"/>
  <ellipse style="fill: rgb(206, 155, 17); stroke: rgb(0, 0, 0);" cx="490.9" cy="410.8" rx="1.9" ry="1.9"/>
  <ellipse style="fill: rgb(206, 155, 17); stroke: rgb(0, 0, 0);" cx="478" cy="418.7" rx="1.9" ry="1.9"/>
  <ellipse style="fill: rgb(206, 155, 17); stroke: rgb(0, 0, 0);" cx="464.8" cy="426.8" rx="1.9" ry="1.9"/>
  <ellipse style="fill: rgb(206, 155, 17); stroke: rgb(0, 0, 0);" cx="510.9" cy="388.1" rx="1.9" ry="1.9" transform="matrix(0.999575, -0.029162, 0.029162, 0.999575, -5.106041, 21.617698)" bx:origin="-3.3 2"/>
  <ellipse style="fill: rgb(206, 155, 17); stroke: rgb(0, 0, 0);" cx="498" cy="395.6" rx="1.9" ry="1.9" transform="matrix(0.999575, -0.029162, 0.029162, 0.999575, -5.106051, 21.617702)" bx:origin="0.1 0"/>
  <ellipse style="fill: rgb(206, 155, 17); stroke: rgb(0, 0, 0);" cx="484.2" cy="402.7" rx="1.9" ry="1.9" transform="matrix(0.587078, 0.809531, -0.809531, 0.587078, 564.793007, -150.062942)"/>
  <ellipse style="fill: rgb(206, 155, 17); stroke: rgb(0, 0, 0);" cx="471.3" cy="410.6" rx="1.9" ry="1.9" transform="matrix(0.587078, 0.809531, -0.809531, 0.587078, 564.792939, -150.062945)"/>
  <ellipse style="fill: rgb(206, 155, 17); stroke: rgb(0, 0, 0);" cx="458.1" cy="418.7" rx="1.9" ry="1.9" transform="matrix(0.587078, 0.809531, -0.809531, 0.587078, 564.792931, -150.062949)"/>
  <ellipse style="fill: rgb(206, 155, 17); stroke: rgb(0, 0, 0);" cx="484.2" cy="402.7" rx="1.9" ry="1.9" transform="matrix(0.587078, 0.809531, -0.809531, 0.587078, 559.385537, -140.645981)"/>
  <ellipse style="fill: rgb(206, 155, 17); stroke: rgb(0, 0, 0);" cx="471.3" cy="410.6" rx="1.9" ry="1.9" transform="matrix(0.587078, 0.809531, -0.809531, 0.587078, 559.385468, -140.645984)"/>
  <ellipse style="fill: rgb(206, 155, 17); stroke: rgb(0, 0, 0);" cx="458.1" cy="418.7" rx="1.9" ry="1.9" transform="matrix(0.587078, 0.809531, -0.809531, 0.587078, 559.3854, -140.645987)"/>
  <path style="stroke: rgb(0, 0, 0); fill: rgb(83, 199, 225);" d="M 462 171.8 C 458.1 174.4 456.5 178.9 452.8 181.6 C 451 182.9 446.8 183 445.8 185 C 444.2 188.2 448.2 193.3 451.8 192.4 C 454.4 191.8 456.1 189.2 457.8 187.4 C 461.6 183.5 471.6 175.6 462.7 171.2 C 462.2 170.9 462 171.8 461.8 172.1"/>
  <rect x="239.5" y="351.4" width="47.4" height="10.3" rx="2" ry="2" style="stroke: rgb(0, 0, 0); fill: rgb(155, 84, 12);" transform="matrix(0.981829, -0.18977, 0.734412, 0.876559, -257.868927, 91.719147)"/>
  <rect x="180.7" y="212.8" width="35.7" height="6.2" rx="2" ry="2" style="stroke: rgb(0, 0, 0); fill: rgb(155, 84, 12);" transform="matrix(0.6189, -0.78547, 0.656099, 0.783089, -82.691322, 404.770782)"/>
  <rect x="124.1" y="160.3" width="24.5" height="4.7" rx="2" ry="2" style="stroke: rgb(0, 0, 0); fill: rgb(155, 84, 12);" transform="matrix(0.637377, -0.770552, 0.975842, 0.389194, -124.04789, 501.640869)"/>
  <rect x="79.5" y="160.3" width="15.7" height="4.7" rx="2" ry="2" style="stroke: rgb(0, 0, 0); fill: rgb(155, 84, 12);" transform="matrix(0.934238, -0.356651, 0.657556, 0.819366, -107.692322, 382.978577)"/>
  <rect x="219.3" y="217.3" width="43.3" height="6.3" rx="2" ry="2" style="stroke: rgb(0, 0, 0); fill: rgb(155, 84, 12);" transform="matrix(0.994918, -0.100686, 0.11916, 0.993049, -33.726059, 296.686584)"/>
  <rect x="219.6" y="217" width="43.4" height="6.3" rx="2" ry="2" style="stroke: rgb(0, 0, 0); fill: rgb(155, 84, 12);" transform="matrix(0.929821, 0.368012, -0.422784, 0.908143, 0.399457, 203.805042)"/>
  <rect x="242" y="221.2" width="47.8" height="6.4" rx="2" ry="2" style="stroke: rgb(0, 0, 0); fill: rgb(155, 84, 12);" transform="matrix(0.990837, -0.135063, 0.156349, 0.987935, 14.857354, 283.009277)"/>
  <rect x="388.2" y="277.9" width="76.6" height="8.1" rx="2" ry="2" style="stroke: rgb(0, 0, 0); fill: rgb(155, 84, 12);" transform="matrix(0.998915, 0.046576, -0.028028, 0.99978, -8.276126, 165.073029)"/>
  <rect x="93" y="251.8" width="18.3" height="7.3" rx="2" ry="2" style="stroke: rgb(0, 0, 0); fill: rgb(155, 84, 12);" transform="matrix(0.434632, 0.900608, -0.840668, 0.558835, 568.95459, 109.593575)"/>
  <rect x="192.9" y="217.3" width="38.1" height="6.3" rx="2" ry="2" style="stroke: rgb(0, 0, 0); fill: rgb(155, 84, 12);" transform="matrix(0.761706, -0.647923, 0.662068, 0.749674, 101.452301, 212.11467)"/>
  <rect x="127.9" y="217.3" width="25.3" height="6.3" rx="2" ry="2" style="stroke: rgb(0, 0, 0); fill: rgb(155, 84, 12);" transform="matrix(0.180426, -0.983589, 0.986939, 0.162162, 189.507507, 310.906952)"/>
  <rect x="240.1" y="280" width="47.4" height="8.1" rx="2" ry="2" style="stroke: rgb(0, 0, 0); fill: rgb(155, 84, 12);" transform="matrix(0.718569, 0.695456, -0.500401, 0.907349, 158.777451, -174.350906)"/>
  <rect x="95" y="145.5" width="18.8" height="4.2" rx="2" ry="2" style="stroke: rgb(0, 0, 0); fill: rgb(155, 84, 12);" transform="matrix(0.546488, 0.837467, -0.82732, 0.562038, 120.725296, -17.031719)"/>
  <rect x="50.4" y="142.7" width="10" height="4.1" rx="2" ry="2" style="stroke: rgb(0, 0, 0); fill: rgb(155, 84, 12);" transform="matrix(-0.002855, 0.999996, -1.000049, 0.015713, 190.505524, 69.930969)"/>
  <rect x="228.1" y="229.1" width="4.6" height="17.7" rx="2" ry="2" style="fill: rgb(155, 84, 12); stroke: rgb(0, 0, 0);" transform="matrix(0.636594, -0.7712, 0.7712, 0.636594, -91.196838, 263.892975)"/>
  <rect x="138.8" y="176.1" width="2.8" height="13.6" rx="2" ry="2" style="fill: rgb(155, 84, 12); stroke: rgb(0, 0, 0);" transform="matrix(0.460174, 0.887829, -0.887829, 0.460174, 330.640503, 16.967861)"/>
  <rect x="138.8" y="106.6" width="2.8" height="8.2" rx="2" ry="2" style="fill: rgb(155, 84, 12); stroke: rgb(0, 0, 0);" transform="matrix(-0.947202, 0.320636, -0.320636, -0.947202, 405.865509, 276.17923)"/>
  <rect x="138.8" y="115.5" width="2.8" height="8.9" rx="2" ry="2" style="fill: rgb(155, 84, 12); stroke: rgb(0, 0, 0);" transform="matrix(-0.908841, -0.417142, 0.417142, -0.908841, 316.627686, 373.211609)"/>
  <rect x="138.8" y="115.5" width="2.8" height="8.9" rx="2" ry="2" style="fill: rgb(155, 84, 12); stroke: rgb(0, 0, 0);" transform="matrix(-0.029661, -0.99956, 0.99956, -0.029661, 139.716888, 342.898651)"/>
  <rect x="138.8" y="115.5" width="2.8" height="8.9" rx="2" ry="2" style="fill: rgb(155, 84, 12); stroke: rgb(0, 0, 0);" transform="matrix(-0.908841, -0.417142, 0.417142, -0.908841, 343.266052, 360.170868)"/>
  <rect x="129.1" y="115.5" width="2.6" height="8.9" rx="2" ry="2" style="fill: rgb(155, 84, 12); stroke: rgb(0, 0, 0);" transform="matrix(-0.516413, -0.85634, 0.85634, -0.516413, 238.176208, 359.961151)"/>
</svg>